<svg width="50" height="49" viewBox="0 0 50 49" fill="none" xmlns="http://www.w3.org/2000/svg">
<path fill-rule="evenodd" clip-rule="evenodd" d="M24.7 0C11.169 0 0.199951 10.969 0.199951 24.5C0.199951 38.031 11.169 49 24.7 49C38.2309 49 49.2 38.031 49.2 24.5C49.2 10.969 38.2309 0 24.7 0ZM13.2156 16.8438C13.2156 14.7295 14.9295 13.0156 17.0437 13.0156H32.3562C34.4704 13.0156 36.1843 14.7295 36.1843 16.8438V32.1562C36.1843 34.2705 34.4704 35.9844 32.3562 35.9844H17.0437C14.9295 35.9844 13.2156 34.2705 13.2156 32.1562V16.8438ZM10.9187 16.8438C10.9187 13.461 13.661 10.7188 17.0437 10.7188H32.3562C35.7389 10.7188 38.4812 13.461 38.4812 16.8438V32.1562C38.4812 35.539 35.7389 38.2812 32.3562 38.2812H17.0437C13.661 38.2812 10.9187 35.539 10.9187 32.1562V16.8438ZM24.7 29.8594C27.6599 29.8594 30.0593 27.4599 30.0593 24.5C30.0593 21.5401 27.6599 19.1406 24.7 19.1406C21.7401 19.1406 19.3406 21.5401 19.3406 24.5C19.3406 27.4599 21.7401 29.8594 24.7 29.8594ZM24.7 32.1562C28.9284 32.1562 32.3562 28.7284 32.3562 24.5C32.3562 20.2716 28.9284 16.8438 24.7 16.8438C20.4715 16.8438 17.0437 20.2716 17.0437 24.5C17.0437 28.7284 20.4715 32.1562 24.7 32.1562ZM31.9734 19.1406C33.0305 19.1406 33.8875 18.2837 33.8875 17.2266C33.8875 16.1695 33.0305 15.3125 31.9734 15.3125C30.9163 15.3125 30.0593 16.1695 30.0593 17.2266C30.0593 18.2837 30.9163 19.1406 31.9734 19.1406Z" fill="black"/>
</svg>
