<svg width="131" height="120" viewBox="0 0 131 120" fill="none" xmlns="http://www.w3.org/2000/svg">
<path d="M10.694 23.0045C10.511 23.0858 11.06 22.8758 11.1277 22.8555C11.2971 22.8013 11.4733 22.7607 11.6495 22.72C11.7647 22.6929 11.8799 22.6726 11.9883 22.6591C12.0154 22.6591 12.0357 22.6591 12.0763 22.6523C12.2593 22.6387 12.4355 22.6252 12.6184 22.6116C13.479 22.571 14.3464 22.6388 15.2069 22.7065C16.989 22.8487 18.9472 23.0926 20.6887 22.5574C21.9422 22.1713 22.5318 21.1146 22.4641 19.8479C22.4098 18.8251 22.3421 17.8023 22.2811 16.7727C22.1591 14.6863 22.0371 12.6 21.9084 10.5137C21.8474 9.4841 20.8446 8.45447 19.7333 8.85413C17.0432 9.816 14.4413 10.3444 11.6902 10.4663C11.4869 10.2157 11.209 10.026 10.8634 9.95147C9.99605 9.75504 8.95263 10.2089 8.74934 11.1504C8.01753 14.5576 7.7804 18.0529 8.10565 21.5211C8.2344 22.8894 9.44719 23.5668 10.694 23.0045Z" fill="black"/>
<path d="M31.7946 33.9238C28.1762 33.8222 24.5374 34.2422 21.0274 35.1499C20.8173 35.2041 20.6277 35.3056 20.4651 35.4276C19.6859 35.6105 19.1844 36.2608 19.1235 37.0939C18.9337 39.6612 18.9065 42.2284 19.0285 44.8025C19.0759 45.744 19.7807 46.5027 20.7496 46.523C24.4765 46.5975 28.2033 46.6653 31.9369 46.7398C32.8517 46.7601 33.6716 45.9405 33.658 45.0192C33.5971 41.8965 33.5497 38.7738 33.5226 35.6443C33.5158 34.696 32.7433 33.9509 31.8014 33.9238H31.7946Z" fill="black"/>
<path d="M38.9366 24.0951C39.3499 24.0951 39.7699 24.1086 40.1765 24.1628C40.2239 24.1696 40.3187 24.1832 40.3323 24.1899C40.4543 24.217 40.5763 24.2374 40.6982 24.2644C40.9422 24.3186 41.1794 24.3796 41.4233 24.4474C42.1822 24.6641 42.975 24.8876 43.7678 24.8673C44.852 24.8335 45.909 24.366 46.4714 23.3974C47.0067 22.4694 46.9661 21.3924 46.9932 20.3628C47.0542 18.0732 47.1084 15.7837 47.1694 13.4874C47.1829 12.9455 46.9051 12.4578 46.4918 12.1394C46.0242 11.7804 45.5635 11.7465 44.9943 11.8346C41.8773 12.2952 38.7603 12.749 35.6365 13.2097C34.7421 13.3384 34.1729 14.517 34.4372 15.3231C34.4507 15.3569 34.4643 15.3773 34.4711 15.4111C34.3017 15.594 34.1797 15.8175 34.1255 16.0817C33.7528 18.0258 33.4207 20.146 33.5698 22.1307C33.685 23.5938 34.7083 24.7115 36.26 24.5015C37.3645 24.3525 37.893 24.1087 38.9366 24.1019V24.0951Z" fill="black"/>
<path d="M64.5906 38.9297C65.5054 38.7942 66.5014 38.7468 67.2942 38.2252C68.331 37.5478 68.6225 36.4166 68.5818 35.2447C68.4937 32.9755 68.3039 30.7063 68.0397 28.4439C67.938 27.5565 67.3349 26.6759 66.3185 26.7233C62.8763 26.8927 59.468 27.57 56.2494 28.7961C55.4702 29.0941 54.9145 29.7986 55.0026 30.6318C54.9755 30.6318 54.9483 30.6318 54.9212 30.6453C54.0674 30.8824 53.4169 31.8781 53.7218 32.7587C54.0335 33.6596 54.1284 34.2287 54.0945 35.1431C54.081 35.597 54.0674 35.7121 53.959 36.166C53.8642 36.5588 53.7015 36.9382 53.627 37.3378C53.3898 38.6519 53.9929 40.0067 55.4294 40.1964C55.985 40.2709 56.5474 40.1286 57.103 40.0473C57.6248 39.966 58.1466 39.8915 58.6684 39.8103C60.6402 39.5122 62.612 39.2142 64.5838 38.9161L64.5906 38.9297Z" fill="black"/>
<path d="M11.9612 67.3117C12.9438 67.3795 13.6079 66.465 13.6824 65.5911C13.8179 63.9654 13.9263 62.333 14.0008 60.7073C14.0415 59.8944 14.0753 59.0748 14.0956 58.262C14.1227 57.3069 13.9872 56.3924 13.269 55.6947C12.4897 54.9428 11.4598 54.9428 10.4638 55.0851C9.65064 55.2002 8.84424 55.3221 8.03789 55.4441C6.3642 55.6879 4.69736 55.9386 3.02368 56.1825C2.63744 56.2367 2.31889 56.494 2.09528 56.8259C1.51932 56.9817 0.997555 57.3746 0.90269 57.991C0.496127 60.6937 0.27259 63.41 0.299694 66.1399C0.313247 67.3321 1.38384 67.9958 2.47478 67.7994C4.01972 67.5217 5.40883 67.3592 7.07574 67.2711C8.70877 67.1831 10.3418 67.2033 11.968 67.3185L11.9612 67.3117Z" fill="black"/>
<path d="M48.8364 69.818C49.4734 69.5606 50.1917 68.9578 50.0968 68.1585C49.7512 65.3271 49.6428 62.4753 49.7648 59.6304C49.8055 58.7498 48.9449 57.8488 48.0437 57.9098C44.4591 58.1672 40.9018 58.7497 37.4324 59.671C36.5651 59.9013 35.9485 60.9038 36.2331 61.7844C36.2398 61.8115 36.2534 61.8318 36.2602 61.8522C36.2399 61.9673 36.2331 62.0892 36.2398 62.2111C36.4296 64.4397 36.4228 66.6818 36.2195 68.9104C36.1517 69.6352 36.7954 70.4007 37.4797 70.57C41.2269 71.498 45.2519 71.2745 48.8296 69.8113L48.8364 69.818Z" fill="black"/>
<path d="M78.5291 49.6729C78.4275 48.7787 77.8244 47.9117 76.808 47.9523C73.5419 48.0878 70.3979 48.8735 67.43 50.2418C67.1929 50.3502 67.0031 50.5399 66.8608 50.7702C65.9392 50.8312 65.1871 51.5356 65.1803 52.484C65.1668 54.848 65.1464 57.212 65.1328 59.5761C65.1261 60.7886 66.2305 61.405 67.3079 61.2357C70.5062 60.7277 73.8265 60.389 77.1942 60.2196C78.1429 60.1722 78.8883 59.4677 78.9154 58.4991C78.9967 55.5525 78.8679 52.5991 78.5291 49.6729Z" fill="black"/>
<path d="M65.4513 10.9065C65.3632 12.0716 66.6167 12.7897 67.6263 12.5661C67.9516 12.4916 68.2838 12.4239 68.6158 12.3697C68.6632 12.3629 68.88 12.3291 68.9275 12.3223C69.0291 12.3087 69.1375 12.2952 69.2391 12.2884C69.8828 12.2207 70.5265 12.1936 71.1702 12.2071C71.7597 12.2139 72.3493 12.2545 72.932 12.3291C73.0134 12.3426 73.2098 12.3697 73.2234 12.3765C73.386 12.4036 73.5554 12.4374 73.718 12.4645C74.05 12.5323 74.3754 12.6068 74.7007 12.6948C75.8526 12.9929 76.7877 12.1461 76.8757 11.0352C77.1265 8.0006 77.3703 4.97273 77.621 1.93808C77.7159 0.745896 76.4488 0.0821 75.4459 0.278539C74.7548 0.414015 74.0636 0.542708 73.3656 0.651088C73.0201 0.705278 72.6678 0.759462 72.3223 0.813652C72.2952 0.813652 72.0714 0.847526 72.0104 0.861073C71.8342 0.888168 71.6514 0.908473 71.4753 0.928795C70.0455 1.10491 68.6157 1.22683 67.1792 1.30134C66.2847 1.34876 65.4174 2.06003 65.458 3.02191C65.458 3.10997 65.4784 3.20477 65.4987 3.29283C65.4513 3.44863 65.4241 3.61122 65.4377 3.78057C65.6274 6.15138 65.6342 8.53573 65.458 10.9133L65.4513 10.9065Z" fill="black"/>
<path d="M88.2527 29.758C91.5865 29.5209 94.927 29.4057 98.2676 29.4125C99.162 29.4125 100.029 28.62 99.9887 27.692C99.8329 24.5964 99.6771 21.5007 99.5212 18.4051C99.4738 17.4703 98.769 16.6982 97.8001 16.6846C94.6086 16.6372 91.4781 17.2401 88.5169 18.3848C88.273 18.2426 88.002 18.1545 87.6903 18.1681C86.8094 18.2087 85.9081 18.9267 85.9691 19.8886L86.5248 28.0374C86.5858 28.9113 87.2634 29.8257 88.2459 29.758H88.2527Z" fill="black"/>
<path d="M31.0289 80.6899C31.0086 79.5384 31.1916 78.0752 30.2633 77.2014C29.1995 76.1989 27.8443 76.6392 26.5975 76.9508C24.0972 77.5875 21.59 78.2311 19.0896 78.8678C18.8389 78.9356 18.6085 79.071 18.412 79.2471C18.2494 79.2471 18.0936 79.2538 17.9513 79.3013C16.9755 79.6196 16.6096 80.4597 16.7519 81.4148C17.111 83.8533 17.2195 86.5695 17.1043 89.13C17.0568 90.1799 18.2494 91.169 19.2794 90.7896C21.3257 90.031 23.1891 89.6787 25.31 89.6991C26.3196 89.7058 27.336 89.8548 28.3321 89.6042C29.5517 89.2994 30.4529 88.3917 30.8527 87.2198C31.1915 86.2444 31.1103 85.147 31.09 84.131C31.0696 82.9794 31.0425 81.8347 31.0221 80.6831L31.0289 80.6899Z" fill="black"/>
<path d="M69.2255 82.4375C69.1848 81.5434 69.2051 80.568 68.4665 79.9313C67.7618 79.3148 66.9622 79.3487 66.0881 79.4097C65.4105 79.4639 64.7397 79.5248 64.0621 79.5926C62.5578 79.7484 61.0672 79.9584 59.5764 80.1954C59.4138 80.2225 59.2648 80.2903 59.1225 80.3784C59.0344 80.3648 58.9394 80.3512 58.8446 80.358C57.9433 80.3987 57.0895 81.1167 57.1234 82.0786C57.2318 85.059 57.3402 88.0395 57.4487 91.0199C57.4893 92.0902 58.5194 93.0249 59.6239 92.6795C62.4698 91.7785 65.3497 91.0064 68.2634 90.3697C68.9681 90.2139 69.5575 89.4348 69.5236 88.71C69.4558 87.3011 69.3881 85.8989 69.3203 84.49C69.2864 83.8058 69.2526 83.115 69.2187 82.4308L69.2255 82.4375Z" fill="black"/>
<path d="M103.926 69.5267C100.897 69.0187 97.8135 69.1677 94.8795 70.1093C94.351 70.2786 93.9105 70.6986 93.714 71.2066C93.1652 71.4843 92.8264 72.0398 92.7587 72.7239C92.6028 74.3293 92.4538 75.9347 92.298 77.5401C92.2302 78.2581 92.0743 79.0235 92.1285 79.7483C92.2166 81.0218 93.1855 81.8347 94.4256 81.9227C95.1845 81.9769 95.9638 81.9092 96.7227 81.8956C97.5291 81.8821 98.3353 81.8685 99.1349 81.8549C100.748 81.8279 102.354 81.8008 103.966 81.7737C104.854 81.7601 105.735 81.0015 105.687 80.0532C105.525 77.093 105.362 74.1396 105.2 71.1795C105.159 70.4885 104.698 69.6486 103.939 69.5199L103.926 69.5267Z" fill="black"/>
<path d="M111.894 48.7177C112.192 46.2047 112.043 43.6781 111.542 41.1989C111.386 40.4334 110.607 39.9796 109.882 39.939C107.09 39.7832 104.305 39.9661 101.541 40.3996C101.337 40.3047 101.107 40.2573 100.863 40.2709C99.9617 40.3115 99.1011 41.0295 99.1418 41.9914L99.4333 48.7516C99.4739 49.7474 100.192 50.3773 101.154 50.4722C104.149 50.7702 107.171 50.7567 110.166 50.4383C111.176 50.3299 111.766 49.7338 111.888 48.7177H111.894Z" fill="black"/>
<path d="M110.438 17.1384C111.149 16.9758 111.861 16.8404 112.579 16.7455C112.653 16.7388 112.911 16.7049 112.918 16.7049C113.073 16.6914 113.229 16.671 113.378 16.6575C113.751 16.6236 114.124 16.5965 114.496 16.5762C115.953 16.5085 117.417 16.5626 118.867 16.732C119.789 16.8404 120.595 15.8582 120.588 15.0115C120.561 11.9226 120.608 8.82698 120.73 5.74491C120.771 4.77626 119.91 4.07858 119.009 4.02439C116.068 3.85505 113.094 4.17343 110.248 4.93209C109.381 5.1624 108.764 6.16492 109.048 7.04551C109.062 7.07938 109.082 7.11323 109.096 7.15387C108.845 7.44514 108.683 7.83125 108.655 8.26478C108.527 10.6695 108.391 13.0674 108.262 15.4721C108.201 16.6372 109.408 17.3619 110.438 17.1316V17.1384Z" fill="black"/>
<path d="M130.02 60.4838C130.129 59.5761 129.146 58.7429 128.299 58.7632C125.23 58.8581 122.16 59.3796 119.246 60.3551C118.684 60.5447 118.216 61.0054 118.047 61.5608C117.823 61.8453 117.681 62.1976 117.674 62.5972C117.64 64.9545 117.6 67.3117 117.566 69.669C117.552 70.5767 118.365 71.4166 119.287 71.3896C122.221 71.3083 125.148 71.2202 128.082 71.1389C128.963 71.1118 129.871 70.3735 129.803 69.4184C129.593 66.4379 129.668 63.4439 130.02 60.477V60.4838Z" fill="black"/>
<path d="M20.6007 106.952C20.5532 106.152 20.5329 105.353 20.5464 104.547C20.56 103.843 20.6617 103.084 20.4245 102.407C20.0721 101.37 19.2117 100.74 18.1343 100.639C17.3754 100.564 16.5757 100.747 15.8303 100.862C14.4345 101.072 13.0657 101.404 11.724 101.831C11.5275 101.75 11.3175 101.709 11.1006 101.716C10.1317 101.756 9.42694 102.468 9.37951 103.436C9.21688 106.891 9.44737 110.332 9.99623 113.746C10.1385 114.64 11.2971 115.202 12.1103 114.945C14.6039 114.146 17.0161 113.685 19.5368 113.536C20.6955 113.468 21.4341 112.5 21.1969 111.362C20.8716 109.824 20.6888 108.523 20.5939 106.959L20.6007 106.952ZM17.7683 104.059C17.8158 104.059 17.8564 104.059 17.9038 104.059C17.8835 104.107 17.8293 104.1 17.7683 104.059Z" fill="black"/>
<path d="M47.6844 105.258C44.8046 105.638 41.918 106.024 39.0382 106.403C38.1776 106.518 37.3374 107.074 37.3238 108.029C37.1002 108.313 36.9579 108.666 36.9579 109.065C36.9579 111.897 36.9715 114.728 36.9715 117.56C36.9715 118.725 38.0624 119.449 39.1465 119.219C42.4939 118.508 45.8481 117.79 49.1955 117.079C49.8527 116.936 50.544 116.13 50.4559 115.419C50.1035 112.608 49.7444 109.797 49.392 106.986C49.2904 106.159 48.6805 105.136 47.6709 105.265L47.6844 105.258Z" fill="black"/>
<path d="M90.5294 99.5413C90.5023 98.7149 90.5091 97.8886 90.5497 97.0622C90.5904 96.2425 90.6852 95.4297 90.2313 94.6913C89.9331 94.2036 89.4317 93.8243 88.8625 93.7227C88.3272 93.621 87.8257 93.7227 87.304 93.8378C86.4773 94.0072 85.6439 94.1833 84.8172 94.3527C83.1571 94.6981 81.4969 95.0436 79.8367 95.3823C78.9558 95.5652 78.3663 96.649 78.6374 97.4957C78.7729 97.9157 79.0304 98.234 79.3489 98.444C79.3489 98.4846 79.3353 98.5253 79.3285 98.5659C79.132 100.801 78.9356 103.037 78.7459 105.279C78.6646 106.227 79.5997 106.965 80.467 106.999C83.6179 107.121 86.7687 106.871 89.8653 106.302C90.8275 106.125 91.2341 105.035 91.0647 104.188C90.7394 102.569 90.5903 101.269 90.5294 99.5346V99.5413Z" fill="black"/>
<path d="M121.286 98.6472C121.266 97.8073 120.507 96.8115 119.565 96.9267C117.186 97.2315 114.815 97.5364 112.436 97.8412C111.549 97.9564 110.675 98.5524 110.715 99.5617C110.722 99.7717 110.783 99.9953 110.871 100.212C110.79 100.408 110.749 100.618 110.77 100.849C110.898 102.136 110.946 103.423 110.905 104.71C110.885 105.319 110.851 105.936 110.79 106.545C110.722 107.311 110.681 107.595 110.566 108.293C110.471 108.855 110.519 109.329 110.871 109.79C111.169 110.176 111.698 110.528 112.22 110.467C114.984 110.156 117.756 109.844 120.52 109.533C121.686 109.404 122.404 108.544 122.18 107.358C121.631 104.459 121.34 101.702 121.272 98.6405L121.286 98.6472Z" fill="black"/>
</svg>
