<?xml version="1.0" encoding="utf-8"?>
<!-- Generator: Adobe Illustrator 19.2.1, SVG Export Plug-In . SVG Version: 6.00 Build 0)  -->
<svg version="1.1" id="layer" xmlns="http://www.w3.org/2000/svg" xmlns:xlink="http://www.w3.org/1999/xlink" x="0px" y="0px"
	 viewBox="0 0 652 652" style="enable-background:new 0 0 652 652;" xml:space="preserve">
<style type="text/css">
	.st0{fill:#CFDB00;}
	.st1{fill:#231815;}
	.st2{fill:none;stroke:#231815;stroke-width:7.245417e-002;}
	.st3{clip-path:url(#SVGID_2_);fill:#231815;}
	.st4{clip-path:url(#SVGID_2_);fill:none;stroke:#231815;stroke-width:0.8634;}
</style>
<rect x="71.1" y="72.4" class="st0" width="498.3" height="500"/>
<rect x="467.3" y="252.1" class="st1" width="3.3" height="17.3"/>
<rect x="467.3" y="252.2" class="st2" width="3.3" height="17.3"/>
<polygon class="st1" points="476.4,252.9 479.8,253.6 474.1,282.1 470.6,281.4 "/>
<polygon class="st2" points="476.4,252.9 479.8,253.6 474.1,282.1 470.6,281.4 "/>
<rect x="475.2" y="262.1" transform="matrix(0.3736 -0.9276 0.9276 0.3736 58.4048 614.0199)" class="st1" width="17.2" height="3.3"/>
<rect x="475.2" y="262.1" transform="matrix(0.3736 -0.9276 0.9276 0.3736 58.4048 614.0199)" class="st2" width="17.2" height="3.3"/>
<polygon class="st1" points="493.6,259.4 496.5,261.3 480.6,285.5 477.6,283.6 "/>
<polygon class="st2" points="493.6,259.4 496.5,261.3 480.6,285.5 477.6,283.6 "/>
<rect x="487.8" y="270.9" transform="matrix(0.6953 -0.7187 0.7187 0.6953 -44.6113 439.8658)" class="st1" width="17.2" height="3.3"/>
<rect x="487.8" y="270.9" transform="matrix(0.6953 -0.7187 0.7187 0.6953 -44.6113 439.8658)" class="st2" width="17.2" height="3.3"/>
<polygon class="st1" points="507.2,271.9 509.2,274.8 485.3,291.3 483.3,288.4 "/>
<polygon class="st2" points="507.2,271.9 509.2,274.8 485.3,291.3 483.3,288.4 "/>
<polygon class="st1" points="511.7,280 513,283.1 497.3,290.1 495.9,287 "/>
<polygon class="st2" points="511.7,280 513,283.1 497.3,290.1 495.9,287 "/>
<polygon class="st1" points="514.7,288.5 515.4,291.9 487.1,298.3 486.3,294.8 "/>
<polygon class="st2" points="514.7,288.5 515.4,291.9 487.1,298.3 486.3,294.8 "/>
<rect x="498.6" y="298.1" transform="matrix(0.9994 -3.439472e-002 3.439472e-002 0.9994 -10.0116 17.6229)" class="st1" width="17.2" height="3.3"/>
<rect x="498.6" y="298.1" transform="matrix(0.9994 -3.433026e-002 3.433026e-002 0.9994 -9.9934 17.5896)" class="st2" width="17.3" height="3.3"/>
<polygon class="st1" points="515.4,306.8 514.8,310.3 486.2,305.6 486.8,302.1 "/>
<polygon class="st2" points="515.4,306.8 514.8,310.3 486.2,305.6 486.8,302.1 "/>
<rect x="502.6" y="305.5" transform="matrix(0.3438 -0.9391 0.9391 0.3438 35.9032 679.687)" class="st1" width="3.3" height="17.2"/>
<rect x="502.6" y="305.5" transform="matrix(0.3438 -0.9391 0.9391 0.3438 35.9032 679.687)" class="st2" width="3.3" height="17.2"/>
<polygon class="st1" points="509.2,323.7 507.4,326.7 482.6,311.6 484.5,308.6 "/>
<polygon class="st2" points="509.2,323.7 507.4,326.7 482.6,311.6 484.5,308.6 "/>
<rect x="493.8" y="318" transform="matrix(0.6681 -0.744 0.744 0.6681 -78.5857 477.0886)" class="st1" width="3.3" height="17.2"/>
<rect x="493.8" y="318" transform="matrix(0.6681 -0.744 0.744 0.6681 -78.5857 477.0886)" class="st2" width="3.3" height="17.2"/>
<polygon class="st1" points="496.5,337.4 493.7,339.5 476.4,316.2 479.2,314.1 "/>
<polygon class="st2" points="496.5,337.4 493.7,339.5 476.4,316.2 479.2,314.1 "/>
<rect x="467.2" y="329.4" transform="matrix(0.9999 -1.715282e-002 1.715282e-002 0.9999 -5.7288 8.0917)" class="st1" width="3.3" height="17.2"/>
<rect x="467.2" y="329.4" transform="matrix(0.9998 -1.806519e-002 1.806519e-002 0.9998 -6.0296 8.5248)" class="st2" width="3.3" height="17.2"/>
<polygon class="st1" points="461.7,346.1 458.2,345.4 463.5,316.9 466.9,317.5 "/>
<polygon class="st2" points="461.7,346.1 458.2,345.4 463.5,316.9 466.9,317.5 "/>
<rect x="445.4" y="333.3" transform="matrix(0.3672 -0.9301 0.9301 0.3672 -24.2537 634.2629)" class="st1" width="17.2" height="3.3"/>
<rect x="445.4" y="333.3" transform="matrix(0.3672 -0.9301 0.9301 0.3672 -24.2537 634.2629)" class="st2" width="17.2" height="3.3"/>
<polygon class="st1" points="444.3,339.7 441.4,337.8 457.1,313.4 460.1,315.3 "/>
<polygon class="st2" points="444.3,339.7 441.4,337.8 457.1,313.4 460.1,315.3 "/>
<rect x="433.1" y="325" transform="matrix(0.6943 -0.7197 0.7197 0.6943 -100.0669 417.7873)" class="st1" width="17.3" height="3.3"/>
<rect x="433.1" y="325" transform="matrix(0.6943 -0.7197 0.7197 0.6943 -100.0669 417.7873)" class="st2" width="17.3" height="3.3"/>
<polygon class="st1" points="431,327.3 429,324.4 452.9,307.9 454.9,310.9 "/>
<polygon class="st2" points="431,327.3 429,324.4 452.9,307.9 454.9,310.9 "/>
<rect x="424.9" y="312.7" transform="matrix(0.9173 -0.3981 0.3981 0.9173 -89.3067 198.5685)" class="st1" width="17.2" height="3.3"/>
<rect x="424.9" y="312.7" transform="matrix(0.9173 -0.3981 0.3981 0.9173 -89.3067 198.5685)" class="st2" width="17.2" height="3.3"/>
<polygon class="st1" points="423.3,310.8 422.6,307.4 451,301.3 451.7,304.7 "/>
<polygon class="st2" points="423.3,310.8 422.6,307.4 451,301.3 451.7,304.7 "/>
<polygon class="st1" points="421.9,297.9 422,301.2 439.2,300.9 439.2,297.6 "/>
<rect x="422" y="297.7" transform="matrix(0.9999 -1.627820e-002 1.627820e-002 0.9999 -4.8167 7.0487)" class="st2" width="17.2" height="3.3"/>
<polygon class="st1" points="422.5,292.2 423.1,288.8 451.7,294 451.1,297.5 "/>
<polygon class="st2" points="422.5,292.2 423.1,288.8 451.7,294 451.1,297.5 "/>
<rect x="431.5" y="276.5" transform="matrix(0.3658 -0.9307 0.9307 0.3658 9.3453 583.9437)" class="st1" width="3.3" height="17.2"/>
<rect x="431.5" y="276.5" transform="matrix(0.3658 -0.9307 0.9307 0.3658 9.3453 583.9437)" class="st2" width="3.3" height="17.2"/>
<polygon class="st1" points="428.4,275.4 430.3,272.5 454.7,288.2 452.8,291.2 "/>
<polygon class="st2" points="428.4,275.4 430.3,272.5 454.7,288.2 452.8,291.2 "/>
<rect x="440.1" y="263.7" transform="matrix(0.6953 -0.7188 0.7188 0.6953 -61.1334 400.4928)" class="st1" width="3.3" height="17.2"/>
<rect x="440.1" y="263.7" transform="matrix(0.6953 -0.7188 0.7188 0.6953 -61.1334 400.4928)" class="st2" width="3.3" height="17.2"/>
<polygon class="st1" points="441.1,261.6 444,259.6 460.5,283.5 457.6,285.5 "/>
<polygon class="st2" points="441.1,261.6 444,259.6 460.5,283.5 457.6,285.5 "/>
<rect x="452.5" y="255.4" transform="matrix(0.9167 -0.3995 0.3995 0.9167 -67.6731 203.4369)" class="st1" width="3.3" height="17.2"/>
<rect x="452.5" y="255.4" transform="matrix(0.9167 -0.3995 0.3995 0.9167 -67.6731 203.4369)" class="st2" width="3.3" height="17.2"/>
<polygon class="st1" points="457.7,253.9 461.1,253.1 467.2,281.5 463.8,282.2 "/>
<polygon class="st2" points="457.7,253.9 461.1,253.1 467.2,281.5 463.8,282.2 "/>
<polygon class="st1" points="488.8,342.2 485.8,343.5 478.8,327.8 481.8,326.4 "/>
<polygon class="st2" points="488.8,342.2 485.8,343.5 478.8,327.8 481.8,326.4 "/>
<polygon class="st1" points="480.3,345.2 476.9,345.9 470.6,317.6 474,316.9 "/>
<polygon class="st2" points="480.3,345.2 476.9,345.9 470.6,317.6 474,316.9 "/>
<g>
	<defs>
		<rect id="SVGID_1_" x="71.1" y="72.4" width="498.3" height="500"/>
	</defs>
	<clipPath id="SVGID_2_">
		<use xlink:href="#SVGID_1_"  style="overflow:visible;"/>
	</clipPath>
	<path class="st3" d="M468.8,304.3c2.8,0,5.1-2.3,5.1-5.1c0-2.8-2.3-5.1-5.1-5.1c-2.8,0-5.1,2.3-5.1,5.1
		C463.6,302,465.9,304.3,468.8,304.3"/>
	<path class="st4" d="M468.8,304.3c2.8,0,5.1-2.3,5.1-5.1c0-2.8-2.3-5.1-5.1-5.1c-2.8,0-5.1,2.3-5.1,5.1
		C463.6,302,465.9,304.3,468.8,304.3z"/>
	<path class="st3" d="M141.1,259.6v84.8h37.4c18.6,0,61.8-4.8,61.8-48.8c0-23.9-15.5-36-46.1-36H141.1z M172.2,329.2v-56h12.2
		c13.8,0,21.5,10.7,21.5,30.1c0,22.8-14.7,27.6-27,27.6h-6.7V329.2z"/>
	<path class="st3" d="M254.5,259.6v84.8h31.1v-32.3h8c32,0,43.9-19.4,43.9-31.7c0-17.2-15-20.8-27.6-20.8H254.5z M285.6,296.9v-23.7
		h5.6c10,0,15.1,3.7,15.1,11.1c0,9.3-9,14.3-17.4,14.3h-3.3V296.9z"/>
	<path class="st3" d="M359.6,259.6c-0.8,2.1-31.9,80.4-33.7,84.8h16.5c0.7-2,6.4-17.8,6.4-17.8h33.4c0,0,6,15.8,6.7,17.8h33.3
		c-1.8-4.4-33.6-82.7-34.4-84.8H359.6z M355.1,312l10.6-29.2l11.1,31.5h-22.6L355.1,312z"/>
	<polygon class="st3" points="151.1,376.8 148.3,376.8 144.6,364.8 140.9,376.8 138.8,376.8 143.7,360.3 146.5,360.3 150.3,372.8 
		154,360.3 156.8,360.3 161.8,376.8 158.5,376.8 154.9,364.7 	"/>
	<rect x="182.6" y="360.3" class="st3" width="3.3" height="16.5"/>
	<path class="st3" d="M217.9,361.7c-4.4,0-6.9,2.3-6.9,6.1c0,5.6,4.6,7.6,8,7.6c1.1,0,2.7-0.3,3.3-0.7v2.1c-0.5,0.1-1.9,0.4-3.9,0.4
		c-6.1,0-11.1-3.3-11.1-9.4c0-4.5,3.5-8,10.4-8c1.7,0,4.1,0.2,4.6,0.3v2.3C221.6,362.2,220,361.7,217.9,361.7"/>
	<path class="st3" d="M246.9,376.8h-3.3v-16.5h7c4.6,0,5.4,2.2,5.4,3.9c0,3.4-3.6,4.5-4.4,4.7l5.6,8h-3.9l-5.2-7.6h-1.1V376.8z
		 M252.4,364.7c0-2.2-2.1-2.6-3.4-2.6h-2.1v5.4h1.7C250.4,367.5,252.4,366.6,252.4,364.7"/>
	<path class="st3" d="M295.6,367.9c0,4.2-3.1,9.4-9.7,9.4c-6.4,0-9.6-5.2-9.6-9.4c0-5.5,4.8-8,9.7-8
		C290.9,359.9,295.6,362.5,295.6,367.9 M285.9,375.4c4.1,0,6-4.4,6-7.5c0-4.3-2.9-6.2-6-6.2c-3.1,0-6,1.9-6,6.2
		C279.9,371.2,281.8,375.4,285.9,375.4"/>
	<path class="st3" d="M320.3,370.1v6.8H317v-16.5h6.8c3.7,0,5.5,1.7,5.5,4.3c0,3.1-3,5.5-7.5,5.5H320.3z M325.8,365.1
		c0-2.7-1.6-3-3.5-3h-2v6.2h0.7C322.7,368.2,325.8,367.8,325.8,365.1"/>
	<polygon class="st3" points="362.6,369.2 353.7,369.2 353.7,376.8 350.4,376.8 350.4,360.3 353.7,360.3 353.7,367.3 362.6,367.3 
		362.6,360.3 365.9,360.3 365.9,376.8 362.6,376.8 	"/>
	<path class="st3" d="M406.6,367.9c0,4.2-3.1,9.4-9.7,9.4c-6.4,0-9.6-5.2-9.6-9.4c0-5.5,4.8-8,9.7-8
		C401.9,359.9,406.6,362.5,406.6,367.9 M397,375.4c4.1,0,6-4.4,6-7.5c0-4.3-2.9-6.2-6-6.2c-3.1,0-6,1.9-6,6.2
		C391,371.2,392.8,375.4,397,375.4"/>
	<polygon class="st3" points="440.2,372.2 440.2,360.3 442.4,360.3 442.4,376.8 439.9,376.8 430,364.7 430,376.8 427.9,376.8 
		427.9,360.3 430.7,360.3 	"/>
	<polygon class="st3" points="476.7,376.8 464.8,376.8 464.8,360.3 476.6,360.3 476.6,362.1 468.1,362.1 468.1,367.4 476.7,367.4 
		476.7,369.2 468.1,369.2 468.1,375 476.7,375 	"/>
	<path class="st3" d="M504.1,359.9c1.6,0,3.3,0.3,4.3,0.5v2.2c-2.4-1.1-7.6-1.8-7.6,1.8c0,1.8,2,2.3,3.6,2.6
		c1.9,0.3,5.1,0.6,5.1,4.5c0,2.9-2.3,5.8-7,5.8c-2.3,0-4.3-0.4-5.2-0.6v-2.4c1,0.4,2.7,1.2,4.9,1.2c2.1,0,3.7-1.3,3.7-3.2
		c0-2.8-3.9-1.7-6.6-3.1c-1.8-1-2.3-2.5-2.3-4.1C497.2,362.3,499.2,359.9,504.1,359.9"/>
</g>
</svg>
