<?xml version="1.0" encoding="utf-8"?>
<!-- Generator: Adobe Illustrator 19.2.1, SVG Export Plug-In . SVG Version: 6.00 Build 0)  -->
<svg version="1.1" id="layer" xmlns="http://www.w3.org/2000/svg" xmlns:xlink="http://www.w3.org/1999/xlink" x="0px" y="0px"
	 viewBox="0 0 652 652" style="enable-background:new 0 0 652 652;" xml:space="preserve">
<path d="M276.8,299.8h7.9v7.1h-7.9V299.8z M276.8,312.8h7.9v31.4h-7.9V312.8z"/>
<path d="M380.4,299c12.4-0.3,22.7,9.5,23,21.9c0,0.3,0,0.5,0,0.8c0.4,12.7-9.5,23.3-22.2,23.8c-12.7,0.4-23.3-9.5-23.8-22.2
	c0-0.5,0-1.1,0-1.6c-0.1-12.4,9.8-22.5,22.2-22.7C379.8,299,380.1,299,380.4,299z M380.4,337.6c8.3-0.2,14.9-7.1,14.7-15.4
	c0-0.1,0-0.3,0-0.4c0.4-8.1-5.9-14.9-14-15.3c-8.1-0.4-14.9,5.9-15.3,14c0,0.4,0,0.9,0,1.3c-0.5,8.3,5.9,15.4,14.2,15.9
	C380,337.6,380.2,337.6,380.4,337.6z"/>
<path d="M434.8,306.7h-14.6v-6.9h37.2v6.9h-14.6v37.5h-8.1V306.7z"/>
<path d="M497.3,299c12.4-0.3,22.7,9.5,23,21.9c0,0.3,0,0.5,0,0.8c0.4,12.7-9.5,23.3-22.2,23.8c-12.7,0.4-23.3-9.5-23.8-22.2
	c0-0.5,0-1.1,0-1.6c-0.1-12.4,9.9-22.6,22.3-22.7C496.9,299,497.1,299,497.3,299z M497.3,337.6c8.3-0.2,14.9-7.1,14.7-15.4
	c0-0.1,0-0.3,0-0.4c0.4-8.1-5.9-14.9-14-15.3c-8.1-0.4-14.9,5.9-15.3,14c0,0.4,0,0.9,0,1.3c-0.5,8.3,5.9,15.4,14.2,15.9
	C497,337.6,497.2,337.6,497.3,337.6z"/>
<path d="M542.1,299.8h17.2c7.5-0.3,13.8,5.5,14.2,13c0,0.5,0,1,0,1.4c0.4,7.7-5.5,14.2-13.1,14.6c-0.3,0-0.7,0-1,0h-9.1v15.3h-8.1
	V299.8z M557.8,322c3.9,0.3,7.2-2.7,7.5-6.5c0-0.4,0-0.7,0-1.1c0.3-3.8-2.5-7.2-6.3-7.5c-0.4,0-0.7,0-1.1,0h-7.7V322H557.8z"/>
<path d="M594.4,299.8H621v6.9h-18.4v11.6h14.9v6.9h-14.9v12H622v6.9h-27.6V299.8z"/>
<path d="M316.1,337.3c1.2-1.2,2.3-2.6,3.2-4l23.2-33.5H307v6.9h22c-1.2,1.2-2.3,2.6-3.2,4l-23.3,33.5h37v-6.9H316.1z"/>
<path d="M138.7,223.7c0.2-0.8,0.3-1.6,0.3-2.5c0-6.2-5.1-11.3-11.3-11.3c-6.2,0-11.3,5.1-11.3,11.3c0,6.2,5,11.3,11.2,11.3
	c2,0,3.9-0.6,5.6-1.6c2.5,5.2,5.1,10.4,7.7,15.6c3.7,7.6,7.4,15.2,11.1,22.9c7.2,15.3,14.1,30.8,20.1,46.5c1,2.6,1.8,5.2,2.8,7.7
	c-10.2-0.7-20.9-2-31-3.6c-0.8-8.9-8.7-15.4-17.6-14.6c-2.6,0.2-5,1.1-7.2,2.5c-5.5-6.5-11.6-12.5-18.2-17.9
	c-3.5-2.8-7.2-5.4-11.1-7.6c-2-1.2-4.2-2.2-6.4-3c-2.6-1-5.3-1.3-8.1-1c-3.4,0.5-6.3,2.8-7.5,6.1c-0.9,2.5-1.2,5.1-0.9,7.7
	c0.4,4.5,1.2,8.9,2.5,13.2c0.5,1.7,1.1,3.2,1.6,4.9c-22.2-0.7-43.4,2-48.3,13.7c-8.2,19.9,60.8,72.3,93.9,96
	c-0.2,0.8-0.3,1.6-0.3,2.5c0,6.2,5.1,11.3,11.3,11.3c6.2,0,11.3-5.1,11.3-11.3c0-6.2-5-11.3-11.2-11.3c-2,0-3.9,0.6-5.6,1.6
	c-2.5-5.2-5.1-10.4-7.7-15.6c-3.7-7.6-7.4-15.2-11.1-22.9c-7.2-15.3-13.9-30.8-20-46.5c-1-2.6-1.8-5.2-2.8-7.8
	c10.2,0.7,20.8,2,31,3.6c0.9,8.9,8.8,15.4,17.7,14.5c2.5-0.2,5-1.1,7.1-2.4c5.5,6.5,11.6,12.5,18.2,17.9c3.4,2.8,7.1,5.4,11,7.6
	c2,1.2,4.2,2.2,6.4,3c2.6,1,5.3,1.3,8.1,1c3.4-0.5,6.3-2.8,7.5-6.1c0.8-2.5,1.1-5.1,0.9-7.7c-0.3-4.5-1.1-9-2.4-13.3
	c-0.5-1.7-1.1-3.2-1.6-4.9c2.1,0,4.2,0,6.3,0c19.9,0,37.5-3.2,42-13.9C240.9,299.8,171.8,247.4,138.7,223.7z M78.3,330
	c6.7,15.7,14.2,30.9,22,46c3.9,7.5,7.9,15,12,22.4c2.4,4.4,4.8,8.7,7.4,13.1c-57.4-41.2-91.9-75.9-88.6-83.6
	c3.1-7.3,21.3-9.1,43.2-8.1C75.6,323.2,76.9,326.6,78.3,330z M75.7,304.2c-1-3.9-1.6-7.8-1.8-11.8c-0.1-1.6,0.1-3.2,0.6-4.8
	c0.1-0.4,0.4-0.8,0.7-1c0.4-0.2,0.8-0.4,1.2-0.4c3.4,0.2,6.7,1.4,9.5,3.4c3.4,2.1,6.7,4.5,9.7,7.2c6.2,5.3,11.9,11.2,16.9,17.7l0,0
	l0,0c0,0.2,0.3,0.2,0.5,0.4l0,0c-9.9-1.3-22.6-3-35.4-3.8C77,308.7,76.2,306.4,75.7,304.2z M179.6,339.8c1,3.9,1.6,7.8,1.8,11.8
	c0.1,1.6-0.1,3.2-0.7,4.8c-0.1,0.4-0.4,0.8-0.7,1c-0.4,0.3-0.8,0.4-1.2,0.4c-3.4-0.2-6.6-1.4-9.4-3.4c-3.4-2.1-6.6-4.5-9.7-7.2
	c-6.2-5.3-11.9-11.2-16.9-17.7l0,0l0,0c-0.2-0.1-0.3-0.3-0.5-0.4l0,0c9.8,1.3,22.5,3,35.2,3.8C178.3,335.3,179.1,337.6,179.6,339.8z
	 M224.3,316.1c-3.1,7.3-21.3,9.1-43.2,8c-1.3-3.4-2.6-6.8-4.1-10.1c-6.7-15.7-14.2-30.9-22-46c-3.9-7.5-7.9-15-12-22.4
	c-2.4-4.4-4.8-8.7-7.3-13C183.5,267,228.2,306.7,224.3,316.1z"/>
</svg>
