<svg xmlns="http://www.w3.org/2000/svg" width="56" height="56" viewBox="0 0 70.875 72">
  <path fill="#DB4128" stroke="#DB4128" stroke-width=".3" d="M1.148 52.077v14.187c0 2.783 2.262 5.042 5.055 5.042h58.744c2.79 0 5.053-2.26 5.053-5.042V54.512H6.204c-2.043 0-3.865-.953-5.056-2.435z"/>
  <path fill="#F89C1C" stroke="#F89C1C" stroke-width=".3" d="M64.947.777H6.204C3.41.777 1.15 3.037 1.15 5.82v41.6c0 2.785 2.26 5.045 5.054 5.045L70 52.46V5.82C70 3.037 67.738.778 64.947.778z"/>
  <path fill="#FFF" d="M35.603 27.833l.003.01-.003.007-.004.005-.007.004-.005.004-.012.005-.006-.006h-.012l-.004-.007-.006-.005-.002-.01V27.823l.008-.01h.004l.008-.01h.016l.01.003.004.007.006.004v.015zm11.788 4.71l.03.013c2.492 2.022.9 2.903 5.046 4.73-2.16-.052-3.91-.374-5.227-1.277-.384-.267-.748-.535-1.146-.888-.15-.006-.36.318-.5.563l.018.015c1.823 2.644.043 3.04 3.51 5.957-2.06-.652-3.646-1.456-4.655-2.698-.296-.363-.564-.724-.85-1.172-.147-.048-.434.23-.62.437.992 3.032-.814 2.92 1.687 6.687-1.796-1.21-3.09-2.426-3.71-3.896-.175-.432-.34-.857-.483-1.367-.136-.094-.517.064-.74.17l.022.057c.105 3.215-1.6 2.587-.263 6.912-1.382-1.67-2.285-3.2-2.46-4.785-.055-.466-.086-.917-.08-1.446-.11-.138-.536-.08-.758-.04l.002.055c-.805 3.11-2.267 2.025-2.2 6.553-.853-1.98-1.287-3.71-1.014-5.286.085-.457.175-.897.332-1.405-.063-.148-.452-.24-.708-.28l-.02.084c-1.65 2.757-2.746 1.302-3.957 5.67-.264-2.147-.193-3.923.51-5.355.213-.42.427-.82.716-1.258-.02-.197-.5-.414-.66-.482l-.032.06c-2.364 2.17-3.002.47-5.41 4.3.36-2.13.937-3.812 2.024-4.983.32-.342.64-.66 1.043-1.002.04-.212-.41-.515-.494-.57l-.008.01c-2.883 1.414-3.018-.398-6.407 2.603.948-1.94 1.972-3.396 3.346-4.214.402-.237.8-.452 1.283-.67.083-.155-.128-.536-.238-.722l-.086.044c-3.163.548-2.78-1.228-6.88.694 1.457-1.596 2.85-2.702 4.396-3.1.455-.113.898-.207 1.424-.276.114-.128-.017-.534-.1-.75l-.022.004c-3.193-.365-2.32-1.963-6.797-1.27 1.847-1.123 3.497-1.79 5.093-1.74.465.022.916.05 1.44.136.165-.098.154-.563.143-.744l-.046-.008c-2.96-1.24-1.678-2.535-6.166-3.126 2.088-.56 3.857-.735 5.377-.235.44.153.864.31 1.345.536.16-.044.303-.445.366-.668l-.063-.025c-2.492-2.03-.896-2.906-5.036-4.74 2.16.054 3.91.382 5.223 1.286.382.27.745.542 1.142.89.154.004.392-.316.534-.54l-.05-.04c-1.815-2.645-.04-3.042-3.498-5.963 2.062.66 3.646 1.467 4.652 2.706.29.365.562.728.84 1.177.145.047.457-.183.676-.362l-.043-.06c-1-3.053.817-2.928-1.678-6.706 1.79 1.212 3.083 2.432 3.7 3.906.177.43.338.857.48 1.365.13.092.503-.06.74-.17l-.02-.054c-.1-3.213 1.61-2.58.28-6.91 1.374 1.667 2.275 3.203 2.45 4.788.048.47.08.92.074 1.447.106.13.522.1.76.07l-.003-.09c.81-3.108 2.27-2.024 2.214-6.553.852 1.987 1.28 3.717 1.004 5.29-.087.456-.18.902-.335 1.408.066.164.512.207.724.216l.006-.014c1.65-2.757 2.745-1.302 3.966-5.666.26 2.147.182 3.925-.525 5.356-.21.417-.425.816-.716 1.255.02.174.393.364.604.46l.04-.062c2.356-2.177 3-.474 5.4-4.314-.36 2.13-.93 3.815-2.014 4.987-.317.344-.64.668-1.04 1.005-.032.168.28.45.468.596l.035-.03c2.875-1.425 3.016.39 6.396-2.62-.944 1.945-1.964 3.4-3.334 4.22-.402.238-.8.458-1.285.67-.07.147.16.483.313.693l.015-.01c3.163-.558 2.785 1.22 6.874-.714-1.45 1.6-2.837 2.707-4.385 3.11-.453.117-.895.21-1.42.285-.104.112 0 .497.08.748l.04-.006c3.19.355 2.327 1.955 6.8 1.254-1.844 1.128-3.492 1.8-5.086 1.748-.465-.014-.922-.046-1.44-.128-.146.086-.187.504-.196.74l.103.01c2.96 1.238 1.678 2.535 6.17 3.115-2.086.566-3.853.746-5.374.248-.443-.148-.87-.304-1.35-.53-.148.035-.266.414-.33.68zm-.638-4.772c0-6.22-5.043-11.263-11.266-11.263-6.227 0-11.267 5.042-11.267 11.264s5.04 11.27 11.266 11.27c6.223 0 11.266-5.048 11.266-11.27zm-1.37 0c0 5.454-4.423 9.876-9.874 9.876-5.454 0-9.874-4.422-9.874-9.877 0-5.45 4.42-9.87 9.874-9.87 5.45-.002 9.875 4.42 9.875 9.87zM17.39 62.058c0 .578-.208 1.042-.612 1.397-.406.354-.906.53-1.49.53h-3.566v-1.32h3.567c.492 0 .74-.203.74-.607v-.85c0-.434-.25-.65-.74-.65h-4.83v5.906H9.103v-7.192h6.176c.586 0 1.084.183 1.494.542.408.365.615.827.615 1.396v.848zM27.48 64.518c0 .572-.207 1.04-.62 1.4-.414.364-.91.546-1.486.546H21.36c-.58 0-1.076-.182-1.49-.545-.412-.363-.618-.83-.618-1.402v-3.32c0-.536.215-.993.642-1.372.43-.38.92-.572 1.466-.572h4.014c.546 0 1.032.19 1.463.572.428.38.645.836.645 1.372v3.32zm-1.355.014v-3.335c0-.172-.08-.327-.237-.457-.156-.136-.328-.203-.51-.203H21.35c-.18 0-.35.067-.506.203-.156.13-.236.285-.236.457v3.335c0 .432.25.646.743.646h4.028c.498 0 .747-.214.747-.646zM35.668 66.464h-4c-.58 0-1.073-.182-1.484-.545-.41-.363-.617-.83-.617-1.402v-5.265h1.357v5.28c0 .43.247.645.744.645h4v1.286zM45.513 60.537H39.5c-.183 0-.352.067-.51.2-.154.133-.234.288-.234.46v.36c0 .43.25.647.743.647l4.022.01c.578 0 1.07.174 1.475.52.42.374.635.844.635 1.414v.373c0 .546-.218 1.005-.646 1.38-.43.375-.92.564-1.46.564h-6.012v-1.286h6.014c.182 0 .353-.063.51-.19.156-.127.234-.283.234-.464v-.377c0-.43-.248-.646-.744-.646l-4.02-.01c-.58 0-1.076-.18-1.488-.538-.415-.362-.62-.823-.62-1.396v-.36c0-.535.214-.993.645-1.373.428-.38.913-.57 1.46-.57h6.008v1.284zM55.836 66.48h-1.45l-.664-2.515h-3.294l.312-1.32h2.634c-.057-.22-.238-1-.357-1.437-.122-.435-.37-.65-.74-.65h-1.662c-.377 0-.626.216-.744.654l-1.35 5.27h-1.453l1.354-5.266c.34-1.298 1.043-1.945 2.11-1.945h1.834c1.076 0 1.777.648 2.11 1.946l1.362 5.265zM63.35 60.537h-3.013v5.927H58.98v-5.927h-2.965v-1.284h7.334v1.284"/>
</svg>