<svg version="1.1" id="Layer_1" xmlns="http://www.w3.org/2000/svg" xmlns:xlink="http://www.w3.org/1999/xlink" x="0px" y="0px"
	 width="100%" viewBox="0 0 5000 5000" enable-background="new 0 0 5000 5000" xml:space="preserve">
<path fill="#000000" opacity="1.000000" stroke="none" 
	d="
M3300.000000,5004.000000 
	C2200.000000,5004.000000 1102.000000,5004.000000 4.000000,5004.000000 
	C4.000000,3337.333252 4.000000,1670.666626 4.000000,4.000001 
	C1670.666626,4.000000 3337.333252,4.000000 5004.000000,4.000000 
	C5004.000000,1670.666626 5004.000000,3337.333252 5004.000000,5004.000000 
	C4436.666504,5004.000000 3869.333252,5004.000000 3300.000000,5004.000000 
M2041.855591,2227.881592 
	C2019.194946,2196.380859 2000.384888,2162.617432 1984.984131,2127.108154 
	C1942.091797,2028.211914 1927.837891,1925.252930 1943.175049,1818.414551 
	C1945.349609,1803.266968 1948.789673,1788.303223 1951.073120,1773.168335 
	C1952.972900,1760.576294 1945.508179,1749.497314 1934.502075,1747.282227 
	C1921.653442,1744.696167 1911.922607,1749.790771 1907.353638,1761.828247 
	C1905.945923,1765.536987 1905.133911,1769.500732 1904.329224,1773.405273 
	C1888.269165,1851.320801 1886.775513,1929.629028 1901.117188,2007.776489 
	C1925.712402,2141.794922 1986.989136,2256.987793 2087.382080,2349.066162 
	C2232.565186,2482.225342 2404.177734,2535.347900 2599.699707,2508.789307 
	C2691.695801,2496.292969 2775.687012,2462.320068 2852.821289,2410.990723 
	C2856.700195,2408.409424 2860.639404,2405.829346 2864.124756,2402.764160 
	C2873.414062,2394.594971 2875.072021,2382.151611 2868.523193,2372.146973 
	C2862.881592,2363.528320 2850.620361,2360.161621 2839.993408,2364.942139 
	C2835.187012,2367.104736 2830.872803,2370.411133 2826.451660,2373.372559 
	C2748.584473,2425.525391 2662.945557,2456.391113 2569.917236,2466.910889 
	C2566.281982,2467.321777 2562.470215,2466.170898 2559.045410,2465.782227 
	C2556.336426,2445.522705 2556.713135,2312.965088 2559.617676,2295.839600 
	C2583.544434,2290.635254 2608.592529,2287.317627 2632.086914,2277.611572 
	C2656.321289,2267.599365 2678.866455,2254.993652 2699.170166,2238.510498 
	C2718.925049,2222.473145 2736.289551,2204.106934 2750.737793,2183.079834 
	C2765.568359,2161.496338 2776.568848,2138.091309 2784.410889,2113.123535 
	C2792.040039,2088.834229 2795.185059,2063.816650 2796.403809,2038.221069 
	C2809.031982,2033.254517 2819.906494,2026.993408 2819.916748,2011.652710 
	C2819.927002,1996.414062 2809.369141,1989.844727 2796.399658,1984.986206 
	C2796.113281,1977.346558 2796.213135,1970.070679 2795.492676,1962.876709 
	C2794.042236,1948.393433 2783.370605,1938.191162 2769.329590,1937.295654 
	C2755.572510,1936.418335 2743.503174,1945.711060 2740.590332,1959.921143 
	C2739.664062,1964.439697 2740.045654,1969.211914 2739.570312,1973.841675 
	C2739.182373,1977.621826 2738.409912,1981.362671 2737.885010,1984.640503 
	C2730.906006,1987.367798 2725.202637,1987.444702 2719.692871,1983.901367 
	C2716.345947,1981.748901 2713.148926,1979.176147 2709.514404,1977.708252 
	C2705.452148,1976.067627 2700.971680,1975.463501 2695.688965,1974.166626 
	C2695.688965,1960.124390 2695.830322,1946.850220 2695.597656,1933.582397 
	C2695.532715,1929.873779 2694.363770,1926.184570 2693.577637,1921.797363 
	C2685.840088,1921.561890 2679.261230,1921.206787 2672.681152,1921.188965 
	C2647.352295,1921.120361 2622.023682,1921.186157 2596.694824,1921.135010 
	C2592.038330,1921.125610 2587.321045,1921.217529 2582.739258,1920.538696 
	C2574.071777,1919.254272 2568.360596,1913.123413 2567.224609,1904.668701 
	C2565.930908,1895.038574 2569.987793,1886.923462 2579.052734,1884.066162 
	C2585.261719,1882.109131 2592.081787,1881.441162 2598.642334,1881.364258 
	C2623.967773,1881.067505 2649.298828,1881.327148 2674.626953,1881.177612 
	C2681.193115,1881.138916 2687.989746,1882.468872 2694.829346,1878.778564 
	C2696.104980,1863.270264 2696.548828,1847.502930 2694.399414,1830.393677 
	C2688.043701,1829.957153 2682.230957,1829.240356 2676.414795,1829.213135 
	C2649.753418,1829.088135 2623.091309,1829.177856 2596.429443,1829.133911 
	C2591.771484,1829.126221 2587.050293,1829.279175 2582.469727,1828.602295 
	C2573.370605,1827.257446 2567.272949,1819.826660 2567.049072,1810.562866 
	C2566.800537,1800.274292 2573.106445,1792.520264 2583.269287,1791.237549 
	C2587.871338,1790.656738 2592.582520,1790.856689 2597.244385,1790.851196 
	C2624.572754,1790.818604 2651.901611,1790.915039 2679.229004,1790.750244 
	C2684.339844,1790.719482 2689.444824,1789.701416 2694.890869,1789.101685 
	C2695.771484,1771.942993 2696.819580,1756.209473 2694.247070,1739.472534 
	C2686.929443,1739.218506 2680.348145,1738.813354 2673.765869,1738.792480 
	C2648.437256,1738.712280 2623.107178,1738.887451 2597.780518,1738.654175 
	C2591.864990,1738.599609 2585.713867,1738.125732 2580.106689,1736.416382 
	C2570.740723,1733.561157 2566.308350,1725.891968 2567.186768,1716.417603 
	C2568.070068,1706.888428 2573.916992,1700.509644 2583.663574,1699.299683 
	C2588.925537,1698.646362 2594.307373,1698.864014 2599.635498,1698.855957 
	C2626.963867,1698.814453 2654.292725,1698.924194 2681.619629,1698.722534 
	C2685.996582,1698.690308 2690.363770,1697.350098 2695.717285,1696.449463 
	C2695.717285,1687.394287 2695.913086,1679.435791 2695.661865,1671.491333 
	C2695.417236,1663.746338 2696.959717,1655.762817 2693.720947,1647.456055 
	C2686.580322,1647.211914 2679.988281,1646.812256 2673.395264,1646.792114 
	C2648.066650,1646.714722 2622.737793,1646.789795 2597.408936,1646.730103 
	C2592.754639,1646.719116 2588.001221,1646.880859 2583.467773,1646.032104 
	C2572.988037,1644.070190 2567.022949,1636.642578 2567.029053,1626.474854 
	C2567.034668,1616.475586 2573.354980,1609.001099 2583.905273,1607.431152 
	C2589.138672,1606.652466 2594.539307,1606.872681 2599.864746,1606.861328 
	C2626.526611,1606.804443 2653.188965,1606.917725 2679.849121,1606.694824 
	C2683.414062,1606.665161 2686.965820,1605.064575 2690.475586,1604.203125 
	C2677.025391,1541.078735 2624.676025,1492.393677 2562.752441,1483.500488 
	C2538.823242,1480.063721 2514.862305,1481.374146 2490.912354,1481.325439 
	C2478.305420,1481.299683 2465.455811,1481.607056 2453.126465,1483.936523 
	C2389.812988,1495.899414 2348.480957,1533.292480 2328.339844,1594.267212 
	C2327.227783,1597.633057 2327.892578,1601.585938 2327.682617,1606.354004 
	C2334.273193,1606.541138 2339.511475,1606.806396 2344.750244,1606.818115 
	C2366.746338,1606.867065 2388.742188,1606.806641 2410.738281,1606.865356 
	C2416.062744,1606.879517 2421.452637,1606.726685 2426.695557,1607.472656 
	C2436.450439,1608.860596 2443.724609,1617.288696 2443.876953,1626.574219 
	C2444.013916,1634.927979 2437.813965,1643.155151 2428.711670,1645.341431 
	C2423.616455,1646.565186 2418.172852,1646.667969 2412.883057,1646.697510 
	C2388.888184,1646.831543 2364.891602,1646.695068 2340.896484,1646.808350 
	C2335.031250,1646.836060 2329.168457,1647.439575 2322.443604,1647.828003 
	C2320.982422,1665.083130 2319.317383,1681.243652 2323.556885,1698.108154 
	C2330.393555,1698.375610 2336.305908,1698.786743 2342.218994,1698.806641 
	C2365.547852,1698.885376 2388.877197,1698.821411 2412.206299,1698.859253 
	C2416.867432,1698.866821 2421.576660,1698.705322 2426.178711,1699.290771 
	C2436.321533,1700.581055 2443.579834,1708.438477 2443.837646,1717.837646 
	C2444.069336,1726.277588 2438.129150,1734.488281 2429.054443,1736.734863 
	C2423.319580,1738.154541 2417.231689,1738.623657 2411.295166,1738.671997 
	C2385.968018,1738.878662 2360.637695,1738.675293 2335.310303,1738.866943 
	C2330.927002,1738.900146 2326.552734,1740.120239 2321.772705,1740.853638 
	C2321.509033,1757.720093 2319.313721,1773.474487 2323.383057,1789.930176 
	C2330.078369,1790.257324 2335.956787,1790.769043 2341.837158,1790.792358 
	C2365.832275,1790.887573 2389.828125,1790.810669 2413.823730,1790.854370 
	C2418.483887,1790.862915 2423.201904,1790.712769 2427.790771,1791.361206 
	C2436.805176,1792.635010 2443.383789,1800.156616 2443.901611,1809.082397 
	C2444.430664,1818.210205 2437.027588,1827.407227 2427.530029,1828.656250 
	C2422.276123,1829.347412 2416.888672,1829.129150 2411.561035,1829.138428 
	C2386.232422,1829.182617 2360.902832,1829.061523 2335.575684,1829.266235 
	C2331.184570,1829.301758 2326.803955,1830.621704 2321.148438,1831.559082 
	C2321.148438,1840.505371 2320.966553,1848.434814 2321.200195,1856.352051 
	C2321.429199,1864.109985 2319.968506,1872.107422 2323.187012,1880.446777 
	C2330.398438,1880.727295 2336.962158,1881.177246 2343.527344,1881.203003 
	C2366.855957,1881.294556 2390.187012,1881.085938 2413.513184,1881.351685 
	C2419.417480,1881.418945 2425.565674,1882.014771 2431.142090,1883.802124 
	C2439.788086,1886.573364 2444.907715,1895.868408 2443.638184,1904.250366 
	C2442.427002,1912.248291 2436.239014,1919.088135 2428.076172,1920.386475 
	C2422.854492,1921.216919 2417.456787,1921.113403 2412.137451,1921.128174 
	C2386.808838,1921.198486 2361.479492,1921.078003 2336.151855,1921.252930 
	C2331.722656,1921.283447 2327.300781,1922.401855 2322.720947,1923.039429 
	C2318.745117,1940.955933 2323.913086,1958.532715 2319.811279,1973.058472 
	C2311.456787,1976.978516 2304.673340,1979.529053 2298.565674,1983.202881 
	C2292.285645,1986.980713 2286.380371,1987.608765 2278.930420,1984.484253 
	C2278.399414,1981.330566 2277.688965,1978.194458 2277.379883,1975.019409 
	C2276.928955,1970.385010 2277.192383,1965.649292 2276.406982,1961.084961 
	C2273.108643,1941.919067 2254.684814,1932.030151 2237.191895,1939.982422 
	C2227.118408,1944.562256 2222.294434,1952.984009 2221.338379,1963.658203 
	C2220.696289,1970.827026 2220.654053,1978.049561 2220.367676,1984.691162 
	C2215.497070,1987.109985 2211.687988,1988.450195 2208.499512,1990.678345 
	C2192.702148,2001.717529 2192.666748,2021.270264 2208.444092,2032.407593 
	C2212.107422,2034.993652 2216.394287,2036.696777 2220.105225,2038.653687 
	C2221.705566,2053.356445 2222.430420,2067.367676 2224.848877,2081.080078 
	C2245.325684,2197.186523 2338.316650,2278.319092 2441.708496,2292.521729 
	C2447.431885,2293.307861 2453.025635,2295.036865 2458.296143,2296.239746 
	C2458.876465,2299.667236 2459.492432,2301.614502 2459.494629,2303.562012 
	C2459.555176,2354.885498 2459.585449,2406.209229 2459.478027,2457.532471 
	C2459.471680,2460.600098 2458.272705,2463.664795 2457.660645,2466.579102 
	C2316.325928,2458.440430 2149.616455,2379.602539 2041.855591,2227.881592 
M1067.684448,3460.875488 
	C1063.111694,3488.468506 1058.509766,3516.056396 1053.972168,3543.655273 
	C1045.114380,3597.531250 1036.324829,3651.418701 1027.443359,3705.290771 
	C1022.135193,3737.488525 1016.765564,3769.676514 1011.229858,3801.835693 
	C1010.728760,3804.746826 1008.808044,3807.413574 1006.119690,3813.338623 
	C1003.905457,3802.909668 1002.213867,3796.011963 1000.992798,3789.031738 
	C980.914124,3674.253662 960.838623,3559.474609 940.878723,3444.675781 
	C922.971313,3341.682373 905.231628,3238.659424 887.288635,3135.672119 
	C886.531128,3131.323730 884.466248,3127.203613 883.168945,3123.437500 
	C837.831909,3121.257324 776.606873,3122.075684 759.312805,3125.225098 
	C759.133179,3132.781738 758.783691,3140.645996 758.782898,3148.510010 
	C758.754578,3417.767334 758.759216,3687.024414 758.760681,3956.281738 
	C758.760681,3960.947021 758.531799,3965.630371 758.867798,3970.271973 
	C759.144348,3974.093018 760.101624,3977.864990 760.713440,3981.405518 
	C787.254700,3984.242188 833.533447,3983.458984 847.422485,3979.895020 
	C847.728943,3975.526855 848.365173,3970.940186 848.326355,3966.359375 
	C847.113403,3823.124023 851.194397,3679.856201 845.374634,3536.644775 
	C843.806152,3498.048828 843.712463,3459.394043 842.826599,3420.769043 
	C842.460571,3404.810059 841.652710,3388.860352 841.366638,3372.900879 
	C841.302307,3369.309814 842.578064,3365.695068 843.236938,3362.091064 
	C855.433960,3402.502930 861.966125,3443.629639 869.646301,3484.510742 
	C877.392273,3525.741211 884.675415,3567.058350 892.264648,3608.318604 
	C899.852478,3649.571289 907.658325,3690.783936 915.202637,3732.044434 
	C922.747742,3773.308838 929.736511,3814.677490 937.616150,3855.876709 
	C945.463440,3896.907227 951.552063,3938.299561 960.819275,3978.581299 
	C980.648987,3981.123047 1036.287964,3980.918701 1052.590576,3978.257324 
	C1053.653931,3973.555176 1055.019043,3968.485352 1055.931763,3963.335205 
	C1066.273071,3904.985107 1076.554443,3846.624512 1086.832642,3788.263428 
	C1097.804810,3725.962891 1108.818726,3663.669434 1119.701294,3601.353516 
	C1133.332764,3523.296387 1146.829834,3445.215820 1160.459106,3367.158447 
	C1161.370728,3361.936523 1162.115723,3356.476807 1167.202393,3350.439941 
	C1167.202393,3359.395752 1167.363770,3366.012695 1167.172363,3372.619385 
	C1166.575073,3393.240967 1165.735840,3413.855957 1165.190063,3434.478760 
	C1164.326660,3467.104736 1163.539307,3499.733398 1162.875977,3532.364014 
	C1161.941895,3578.302246 1160.718994,3624.240479 1160.403564,3670.184082 
	C1159.978027,3732.163574 1160.297363,3794.148438 1160.298096,3856.130859 
	C1160.298584,3892.787109 1160.238525,3929.443848 1160.375244,3966.099609 
	C1160.394043,3971.146973 1161.394897,3976.190918 1161.899292,3980.850342 
	C1183.120361,3983.889404 1234.027100,3983.461670 1249.321045,3980.141357 
	C1251.931641,3972.865234 1250.797241,3964.838379 1250.799072,3957.016113 
	C1250.862061,3687.092529 1250.851685,3417.168701 1250.850464,3147.245117 
	C1250.850464,3143.246338 1250.994629,3139.238770 1250.781494,3135.250977 
	C1250.577393,3131.433105 1251.641724,3127.172363 1247.812134,3124.346680 
	C1227.253540,3121.818848 1140.438110,3122.216797 1123.091187,3125.181152 
	C1104.720703,3235.547119 1086.585571,3346.505127 1067.684448,3460.875488 
M3784.364746,3894.000000 
	C3784.264893,3638.770020 3784.167480,3383.539795 3784.002930,3128.309814 
	C3784.002197,3127.099121 3783.053711,3125.888672 3782.537842,3124.682129 
	C3765.117920,3121.895020 3710.897217,3122.057373 3694.282715,3125.142334 
	C3693.922852,3129.992676 3693.219482,3135.154785 3693.207275,3140.318604 
	C3693.113525,3179.636475 3692.978027,3218.955566 3693.192627,3258.272217 
	C3693.595947,3332.208496 3693.835693,3406.149658 3694.929932,3480.076904 
	C3695.462158,3516.013184 3697.756104,3551.923340 3699.275391,3587.844482 
	C3700.400146,3614.447021 3701.634033,3641.045410 3702.632324,3667.652344 
	C3702.790527,3671.866699 3703.814209,3676.708496 3696.952881,3681.663574 
	C3679.753174,3634.542969 3664.751709,3588.052246 3648.790771,3541.919189 
	C3632.904785,3496.003906 3617.446289,3449.940918 3601.801270,3403.942139 
	C3585.937744,3357.301270 3570.097656,3310.652344 3554.206543,3264.020752 
	C3538.339355,3217.458740 3522.421387,3170.913818 3506.734131,3124.971436 
	C3489.372803,3122.012207 3446.496582,3122.018799 3429.703369,3124.849854 
	C3427.168457,3132.382568 3428.354492,3140.393555 3428.352539,3148.235352 
	C3428.283936,3417.463135 3428.295166,3686.690674 3428.296387,3955.918457 
	C3428.296631,3960.583252 3428.116211,3965.259033 3428.380127,3969.909424 
	C3428.593262,3973.669189 3429.350342,3977.398193 3429.759766,3980.367920 
	C3432.452881,3981.427002 3433.660156,3982.311035 3434.872314,3982.318359 
	C3461.517090,3982.476807 3488.162354,3982.610107 3514.806641,3982.494141 
	C3517.173340,3982.483887 3519.532471,3980.730225 3522.854492,3979.402832 
	C3522.854492,3971.796143 3522.854492,3964.511230 3522.854492,3957.226318 
	C3522.854492,3845.270264 3522.991699,3733.313965 3522.759521,3621.358398 
	C3522.700195,3592.744141 3521.492920,3564.131836 3520.777100,3535.519775 
	C3519.794189,3496.253906 3518.760010,3456.989746 3517.870361,3417.721680 
	C3517.848389,3416.744629 3519.263428,3415.735107 3522.133545,3411.902832 
	C3553.947754,3508.162109 3584.563965,3602.702637 3615.556396,3697.120117 
	C3646.679199,3791.934082 3677.196533,3886.952148 3709.276855,3982.626709 
	C3722.039551,3982.695068 3733.967773,3983.142334 3745.864990,3982.717041 
	C3758.267822,3982.273926 3770.966797,3984.982422 3784.364746,3979.985107 
	C3784.364746,3952.541748 3784.364746,3925.270508 3784.364746,3894.000000 
M4258.820312,3402.001221 
	C4258.891113,3368.698730 4259.340820,3335.388672 4256.094238,3302.173340 
	C4252.772949,3268.194580 4245.946777,3235.130615 4232.258789,3203.608887 
	C4216.113281,3166.428955 4189.011719,3142.093994 4150.041504,3130.661133 
	C4130.651367,3124.972412 4110.903809,3122.847656 4090.850342,3122.814941 
	C4041.535889,3122.734131 3992.221191,3122.754150 3942.906738,3122.823730 
	C3937.003906,3122.832031 3931.102295,3123.400635 3923.960205,3123.774414 
	C3923.842285,3132.698242 3923.645996,3140.624756 3923.645752,3148.551270 
	C3923.629883,3417.782227 3923.632812,3687.013184 3923.634033,3956.244141 
	C3923.634033,3960.908936 3923.440918,3965.586670 3923.722656,3970.234863 
	C3923.949219,3973.972168 3924.759033,3977.674316 3925.342773,3981.614746 
	C3929.271729,3982.101562 3931.849121,3982.696045 3934.427490,3982.699951 
	C3985.074707,3982.775146 4035.731934,3983.364258 4086.363770,3982.488525 
	C4104.208496,3982.179688 4122.298828,3979.623779 4139.736328,3975.693604 
	C4176.432129,3967.422852 4205.468750,3947.579590 4224.669434,3914.445557 
	C4233.083496,3899.925537 4239.194336,3884.508301 4243.687988,3868.425781 
	C4254.337891,3830.311279 4258.535156,3791.239502 4258.677734,3751.868896 
	C4259.095703,3636.580811 4258.823730,3521.290527 4258.820312,3402.001221 
M2488.322754,3330.334229 
	C2488.316162,3466.229492 2488.093018,3602.125732 2488.488525,3738.019775 
	C2488.565918,3764.599854 2490.057373,3791.270264 2492.674316,3817.723145 
	C2495.494141,3846.224121 2501.470459,3874.260498 2511.880615,3901.157715 
	C2528.878662,3945.075928 2558.731445,3974.714600 2605.375977,3985.981201 
	C2640.991455,3994.584229 2676.776855,3994.580566 2712.229004,3986.286621 
	C2752.932861,3976.763916 2782.824219,3952.933350 2799.958252,3914.310059 
	C2804.535156,3903.992920 2808.704346,3893.391113 2811.872559,3882.572266 
	C2823.369629,3843.317627 2828.190674,3803.001465 2828.263672,3762.232178 
	C2828.521729,3618.343750 2828.540039,3474.454102 2828.251709,3330.565674 
	C2828.171387,3290.479492 2823.436035,3250.822510 2811.802002,3212.286621 
	C2796.746826,3162.419678 2764.864502,3129.329346 2713.520020,3117.264893 
	C2675.944580,3108.436035 2638.153076,3109.144043 2600.860352,3119.566895 
	C2563.652832,3129.966064 2535.604004,3152.135254 2518.455322,3186.965088 
	C2512.605957,3198.845215 2507.952148,3211.431885 2503.926270,3224.069580 
	C2493.333252,3257.323486 2490.880371,3291.910156 2488.322754,3330.334229 
M3084.771973,3989.561035 
	C3114.686523,3994.090088 3144.574463,3993.926270 3174.257568,3988.037354 
	C3220.816406,3978.800293 3254.337158,3953.154053 3271.569092,3908.230957 
	C3276.559326,3895.221924 3280.515381,3881.738770 3283.920898,3868.214844 
	C3293.766357,3829.114014 3294.483154,3788.955566 3294.601562,3749.086426 
	C3295.198730,3547.782715 3294.876953,3346.476562 3294.877686,3145.171143 
	C3294.877686,3138.584229 3294.877686,3131.997314 3294.877686,3124.938232 
	C3277.130615,3120.846436 3260.473633,3122.832764 3244.029541,3122.978516 
	C3227.116943,3123.127930 3209.893555,3120.252441 3192.287354,3125.253174 
	C3192.287354,3134.153076 3192.287354,3142.115234 3192.287354,3150.077637 
	C3192.287354,3349.383301 3192.311035,3548.688721 3192.257080,3747.994385 
	C3192.250244,3772.649902 3191.959473,3797.307373 3191.553955,3821.959961 
	C3191.289551,3838.037598 3188.882568,3853.823730 3183.190186,3868.949463 
	C3177.795166,3883.285400 3168.608154,3894.392334 3154.214600,3900.307617 
	C3134.211914,3908.528076 3113.979004,3908.389160 3094.074951,3900.049805 
	C3089.296387,3898.047607 3084.458008,3894.901367 3081.105225,3891.021484 
	C3070.530762,3878.785889 3062.331543,3864.965820 3060.145752,3848.644775 
	C3058.292480,3834.805420 3056.986572,3820.829346 3056.543213,3806.878662 
	C3055.802490,3783.571045 3055.749756,3760.235352 3055.743408,3736.911621 
	C3055.689697,3540.938965 3055.712646,3344.966064 3055.712646,3148.993408 
	C3055.712646,3141.054199 3055.712646,3133.115234 3055.712646,3125.484375 
	C3039.320801,3121.942871 2972.498779,3121.766357 2954.596436,3125.069580 
	C2952.049072,3132.466309 2953.216309,3140.473389 2953.213623,3148.291260 
	C2953.142334,3344.263916 2953.037598,3540.237061 2953.295654,3736.209229 
	C2953.331543,3763.485107 2954.482910,3790.812988 2956.465332,3818.018311 
	C2958.648193,3847.977783 2963.998291,3877.457031 2975.481445,3905.516602 
	C2986.342529,3932.056152 3001.867676,3954.828125 3027.007324,3969.879395 
	C3043.796631,3979.931396 3061.983643,3986.111328 3084.771973,3989.561035 
M1679.664551,3301.944092 
	C1680.281006,3300.043701 1680.820435,3298.114014 1681.524780,3296.246826 
	C1701.501587,3243.283691 1721.537476,3190.343018 1741.401855,3137.338135 
	C1742.894653,3133.354980 1743.185181,3128.920898 1744.052002,3124.609863 
	C1726.043091,3122.242188 1662.180420,3122.180664 1644.611328,3124.392822 
	C1643.243042,3127.056885 1641.421021,3129.873047 1640.275391,3132.941650 
	C1606.972412,3222.143311 1573.747681,3311.374023 1540.485840,3400.590820 
	C1526.994873,3436.777100 1513.466797,3472.949707 1499.884766,3509.101807 
	C1498.808838,3511.965576 1498.436279,3515.843262 1492.353394,3515.435303 
	C1492.353394,3493.663574 1492.353394,3471.877686 1492.353394,3450.091797 
	C1492.353394,3428.764893 1492.353394,3407.437744 1492.353394,3386.110840 
	C1492.353394,3364.117432 1492.353394,3342.123779 1492.353394,3320.130371 
	C1492.353394,3298.136963 1492.353394,3276.143555 1492.353394,3254.150146 
	C1492.353394,3232.823242 1492.586670,3211.492920 1492.288452,3190.170166 
	C1491.983765,3168.383545 1493.624023,3146.516357 1491.159424,3124.798096 
	C1488.258179,3124.008057 1486.408936,3123.071533 1484.556396,3123.064697 
	C1455.900635,3122.961426 1427.244141,3122.918701 1398.588989,3123.080811 
	C1396.213745,3123.094238 1393.847412,3124.690674 1390.776367,3125.806152 
	C1390.776367,3134.282471 1390.776245,3142.250000 1390.776245,3150.217285 
	C1390.776245,3418.803955 1390.776245,3687.390381 1390.777832,3955.977051 
	C1390.777832,3960.642334 1390.569458,3965.322754 1390.882080,3969.967773 
	C1391.135498,3973.732910 1392.027222,3977.455078 1392.571289,3980.799805 
	C1413.407227,3983.811768 1476.311646,3983.473877 1491.344360,3980.377197 
	C1494.595825,3972.941650 1493.137207,3964.864502 1493.144165,3957.029541 
	C1493.246582,3842.396973 1493.210449,3727.764648 1493.225220,3613.132080 
	C1493.226074,3606.470459 1493.207764,3599.798828 1493.588745,3593.154297 
	C1493.682129,3591.525635 1495.316650,3589.985107 1497.028809,3587.062012 
	C1499.645142,3592.177979 1502.039795,3596.019775 1503.660767,3600.164062 
	C1515.788818,3631.170654 1527.768311,3662.235107 1539.786255,3693.284668 
	C1575.350220,3785.167725 1610.896484,3877.057617 1646.511597,3968.920898 
	C1648.383423,3973.749023 1648.991943,3979.486816 1654.506226,3982.034424 
	C1687.197998,3982.034424 1719.811523,3982.038086 1752.425049,3982.006104 
	C1753.041748,3982.005371 1753.781006,3981.719727 1754.239868,3981.314209 
	C1754.707031,3980.900879 1754.898438,3980.175293 1755.933472,3978.222656 
	C1754.714844,3974.349854 1753.456909,3969.293457 1751.562988,3964.487549 
	C1698.583252,3830.050293 1645.630493,3695.602539 1592.320435,3561.296143 
	C1588.348999,3551.290527 1588.187500,3542.781494 1592.067993,3532.677246 
	C1621.189819,3456.846924 1649.765991,3380.807129 1679.664551,3301.944092 
M2058.770020,3694.237061 
	C2058.769775,3700.237061 2058.770996,3706.237305 2058.769531,3712.237305 
	C2058.759521,3751.549072 2058.135986,3790.877441 2063.659424,3829.969971 
	C2067.586670,3857.763184 2073.012695,3885.163574 2084.379883,3911.016602 
	C2103.280029,3954.001953 2136.529053,3979.046143 2182.113770,3988.219238 
	C2213.245361,3994.484131 2244.442871,3993.466309 2275.421875,3987.259033 
	C2319.141602,3978.499023 2350.540283,3954.212646 2366.678467,3912.030273 
	C2371.900146,3898.382080 2376.236084,3884.323975 2379.939941,3870.181641 
	C2386.381348,3845.586182 2387.993408,3820.286133 2389.788086,3795.006104 
	C2392.449463,3757.519531 2389.979492,3720.551758 2381.299072,3683.931885 
	C2366.780518,3622.681396 2335.575928,3570.586914 2293.762695,3524.470703 
	C2270.499512,3498.813477 2246.182129,3474.114502 2222.462891,3448.867920 
	C2204.229248,3429.459961 2185.287598,3410.687744 2170.788818,3388.033203 
	C2163.094971,3376.011475 2158.365234,3363.167480 2155.610107,3349.271484 
	C2151.022949,3326.135742 2151.499756,3302.807373 2153.092285,3279.559814 
	C2154.183594,3263.632080 2157.502441,3247.892578 2164.354736,3233.187744 
	C2174.291016,3211.864014 2190.844238,3200.385986 2214.505859,3199.672119 
	C2219.821777,3199.511963 2225.195312,3199.509766 2230.470215,3200.090820 
	C2243.905762,3201.571045 2254.838623,3207.912109 2261.055176,3219.922607 
	C2265.904297,3229.290771 2270.595459,3239.321533 2272.372559,3249.575195 
	C2275.885986,3269.845459 2278.377441,3290.422852 2279.374023,3310.966309 
	C2280.664795,3337.572266 2280.093262,3364.268799 2280.299072,3390.926514 
	C2280.349854,3397.532471 2280.306641,3404.138916 2280.306641,3411.141602 
	C2297.283447,3414.969238 2313.260010,3413.070557 2329.065918,3413.051758 
	C2344.764160,3413.032959 2360.671387,3415.040771 2377.073242,3411.185547 
	C2377.073242,3380.361572 2377.711914,3350.404053 2376.861328,3320.489014 
	C2376.237549,3298.551514 2374.163818,3276.615234 2371.798828,3254.779785 
	C2369.791260,3236.246338 2366.341064,3217.849365 2359.918945,3200.240234 
	C2343.054443,3153.998535 2311.222168,3125.011963 2262.256836,3115.592773 
	C2235.106201,3110.369629 2207.904053,3110.050293 2180.782715,3114.567627 
	C2167.060547,3116.853271 2153.272949,3120.079346 2140.231689,3124.842529 
	C2114.159424,3134.365479 2094.300049,3151.821533 2082.412109,3177.111816 
	C2075.643555,3191.511963 2068.982666,3206.277344 2064.933838,3221.582275 
	C2052.881592,3267.139893 2050.818848,3313.622559 2056.636230,3360.301270 
	C2060.044189,3387.647217 2069.041260,3413.314453 2082.824707,3437.354004 
	C2098.826660,3465.263184 2117.808594,3490.953125 2139.896484,3514.212158 
	C2162.838867,3538.371826 2186.824219,3561.539062 2209.901367,3585.574219 
	C2221.419678,3597.571045 2232.545898,3610.054443 2242.779785,3623.153320 
	C2275.062500,3664.469727 2291.840332,3711.331543 2290.701660,3764.052490 
	C2290.155518,3789.343750 2289.594971,3814.674316 2287.630615,3839.877441 
	C2286.714355,3851.632324 2283.497803,3863.511963 2279.426025,3874.640625 
	C2274.345459,3888.527832 2263.766113,3897.963135 2248.994141,3900.971924 
	C2239.292480,3902.947998 2229.259033,3904.019287 2219.357666,3904.136963 
	C2198.660400,3904.383057 2184.091064,3894.275146 2174.880859,3875.865479 
	C2169.138184,3864.386963 2166.175537,3852.176758 2164.038086,3839.646973 
	C2159.093750,3810.664062 2157.932373,3781.372559 2157.350830,3752.087158 
	C2156.795166,3724.100098 2157.299072,3696.093018 2157.186279,3668.095215 
	C2157.162598,3662.271729 2156.476807,3656.450928 2156.115723,3650.926758 
	C2137.116455,3648.506836 2076.971191,3648.638428 2060.432861,3651.059326 
	C2057.161377,3663.867188 2059.479492,3677.201416 2058.770020,3694.237061 
M2255.877441,1181.824219 
	C2225.079102,1192.696411 2195.008545,1205.256714 2165.915527,1220.152100 
	C2013.752563,1298.057495 1899.462769,1413.760742 1824.466309,1567.060303 
	C1764.392700,1689.856079 1740.367920,1820.209961 1750.730347,1956.809692 
	C1755.593506,2020.919800 1768.111450,2083.360840 1788.758545,2144.177002 
	C1821.957153,2241.963379 1873.262329,2329.185547 1942.302490,2405.971924 
	C1945.404297,2409.421387 1948.473755,2413.060059 1952.167847,2415.784424 
	C1960.743286,2422.108887 1972.034058,2421.528564 1979.936890,2414.942627 
	C1988.460571,2407.839111 1990.758789,2395.901611 1984.771362,2386.077148 
	C1981.684814,2381.012939 1977.558594,2376.531494 1973.589844,2372.063721 
	C1922.291504,2314.317627 1881.420044,2250.000244 1850.860718,2179.028076 
	C1815.142334,2096.073975 1796.789307,2009.302490 1793.429077,1919.292603 
	C1792.061279,1882.657959 1794.600464,1846.129883 1799.174072,1809.709961 
	C1811.199219,1713.950317 1841.208374,1624.227051 1890.103027,1541.117188 
	C1966.975464,1410.451294 2074.115479,1312.698242 2211.873047,1248.999146 
	C2230.574219,1240.351929 2250.141846,1233.590576 2269.225342,1225.754272 
	C2282.078857,1220.475952 2288.563477,1210.780518 2286.948975,1200.008545 
	C2285.271240,1188.813965 2277.225586,1182.241943 2262.862061,1180.459595 
	C2261.580566,1180.300659 2260.225342,1180.733276 2255.877441,1181.824219 
M2356.882324,1031.536011 
	C2342.516113,1034.333008 2328.066162,1036.760132 2313.797119,1039.986694 
	C2214.806641,1062.370605 2122.367920,1100.579834 2036.767090,1155.191895 
	C2033.402710,1157.338379 2029.903809,1159.360474 2026.862305,1161.911255 
	C2016.685059,1170.445801 2014.645386,1181.581177 2021.045166,1192.134888 
	C2027.186768,1202.262817 2038.946777,1205.662720 2050.763916,1200.001099 
	C2057.337891,1196.851440 2063.411133,1192.635742 2069.635498,1188.780273 
	C2123.630371,1155.333862 2180.635498,1128.253052 2240.841064,1107.993652 
	C2306.131348,1086.022705 2373.084717,1072.400757 2441.805176,1066.785889 
	C2505.174561,1061.608276 2568.239258,1063.670044 2630.987793,1073.070435 
	C2705.762939,1084.272705 2777.783691,1105.378540 2846.880615,1136.239258 
	C2951.640869,1183.028198 3043.050781,1248.453003 3121.247559,1332.420776 
	C3161.354492,1375.487549 3196.198730,1422.447876 3226.426514,1472.892212 
	C3229.160400,1477.454102 3231.769531,1482.177979 3235.121582,1486.264893 
	C3243.095703,1495.986816 3253.538086,1498.093262 3263.563232,1492.552734 
	C3274.266602,1486.637451 3278.432617,1475.118774 3273.576904,1463.467041 
	C3271.542969,1458.586426 3268.576416,1454.076538 3265.862305,1449.499878 
	C3211.603516,1358.007324 3142.786865,1279.124756 3059.974854,1212.458740 
	C2970.728271,1140.612305 2871.217773,1088.254639 2761.413818,1055.346191 
	C2671.333252,1028.348999 2579.318604,1016.471619 2485.396973,1018.760681 
	C2443.406006,1019.784119 2401.667480,1023.458435 2356.882324,1031.536011 
M2222.424561,2603.274170 
	C2306.662598,2637.328613 2394.365479,2655.429932 2485.006836,2658.635986 
	C2541.746338,2660.643066 2598.088135,2655.800293 2653.934082,2644.925781 
	C2803.351807,2615.830566 2932.262939,2547.697754 3040.933838,2441.465088 
	C3116.761963,2367.338623 3174.270996,2280.618652 3213.946045,2182.293945 
	C3223.148682,2159.487061 3229.796875,2135.661621 3238.219238,2112.522461 
	C3242.702637,2100.204346 3232.874512,2085.894531 3223.584717,2083.551025 
	C3210.547363,2080.262207 3200.311523,2085.315918 3194.805664,2098.499512 
	C3193.273682,2102.167969 3192.370361,2106.097656 3191.156982,2109.900635 
	C3147.026855,2248.224121 3069.514648,2364.061768 2956.197021,2455.044678 
	C2845.165039,2544.192383 2718.141113,2594.967285 2576.456543,2609.085693 
	C2492.051270,2617.496338 2408.820557,2610.799072 2326.724609,2589.646729 
	C2272.937500,2575.788574 2221.715088,2555.355957 2172.592773,2529.499268 
	C2167.377441,2526.753906 2161.710938,2524.025879 2155.987793,2523.248779 
	C2141.232422,2521.244873 2130.155762,2532.346191 2130.983398,2547.212158 
	C2131.529541,2557.020264 2137.304688,2563.156494 2145.559082,2567.101318 
	C2170.182861,2578.869629 2194.922119,2590.396240 2222.424561,2603.274170 
M3037.428711,2603.375000 
	C3079.790527,2571.825439 3118.666992,2536.315674 3154.523682,2497.659424 
	C3205.969727,2442.197266 3249.558838,2380.993164 3285.279053,2314.210938 
	C3345.264160,2202.063232 3379.446045,2082.430420 3387.252441,1955.660522 
	C3392.392334,1872.189575 3387.385010,1789.090088 3367.971680,1707.413330 
	C3361.049316,1678.289673 3352.571045,1649.504761 3343.867188,1620.849487 
	C3339.804443,1607.473999 3327.500244,1601.563965 3315.711914,1605.175415 
	C3303.858887,1608.806641 3297.495850,1620.463013 3300.552246,1633.921509 
	C3302.021484,1640.391235 3304.464111,1646.638428 3306.438477,1652.994995 
	C3327.895752,1722.079956 3339.440918,1792.849609 3342.805664,1865.053223 
	C3344.951904,1911.110107 3342.249023,1956.884888 3336.750488,2002.621094 
	C3328.029785,2075.159668 3309.854004,2145.189209 3282.441406,2212.844971 
	C3229.838867,2342.671631 3149.355469,2452.179199 3041.763916,2541.731934 
	C2979.368896,2593.666016 2910.467773,2635.071045 2835.914307,2667.128174 
	C2830.417236,2669.492188 2824.692383,2671.561035 2819.646240,2674.690430 
	C2809.439697,2681.019775 2806.118896,2692.140381 2810.666504,2702.362061 
	C2815.384277,2712.965576 2825.305176,2718.302734 2836.759766,2715.674805 
	C2841.898926,2714.496094 2846.806152,2712.170166 2851.703125,2710.092773 
	C2917.026367,2682.385254 2978.268066,2647.543701 3037.428711,2603.375000 
M2165.687012,2660.765137 
	C2152.487549,2654.407227 2139.131348,2648.352783 2126.112549,2641.644043 
	C1995.311035,2574.240723 1889.456787,2479.011475 1809.025146,2355.819580 
	C1758.336670,2278.183350 1721.676636,2194.277588 1699.361694,2104.191406 
	C1698.082642,2099.027832 1696.806641,2093.774658 1694.702026,2088.922119 
	C1690.083008,2078.272705 1680.120361,2073.658203 1668.313477,2076.083984 
	C1658.453003,2078.109863 1651.521851,2086.870361 1651.794312,2098.031006 
	C1651.922607,2103.279297 1653.028931,2108.596191 1654.358154,2113.708984 
	C1705.979858,2312.268799 1812.774048,2474.748291 1975.352051,2599.694092 
	C2120.167480,2710.988770 2284.945068,2769.155273 2467.095215,2778.863037 
	C2510.453369,2781.173584 2553.671143,2778.867188 2596.853027,2775.322021 
	C2605.471191,2774.614502 2614.117920,2773.494873 2622.569580,2771.705566 
	C2634.429688,2769.194092 2641.762207,2758.104736 2640.137939,2746.365234 
	C2638.634521,2735.497559 2629.754639,2727.778809 2617.872314,2727.434082 
	C2613.229980,2727.299316 2608.525391,2727.642334 2603.917236,2728.269043 
	C2566.146484,2733.406982 2528.160400,2733.187988 2490.168457,2733.159424 
	C2450.074463,2733.129395 2410.314209,2729.098877 2370.848389,2722.560547 
	C2300.858643,2710.965576 2233.342529,2690.820068 2165.687012,2660.765137 
M3085.694336,1404.233887 
	C3065.331055,1380.410034 3043.516357,1357.996216 3020.399170,1336.836304 
	C2966.474854,1287.477051 2906.660400,1246.633179 2840.933594,1214.794312 
	C2738.073975,1164.967529 2629.283203,1139.827759 2514.945801,1138.952271 
	C2511.629150,1138.926880 2508.291504,1139.142090 2504.994385,1139.517456 
	C2492.950439,1140.888550 2486.060547,1151.414795 2485.595215,1161.588745 
	C2485.109863,1172.196899 2493.855225,1182.073242 2504.776611,1183.942993 
	C2508.028564,1184.499756 2511.417236,1184.317749 2514.744873,1184.366333 
	C2554.087402,1184.940674 2593.143799,1188.435059 2631.911621,1195.297974 
	C2788.756592,1223.063721 2921.844238,1295.403320 3030.267822,1411.499023 
	C3140.726318,1529.773438 3203.246094,1670.558594 3219.743408,1831.659180 
	C3220.149170,1835.621826 3220.417236,1839.695435 3221.571533,1843.465576 
	C3224.543945,1853.172974 3234.777100,1860.100098 3244.471436,1859.447510 
	C3253.050293,1858.870117 3265.205566,1850.671387 3265.071045,1838.625610 
	C3265.019287,1833.971313 3264.993652,1829.301880 3264.609375,1824.668091 
	C3259.626221,1764.611084 3246.296387,1706.302490 3226.570557,1649.499512 
	C3195.432373,1559.833740 3148.993896,1478.787842 3085.694336,1404.233887 
M2106.778076,1492.774292 
	C2171.011230,1429.591431 2245.715820,1383.500122 2331.462158,1355.624878 
	C2415.165039,1328.413940 2500.763916,1321.039551 2587.858154,1333.131226 
	C2650.996582,1341.897095 2711.010498,1361.184082 2768.006104,1389.787231 
	C2771.569092,1391.575317 2775.105225,1393.610718 2778.891602,1394.721191 
	C2788.918701,1397.662109 2799.504883,1393.164307 2804.572998,1384.266968 
	C2810.288086,1374.233643 2808.472656,1362.751343 2799.372314,1355.559937 
	C2795.250000,1352.302490 2790.355225,1349.935425 2785.610840,1347.564941 
	C2673.397949,1291.503662 2554.863525,1272.409424 2430.596436,1287.038208 
	C2353.631592,1296.098389 2281.185059,1319.569824 2213.264893,1356.627930 
	C2143.502197,1394.691406 2083.238037,1444.502808 2032.712524,1505.942383 
	C2028.491333,1511.075195 2024.063477,1516.227905 2020.924438,1522.018066 
	C2015.710083,1531.636108 2019.137207,1544.396851 2027.695801,1550.692261 
	C2036.061768,1556.845825 2047.245972,1556.698608 2055.448730,1549.750366 
	C2058.961426,1546.774902 2061.601807,1542.781860 2064.712158,1539.317261 
	C2078.051025,1524.458374 2091.417236,1509.623901 2106.778076,1492.774292 
M2949.222168,1490.694214 
	C2933.455566,1503.411255 2931.778076,1512.651245 2942.596680,1527.590942 
	C2944.156494,1529.745117 2945.958740,1531.724243 2947.658203,1533.776978 
	C2993.609863,1589.280762 3028.020996,1651.131104 3050.627686,1719.617554 
	C3081.549072,1813.292358 3087.778320,1908.527222 3069.614990,2005.416138 
	C3056.841797,2073.550781 3032.102051,2137.084473 2996.148682,2196.308105 
	C2993.394043,2200.845215 2990.409912,2205.398926 2988.629395,2210.339844 
	C2984.723877,2221.179199 2989.234619,2232.636230 2998.761719,2237.879639 
	C3008.121826,2243.031250 3020.426025,2240.699219 3027.579834,2231.903564 
	C3030.917969,2227.799561 3033.518311,2223.069580 3036.250977,2218.502441 
	C3108.885498,2097.114746 3136.886475,1966.057129 3120.807129,1825.627686 
	C3109.297852,1725.111084 3074.218018,1633.255249 3017.248291,1549.817261 
	C3005.253418,1532.249390 2991.582764,1515.808960 2978.374512,1499.093750 
	C2971.731689,1490.686890 2963.163330,1486.214966 2949.222168,1490.694214 
M1793.403809,1467.844238 
	C1821.981567,1421.131470 1854.266846,1377.195190 1891.428833,1336.908081 
	C1894.587769,1333.483398 1897.866821,1330.145020 1900.759399,1326.503662 
	C1910.361328,1314.415649 1909.699463,1301.757812 1899.810181,1292.660889 
	C1892.768799,1286.183716 1875.968140,1284.978394 1867.270996,1295.210449 
	C1865.117432,1297.744019 1862.836304,1300.170898 1860.575562,1302.611572 
	C1800.386963,1367.594482 1751.213135,1440.098755 1713.210327,1520.058960 
	C1680.482910,1588.919312 1656.992188,1660.824585 1643.041016,1735.895020 
	C1636.093018,1773.282349 1631.823853,1810.923950 1629.263428,1848.779175 
	C1628.141479,1865.364380 1628.210571,1882.059814 1628.433960,1898.695923 
	C1628.588501,1910.199707 1633.923340,1917.078247 1643.174194,1920.010742 
	C1658.231689,1924.783936 1671.913940,1915.937012 1673.083374,1900.089722 
	C1674.110718,1886.170410 1674.388550,1872.193359 1674.877197,1858.237427 
	C1676.325073,1816.888672 1681.567139,1775.963745 1689.657959,1735.453735 
	C1708.474731,1641.239868 1742.484863,1552.811157 1793.403809,1467.844238 
z"/>
<path fill="#B6927F" opacity="1.000000" stroke="none" 
	d="
M2042.723511,2229.023438 
	C2149.616455,2379.602539 2316.325928,2458.440430 2457.660645,2466.579102 
	C2458.272705,2463.664795 2459.471680,2460.600098 2459.478027,2457.532471 
	C2459.585449,2406.209229 2459.555176,2354.885498 2459.494629,2303.562012 
	C2459.492432,2301.614502 2458.876465,2299.667236 2458.296143,2296.239746 
	C2453.025635,2295.036865 2447.431885,2293.307861 2441.708496,2292.521729 
	C2338.316650,2278.319092 2245.325684,2197.186523 2224.848877,2081.080078 
	C2222.430420,2067.367676 2221.705566,2053.356445 2220.105225,2038.653687 
	C2216.394287,2036.696777 2212.107422,2034.993652 2208.444092,2032.407593 
	C2192.666748,2021.270264 2192.702148,2001.717529 2208.499512,1990.678345 
	C2211.687988,1988.450195 2215.497070,1987.109985 2220.367676,1984.691162 
	C2220.654053,1978.049561 2220.696289,1970.827026 2221.338379,1963.658203 
	C2222.294434,1952.984009 2227.118408,1944.562256 2237.191895,1939.982422 
	C2254.684814,1932.030151 2273.108643,1941.919067 2276.406982,1961.084961 
	C2277.192383,1965.649292 2276.928955,1970.385010 2277.379883,1975.019409 
	C2277.688965,1978.194458 2278.399414,1981.330566 2278.930420,1984.484253 
	C2286.380371,1987.608765 2292.285645,1986.980713 2298.565674,1983.202881 
	C2304.673340,1979.529053 2311.456787,1976.978516 2319.811279,1973.058472 
	C2323.913086,1958.532715 2318.745117,1940.955933 2322.720947,1923.039429 
	C2327.300781,1922.401855 2331.722656,1921.283447 2336.151855,1921.252930 
	C2361.479492,1921.078003 2386.808838,1921.198486 2412.137451,1921.128174 
	C2417.456787,1921.113403 2422.854492,1921.216919 2428.076172,1920.386475 
	C2436.239014,1919.088135 2442.427002,1912.248291 2443.638184,1904.250366 
	C2444.907715,1895.868408 2439.788086,1886.573364 2431.142090,1883.802124 
	C2425.565674,1882.014771 2419.417480,1881.418945 2413.513184,1881.351685 
	C2390.187012,1881.085938 2366.855957,1881.294556 2343.527344,1881.203003 
	C2336.962158,1881.177246 2330.398438,1880.727295 2323.187012,1880.446777 
	C2319.968506,1872.107422 2321.429199,1864.109985 2321.200195,1856.352051 
	C2320.966553,1848.434814 2321.148438,1840.505371 2321.148438,1831.559082 
	C2326.803955,1830.621704 2331.184570,1829.301758 2335.575684,1829.266235 
	C2360.902832,1829.061523 2386.232422,1829.182617 2411.561035,1829.138428 
	C2416.888672,1829.129150 2422.276123,1829.347412 2427.530029,1828.656250 
	C2437.027588,1827.407227 2444.430664,1818.210205 2443.901611,1809.082397 
	C2443.383789,1800.156616 2436.805176,1792.635010 2427.790771,1791.361206 
	C2423.201904,1790.712769 2418.483887,1790.862915 2413.823730,1790.854370 
	C2389.828125,1790.810669 2365.832275,1790.887573 2341.837158,1790.792358 
	C2335.956787,1790.769043 2330.078369,1790.257324 2323.383057,1789.930176 
	C2319.313721,1773.474487 2321.509033,1757.720093 2321.772705,1740.853638 
	C2326.552734,1740.120239 2330.927002,1738.900146 2335.310303,1738.866943 
	C2360.637695,1738.675293 2385.968018,1738.878662 2411.295166,1738.671997 
	C2417.231689,1738.623657 2423.319580,1738.154541 2429.054443,1736.734863 
	C2438.129150,1734.488281 2444.069336,1726.277588 2443.837646,1717.837646 
	C2443.579834,1708.438477 2436.321533,1700.581055 2426.178711,1699.290771 
	C2421.576660,1698.705322 2416.867432,1698.866821 2412.206299,1698.859253 
	C2388.877197,1698.821411 2365.547852,1698.885376 2342.218994,1698.806641 
	C2336.305908,1698.786743 2330.393555,1698.375610 2323.556885,1698.108154 
	C2319.317383,1681.243652 2320.982422,1665.083130 2322.443604,1647.828003 
	C2329.168457,1647.439575 2335.031250,1646.836060 2340.896484,1646.808350 
	C2364.891602,1646.695068 2388.888184,1646.831543 2412.883057,1646.697510 
	C2418.172852,1646.667969 2423.616455,1646.565186 2428.711670,1645.341431 
	C2437.813965,1643.155151 2444.013916,1634.927979 2443.876953,1626.574219 
	C2443.724609,1617.288696 2436.450439,1608.860596 2426.695557,1607.472656 
	C2421.452637,1606.726685 2416.062744,1606.879517 2410.738281,1606.865356 
	C2388.742188,1606.806641 2366.746338,1606.867065 2344.750244,1606.818115 
	C2339.511475,1606.806396 2334.273193,1606.541138 2327.682617,1606.354004 
	C2327.892578,1601.585938 2327.227783,1597.633057 2328.339844,1594.267212 
	C2348.480957,1533.292480 2389.812988,1495.899414 2453.126465,1483.936523 
	C2465.455811,1481.607056 2478.305420,1481.299683 2490.912354,1481.325439 
	C2514.862305,1481.374146 2538.823242,1480.063721 2562.752441,1483.500488 
	C2624.676025,1492.393677 2677.025391,1541.078735 2690.475586,1604.203125 
	C2686.965820,1605.064575 2683.414062,1606.665161 2679.849121,1606.694824 
	C2653.188965,1606.917725 2626.526611,1606.804443 2599.864746,1606.861328 
	C2594.539307,1606.872681 2589.138672,1606.652466 2583.905273,1607.431152 
	C2573.354980,1609.001099 2567.034668,1616.475586 2567.029053,1626.474854 
	C2567.022949,1636.642578 2572.988037,1644.070190 2583.467773,1646.032104 
	C2588.001221,1646.880859 2592.754639,1646.719116 2597.408936,1646.730103 
	C2622.737793,1646.789795 2648.066650,1646.714722 2673.395264,1646.792114 
	C2679.988281,1646.812256 2686.580322,1647.211914 2693.720947,1647.456055 
	C2696.959717,1655.762817 2695.417236,1663.746338 2695.661865,1671.491333 
	C2695.913086,1679.435791 2695.717285,1687.394287 2695.717285,1696.449463 
	C2690.363770,1697.350098 2685.996582,1698.690308 2681.619629,1698.722534 
	C2654.292725,1698.924194 2626.963867,1698.814453 2599.635498,1698.855957 
	C2594.307373,1698.864014 2588.925537,1698.646362 2583.663574,1699.299683 
	C2573.916992,1700.509644 2568.070068,1706.888428 2567.186768,1716.417603 
	C2566.308350,1725.891968 2570.740723,1733.561157 2580.106689,1736.416382 
	C2585.713867,1738.125732 2591.864990,1738.599609 2597.780518,1738.654175 
	C2623.107178,1738.887451 2648.437256,1738.712280 2673.765869,1738.792480 
	C2680.348145,1738.813354 2686.929443,1739.218506 2694.247070,1739.472534 
	C2696.819580,1756.209473 2695.771484,1771.942993 2694.890869,1789.101685 
	C2689.444824,1789.701416 2684.339844,1790.719482 2679.229004,1790.750244 
	C2651.901611,1790.915039 2624.572754,1790.818604 2597.244385,1790.851196 
	C2592.582520,1790.856689 2587.871338,1790.656738 2583.269287,1791.237549 
	C2573.106445,1792.520264 2566.800537,1800.274292 2567.049072,1810.562866 
	C2567.272949,1819.826660 2573.370605,1827.257446 2582.469727,1828.602295 
	C2587.050293,1829.279175 2591.771484,1829.126221 2596.429443,1829.133911 
	C2623.091309,1829.177856 2649.753418,1829.088135 2676.414795,1829.213135 
	C2682.230957,1829.240356 2688.043701,1829.957153 2694.399414,1830.393677 
	C2696.548828,1847.502930 2696.104980,1863.270264 2694.829346,1878.778564 
	C2687.989746,1882.468872 2681.193115,1881.138916 2674.626953,1881.177612 
	C2649.298828,1881.327148 2623.967773,1881.067505 2598.642334,1881.364258 
	C2592.081787,1881.441162 2585.261719,1882.109131 2579.052734,1884.066162 
	C2569.987793,1886.923462 2565.930908,1895.038574 2567.224609,1904.668701 
	C2568.360596,1913.123413 2574.071777,1919.254272 2582.739258,1920.538696 
	C2587.321045,1921.217529 2592.038330,1921.125610 2596.694824,1921.135010 
	C2622.023682,1921.186157 2647.352295,1921.120361 2672.681152,1921.188965 
	C2679.261230,1921.206787 2685.840088,1921.561890 2693.577637,1921.797363 
	C2694.363770,1926.184570 2695.532715,1929.873779 2695.597656,1933.582397 
	C2695.830322,1946.850220 2695.688965,1960.124390 2695.688965,1974.166626 
	C2700.971680,1975.463501 2705.452148,1976.067627 2709.514404,1977.708252 
	C2713.148926,1979.176147 2716.345947,1981.748901 2719.692871,1983.901367 
	C2725.202637,1987.444702 2730.906006,1987.367798 2737.885010,1984.640503 
	C2738.409912,1981.362671 2739.182373,1977.621826 2739.570312,1973.841675 
	C2740.045654,1969.211914 2739.664062,1964.439697 2740.590332,1959.921143 
	C2743.503174,1945.711060 2755.572510,1936.418335 2769.329590,1937.295654 
	C2783.370605,1938.191162 2794.042236,1948.393433 2795.492676,1962.876709 
	C2796.213135,1970.070679 2796.113281,1977.346558 2796.399658,1984.986206 
	C2809.369141,1989.844727 2819.927002,1996.414062 2819.916748,2011.652710 
	C2819.906494,2026.993408 2809.031982,2033.254517 2796.403809,2038.221069 
	C2795.185059,2063.816650 2792.040039,2088.834229 2784.410889,2113.123535 
	C2776.568848,2138.091309 2765.568359,2161.496338 2750.737793,2183.079834 
	C2736.289551,2204.106934 2718.925049,2222.473145 2699.170166,2238.510498 
	C2678.866455,2254.993652 2656.321289,2267.599365 2632.086914,2277.611572 
	C2608.592529,2287.317627 2583.544434,2290.635254 2559.617676,2295.839600 
	C2556.713135,2312.965088 2556.336426,2445.522705 2559.045410,2465.782227 
	C2562.470215,2466.170898 2566.281982,2467.321777 2569.917236,2466.910889 
	C2662.945557,2456.391113 2748.584473,2425.525391 2826.451660,2373.372559 
	C2830.872803,2370.411133 2835.187012,2367.104736 2839.993408,2364.942139 
	C2850.620361,2360.161621 2862.881592,2363.528320 2868.523193,2372.146973 
	C2875.072021,2382.151611 2873.414062,2394.594971 2864.124756,2402.764160 
	C2860.639404,2405.829346 2856.700195,2408.409424 2852.821289,2410.990723 
	C2775.687012,2462.320068 2691.695801,2496.292969 2599.699707,2508.789307 
	C2404.177734,2535.347900 2232.565186,2482.225342 2087.382080,2349.066162 
	C1986.989136,2256.987793 1925.712402,2141.794922 1901.117188,2007.776489 
	C1886.775513,1929.629028 1888.269165,1851.320801 1904.329224,1773.405273 
	C1905.133911,1769.500732 1905.945923,1765.536987 1907.353638,1761.828247 
	C1911.922607,1749.790771 1921.653442,1744.696167 1934.502075,1747.282227 
	C1945.508179,1749.497314 1952.972900,1760.576294 1951.073120,1773.168335 
	C1948.789673,1788.303223 1945.349609,1803.266968 1943.175049,1818.414551 
	C1927.837891,1925.252930 1942.091797,2028.211914 1984.984131,2127.108154 
	C2000.384888,2162.617432 2019.194946,2196.380859 2042.723511,2229.023438 
M2313.303955,2152.486572 
	C2356.653320,2211.581543 2415.100098,2240.370361 2488.253906,2239.734863 
	C2504.244629,2239.595947 2520.238037,2239.758789 2536.229736,2239.702881 
	C2572.275879,2239.577393 2606.266357,2231.190918 2637.368164,2212.873535 
	C2697.815430,2177.273438 2731.320312,2124.028564 2739.252441,2054.549316 
	C2739.906982,2048.815186 2741.239502,2042.605835 2735.941895,2036.289185 
	C2731.478760,2036.739868 2724.758789,2035.403564 2721.442627,2038.160767 
	C2713.886230,2044.443237 2705.273438,2046.703003 2695.851807,2047.763184 
	C2694.547119,2054.661133 2693.381348,2060.472412 2692.354492,2066.307861 
	C2680.986084,2130.903564 2627.422119,2183.315430 2561.991211,2192.681152 
	C2536.091309,2196.388672 2510.110596,2194.229980 2484.170410,2194.603027 
	C2474.243408,2194.746094 2464.211914,2193.828125 2454.365967,2192.425049 
	C2389.635498,2183.198486 2335.368408,2131.138916 2324.059082,2063.656982 
	C2323.203125,2058.549805 2322.254150,2053.458252 2321.144287,2047.212646 
	C2311.718750,2047.170898 2303.792725,2044.744751 2296.751221,2038.908203 
	C2291.252686,2034.350952 2284.534424,2035.368408 2277.351318,2038.987793 
	C2277.522461,2079.946533 2289.406494,2116.573486 2313.303955,2152.486572 
z"/>
<path fill="#B6937F" opacity="1.000000" stroke="none" 
	d="
M1067.902100,3459.141113 
	C1086.585571,3346.505127 1104.720703,3235.547119 1123.091187,3125.181152 
	C1140.438110,3122.216797 1227.253540,3121.818848 1247.812134,3124.346680 
	C1251.641724,3127.172363 1250.577393,3131.433105 1250.781494,3135.250977 
	C1250.994629,3139.238770 1250.850464,3143.246338 1250.850464,3147.245117 
	C1250.851685,3417.168701 1250.862061,3687.092529 1250.799072,3957.016113 
	C1250.797241,3964.838379 1251.931641,3972.865234 1249.321045,3980.141357 
	C1234.027100,3983.461670 1183.120361,3983.889404 1161.899292,3980.850342 
	C1161.394897,3976.190918 1160.394043,3971.146973 1160.375244,3966.099609 
	C1160.238525,3929.443848 1160.298584,3892.787109 1160.298096,3856.130859 
	C1160.297363,3794.148438 1159.978027,3732.163574 1160.403564,3670.184082 
	C1160.718994,3624.240479 1161.941895,3578.302246 1162.875977,3532.364014 
	C1163.539307,3499.733398 1164.326660,3467.104736 1165.190063,3434.478760 
	C1165.735840,3413.855957 1166.575073,3393.240967 1167.172363,3372.619385 
	C1167.363770,3366.012695 1167.202393,3359.395752 1167.202393,3350.439941 
	C1162.115723,3356.476807 1161.370728,3361.936523 1160.459106,3367.158447 
	C1146.829834,3445.215820 1133.332764,3523.296387 1119.701294,3601.353516 
	C1108.818726,3663.669434 1097.804810,3725.962891 1086.832642,3788.263428 
	C1076.554443,3846.624512 1066.273071,3904.985107 1055.931763,3963.335205 
	C1055.019043,3968.485352 1053.653931,3973.555176 1052.590576,3978.257324 
	C1036.287964,3980.918701 980.648987,3981.123047 960.819275,3978.581299 
	C951.552063,3938.299561 945.463440,3896.907227 937.616150,3855.876709 
	C929.736511,3814.677490 922.747742,3773.308838 915.202637,3732.044434 
	C907.658325,3690.783936 899.852478,3649.571289 892.264648,3608.318604 
	C884.675415,3567.058350 877.392273,3525.741211 869.646301,3484.510742 
	C861.966125,3443.629639 855.433960,3402.502930 843.236938,3362.091064 
	C842.578064,3365.695068 841.302307,3369.309814 841.366638,3372.900879 
	C841.652710,3388.860352 842.460571,3404.810059 842.826599,3420.769043 
	C843.712463,3459.394043 843.806152,3498.048828 845.374634,3536.644775 
	C851.194397,3679.856201 847.113403,3823.124023 848.326355,3966.359375 
	C848.365173,3970.940186 847.728943,3975.526855 847.422485,3979.895020 
	C833.533447,3983.458984 787.254700,3984.242188 760.713440,3981.405518 
	C760.101624,3977.864990 759.144348,3974.093018 758.867798,3970.271973 
	C758.531799,3965.630371 758.760681,3960.947021 758.760681,3956.281738 
	C758.759216,3687.024414 758.754578,3417.767334 758.782898,3148.510010 
	C758.783691,3140.645996 759.133179,3132.781738 759.312805,3125.225098 
	C776.606873,3122.075684 837.831909,3121.257324 883.168945,3123.437500 
	C884.466248,3127.203613 886.531128,3131.323730 887.288635,3135.672119 
	C905.231628,3238.659424 922.971313,3341.682373 940.878723,3444.675781 
	C960.838623,3559.474609 980.914124,3674.253662 1000.992798,3789.031738 
	C1002.213867,3796.011963 1003.905457,3802.909668 1006.119690,3813.338623 
	C1008.808044,3807.413574 1010.728760,3804.746826 1011.229858,3801.835693 
	C1016.765564,3769.676514 1022.135193,3737.488525 1027.443359,3705.290771 
	C1036.324829,3651.418701 1045.114380,3597.531250 1053.972168,3543.655273 
	C1058.509766,3516.056396 1063.111694,3488.468506 1067.902100,3459.141113 
z"/>
<path fill="#B6937F" opacity="1.000000" stroke="none" 
	d="
M3784.364746,3895.999756 
	C3784.364746,3925.270508 3784.364746,3952.541748 3784.364746,3979.985107 
	C3770.966797,3984.982422 3758.267822,3982.273926 3745.864990,3982.717041 
	C3733.967773,3983.142334 3722.039551,3982.695068 3709.276855,3982.626709 
	C3677.196533,3886.952148 3646.679199,3791.934082 3615.556396,3697.120117 
	C3584.563965,3602.702637 3553.947754,3508.162109 3522.133545,3411.902832 
	C3519.263428,3415.735107 3517.848389,3416.744629 3517.870361,3417.721680 
	C3518.760010,3456.989746 3519.794189,3496.253906 3520.777100,3535.519775 
	C3521.492920,3564.131836 3522.700195,3592.744141 3522.759521,3621.358398 
	C3522.991699,3733.313965 3522.854492,3845.270264 3522.854492,3957.226318 
	C3522.854492,3964.511230 3522.854492,3971.796143 3522.854492,3979.402832 
	C3519.532471,3980.730225 3517.173340,3982.483887 3514.806641,3982.494141 
	C3488.162354,3982.610107 3461.517090,3982.476807 3434.872314,3982.318359 
	C3433.660156,3982.311035 3432.452881,3981.427002 3429.759766,3980.367920 
	C3429.350342,3977.398193 3428.593262,3973.669189 3428.380127,3969.909424 
	C3428.116211,3965.259033 3428.296631,3960.583252 3428.296387,3955.918457 
	C3428.295166,3686.690674 3428.283936,3417.463135 3428.352539,3148.235352 
	C3428.354492,3140.393555 3427.168457,3132.382568 3429.703369,3124.849854 
	C3446.496582,3122.018799 3489.372803,3122.012207 3506.734131,3124.971436 
	C3522.421387,3170.913818 3538.339355,3217.458740 3554.206543,3264.020752 
	C3570.097656,3310.652344 3585.937744,3357.301270 3601.801270,3403.942139 
	C3617.446289,3449.940918 3632.904785,3496.003906 3648.790771,3541.919189 
	C3664.751709,3588.052246 3679.753174,3634.542969 3696.952881,3681.663574 
	C3703.814209,3676.708496 3702.790527,3671.866699 3702.632324,3667.652344 
	C3701.634033,3641.045410 3700.400146,3614.447021 3699.275391,3587.844482 
	C3697.756104,3551.923340 3695.462158,3516.013184 3694.929932,3480.076904 
	C3693.835693,3406.149658 3693.595947,3332.208496 3693.192627,3258.272217 
	C3692.978027,3218.955566 3693.113525,3179.636475 3693.207275,3140.318604 
	C3693.219482,3135.154785 3693.922852,3129.992676 3694.282715,3125.142334 
	C3710.897217,3122.057373 3765.117920,3121.895020 3782.542969,3124.680176 
	C3783.053711,3125.888672 3784.002197,3127.099121 3784.002930,3128.309814 
	C3784.167480,3383.539795 3784.264893,3638.770020 3784.364746,3895.999756 
z"/>
<path fill="#B7937F" opacity="1.000000" stroke="none" 
	d="
M4258.821289,3404.000977 
	C4258.823730,3521.290527 4259.095703,3636.580811 4258.677734,3751.868896 
	C4258.535156,3791.239502 4254.337891,3830.311279 4243.687988,3868.425781 
	C4239.194336,3884.508301 4233.083496,3899.925537 4224.669434,3914.445557 
	C4205.468750,3947.579590 4176.432129,3967.422852 4139.736328,3975.693604 
	C4122.298828,3979.623779 4104.208496,3982.179688 4086.363770,3982.488525 
	C4035.731934,3983.364258 3985.074707,3982.775146 3934.427490,3982.699951 
	C3931.849121,3982.696045 3929.271729,3982.101562 3925.342773,3981.614746 
	C3924.759033,3977.674316 3923.949219,3973.972168 3923.722656,3970.234863 
	C3923.440918,3965.586670 3923.634033,3960.908936 3923.634033,3956.244141 
	C3923.632812,3687.013184 3923.629883,3417.782227 3923.645752,3148.551270 
	C3923.645996,3140.624756 3923.842285,3132.698242 3923.960205,3123.774414 
	C3931.102295,3123.400635 3937.003906,3122.832031 3942.906738,3122.823730 
	C3992.221191,3122.754150 4041.535889,3122.734131 4090.850342,3122.814941 
	C4110.903809,3122.847656 4130.651367,3124.972412 4150.041504,3130.661133 
	C4189.011719,3142.093994 4216.113281,3166.428955 4232.258789,3203.608887 
	C4245.946777,3235.130615 4252.772949,3268.194580 4256.094238,3302.173340 
	C4259.340820,3335.388672 4258.891113,3368.698730 4258.821289,3404.000977 
M4151.470215,3824.572021 
	C4155.957031,3799.540527 4156.416016,3774.278320 4156.386719,3748.926025 
	C4156.235840,3617.683594 4156.315430,3486.441406 4156.314453,3355.198975 
	C4156.314453,3346.538330 4156.551270,3337.869629 4156.260742,3329.218506 
	C4155.341797,3301.826660 4152.496094,3274.691895 4142.592773,3248.864990 
	C4130.367188,3216.981445 4105.541504,3203.511230 4078.516846,3203.665039 
	C4064.526855,3203.744629 4050.533936,3203.546143 4036.547607,3203.781982 
	C4032.826904,3203.844482 4029.125244,3205.047363 4025.300293,3205.747314 
	C4024.914551,3209.488770 4024.411377,3212.084229 4024.412842,3214.679199 
	C4024.552246,3441.174072 4024.729492,3667.668945 4024.923340,3894.163818 
	C4024.924072,3894.812012 4025.070312,3895.531494 4025.379883,3896.088867 
	C4025.690430,3896.647949 4026.291992,3897.044922 4028.083984,3898.814941 
	C4049.153076,3900.243652 4071.692871,3901.207764 4094.029053,3898.317627 
	C4116.057617,3895.467529 4132.521973,3883.735107 4140.364258,3862.213867 
	C4144.451660,3850.997803 4147.447754,3839.384277 4151.470215,3824.572021 
z"/>
<path fill="#B7937F" opacity="1.000000" stroke="none" 
	d="
M2488.356934,3328.391113 
	C2490.880371,3291.910156 2493.333252,3257.323486 2503.926270,3224.069580 
	C2507.952148,3211.431885 2512.605957,3198.845215 2518.455322,3186.965088 
	C2535.604004,3152.135254 2563.652832,3129.966064 2600.860352,3119.566895 
	C2638.153076,3109.144043 2675.944580,3108.436035 2713.520020,3117.264893 
	C2764.864502,3129.329346 2796.746826,3162.419678 2811.802002,3212.286621 
	C2823.436035,3250.822510 2828.171387,3290.479492 2828.251709,3330.565674 
	C2828.540039,3474.454102 2828.521729,3618.343750 2828.263672,3762.232178 
	C2828.190674,3803.001465 2823.369629,3843.317627 2811.872559,3882.572266 
	C2808.704346,3893.391113 2804.535156,3903.992920 2799.958252,3914.310059 
	C2782.824219,3952.933350 2752.932861,3976.763916 2712.229004,3986.286621 
	C2676.776855,3994.580566 2640.991455,3994.584229 2605.375977,3985.981201 
	C2558.731445,3974.714600 2528.878662,3945.075928 2511.880615,3901.157715 
	C2501.470459,3874.260498 2495.494141,3846.224121 2492.674316,3817.723145 
	C2490.057373,3791.270264 2488.565918,3764.599854 2488.488525,3738.019775 
	C2488.093018,3602.125732 2488.316162,3466.229492 2488.356934,3328.391113 
M2590.789551,3421.999268 
	C2590.792969,3533.295898 2590.716553,3644.592285 2590.883057,3755.888672 
	C2590.908936,3773.193604 2591.513184,3790.537354 2592.814697,3807.790283 
	C2594.266846,3827.042236 2596.684570,3846.238525 2602.599365,3864.770020 
	C2608.710693,3883.917969 2620.842529,3897.122070 2640.681641,3902.145996 
	C2653.152588,3905.303711 2665.744385,3905.183105 2678.203125,3901.590332 
	C2693.157227,3897.278320 2704.612305,3888.368164 2710.456543,3873.966553 
	C2714.676270,3863.568115 2717.824219,3852.549316 2719.933350,3841.517334 
	C2725.198975,3813.972168 2726.616211,3785.962891 2726.675537,3758.012207 
	C2726.962646,3622.723877 2726.945557,3487.434814 2726.670898,3352.146484 
	C2726.623779,3328.874756 2725.732178,3305.518066 2723.495361,3282.367920 
	C2721.970459,3266.583008 2718.441406,3250.791260 2713.959717,3235.545898 
	C2708.989014,3218.637939 2697.631836,3206.380615 2679.933594,3202.041260 
	C2648.076904,3194.229980 2618.341797,3203.829346 2604.735596,3237.650146 
	C2602.754639,3242.573486 2600.755859,3247.642090 2599.883789,3252.831543 
	C2596.909424,3270.532227 2592.802002,3288.253418 2592.109375,3306.082764 
	C2590.661621,3343.349121 2591.116455,3380.689209 2590.789551,3421.999268 
z"/>
<path fill="#B5927F" opacity="1.000000" stroke="none" 
	d="
M3083.048340,3989.255371 
	C3061.983643,3986.111328 3043.796631,3979.931396 3027.007324,3969.879395 
	C3001.867676,3954.828125 2986.342529,3932.056152 2975.481445,3905.516602 
	C2963.998291,3877.457031 2958.648193,3847.977783 2956.465332,3818.018311 
	C2954.482910,3790.812988 2953.331543,3763.485107 2953.295654,3736.209229 
	C2953.037598,3540.237061 2953.142334,3344.263916 2953.213623,3148.291260 
	C2953.216309,3140.473389 2952.049072,3132.466309 2954.596436,3125.069580 
	C2972.498779,3121.766357 3039.320801,3121.942871 3055.712646,3125.484375 
	C3055.712646,3133.115234 3055.712646,3141.054199 3055.712646,3148.993408 
	C3055.712646,3344.966064 3055.689697,3540.938965 3055.743408,3736.911621 
	C3055.749756,3760.235352 3055.802490,3783.571045 3056.543213,3806.878662 
	C3056.986572,3820.829346 3058.292480,3834.805420 3060.145752,3848.644775 
	C3062.331543,3864.965820 3070.530762,3878.785889 3081.105225,3891.021484 
	C3084.458008,3894.901367 3089.296387,3898.047607 3094.074951,3900.049805 
	C3113.979004,3908.389160 3134.211914,3908.528076 3154.214600,3900.307617 
	C3168.608154,3894.392334 3177.795166,3883.285400 3183.190186,3868.949463 
	C3188.882568,3853.823730 3191.289551,3838.037598 3191.553955,3821.959961 
	C3191.959473,3797.307373 3192.250244,3772.649902 3192.257080,3747.994385 
	C3192.311035,3548.688721 3192.287354,3349.383301 3192.287354,3150.077637 
	C3192.287354,3142.115234 3192.287354,3134.153076 3192.287354,3125.253174 
	C3209.893555,3120.252441 3227.116943,3123.127930 3244.029541,3122.978516 
	C3260.473633,3122.832764 3277.130615,3120.846436 3294.877686,3124.938232 
	C3294.877686,3131.997314 3294.877686,3138.584229 3294.877686,3145.171143 
	C3294.876953,3346.476562 3295.198730,3547.782715 3294.601562,3749.086426 
	C3294.483154,3788.955566 3293.766357,3829.114014 3283.920898,3868.214844 
	C3280.515381,3881.738770 3276.559326,3895.221924 3271.569092,3908.230957 
	C3254.337158,3953.154053 3220.816406,3978.800293 3174.257568,3988.037354 
	C3144.574463,3993.926270 3114.686523,3994.090088 3083.048340,3989.255371 
z"/>
<path fill="#B79480" opacity="1.000000" stroke="none" 
	d="
M1679.088745,3303.388428 
	C1649.765991,3380.807129 1621.189819,3456.846924 1592.067993,3532.677246 
	C1588.187500,3542.781494 1588.348999,3551.290527 1592.320435,3561.296143 
	C1645.630493,3695.602539 1698.583252,3830.050293 1751.562988,3964.487549 
	C1753.456909,3969.293457 1754.714844,3974.349854 1755.933472,3978.222656 
	C1754.898438,3980.175293 1754.707031,3980.900879 1754.239868,3981.314209 
	C1753.781006,3981.719727 1753.041748,3982.005371 1752.425049,3982.006104 
	C1719.811523,3982.038086 1687.197998,3982.034424 1654.506226,3982.034424 
	C1648.991943,3979.486816 1648.383423,3973.749023 1646.511597,3968.920898 
	C1610.896484,3877.057617 1575.350220,3785.167725 1539.786255,3693.284668 
	C1527.768311,3662.235107 1515.788818,3631.170654 1503.660767,3600.164062 
	C1502.039795,3596.019775 1499.645142,3592.177979 1497.028809,3587.062012 
	C1495.316650,3589.985107 1493.682129,3591.525635 1493.588745,3593.154297 
	C1493.207764,3599.798828 1493.226074,3606.470459 1493.225220,3613.132080 
	C1493.210449,3727.764648 1493.246582,3842.396973 1493.144165,3957.029541 
	C1493.137207,3964.864502 1494.595825,3972.941650 1491.344360,3980.377197 
	C1476.311646,3983.473877 1413.407227,3983.811768 1392.571289,3980.799805 
	C1392.027222,3977.455078 1391.135498,3973.732910 1390.882080,3969.967773 
	C1390.569458,3965.322754 1390.777832,3960.642334 1390.777832,3955.977051 
	C1390.776245,3687.390381 1390.776245,3418.803955 1390.776245,3150.217285 
	C1390.776245,3142.250000 1390.776367,3134.282471 1390.776367,3125.806152 
	C1393.847412,3124.690674 1396.213745,3123.094238 1398.588989,3123.080811 
	C1427.244141,3122.918701 1455.900635,3122.961426 1484.556396,3123.064697 
	C1486.408936,3123.071533 1488.258179,3124.008057 1491.159424,3124.798096 
	C1493.624023,3146.516357 1491.983765,3168.383545 1492.288452,3190.170166 
	C1492.586670,3211.492920 1492.353394,3232.823242 1492.353394,3254.150146 
	C1492.353394,3276.143555 1492.353394,3298.136963 1492.353394,3320.130371 
	C1492.353394,3342.123779 1492.353394,3364.117432 1492.353394,3386.110840 
	C1492.353394,3407.437744 1492.353394,3428.764893 1492.353394,3450.091797 
	C1492.353394,3471.877686 1492.353394,3493.663574 1492.353394,3515.435303 
	C1498.436279,3515.843262 1498.808838,3511.965576 1499.884766,3509.101807 
	C1513.466797,3472.949707 1526.994873,3436.777100 1540.485840,3400.590820 
	C1573.747681,3311.374023 1606.972412,3222.143311 1640.275391,3132.941650 
	C1641.421021,3129.873047 1643.243042,3127.056885 1644.611328,3124.392822 
	C1662.180420,3122.180664 1726.043091,3122.242188 1744.052002,3124.609863 
	C1743.185181,3128.920898 1742.894653,3133.354980 1741.401855,3137.338135 
	C1721.537476,3190.343018 1701.501587,3243.283691 1681.524780,3296.246826 
	C1680.820435,3298.114014 1680.281006,3300.043701 1679.088745,3303.388428 
z"/>
<path fill="#B7937F" opacity="1.000000" stroke="none" 
	d="
M2058.770020,3692.290527 
	C2059.479492,3677.201416 2057.161377,3663.867188 2060.432861,3651.059326 
	C2076.971191,3648.638428 2137.116455,3648.506836 2156.115723,3650.926758 
	C2156.476807,3656.450928 2157.162598,3662.271729 2157.186279,3668.095215 
	C2157.299072,3696.093018 2156.795166,3724.100098 2157.350830,3752.087158 
	C2157.932373,3781.372559 2159.093750,3810.664062 2164.038086,3839.646973 
	C2166.175537,3852.176758 2169.138184,3864.386963 2174.880859,3875.865479 
	C2184.091064,3894.275146 2198.660400,3904.383057 2219.357666,3904.136963 
	C2229.259033,3904.019287 2239.292480,3902.947998 2248.994141,3900.971924 
	C2263.766113,3897.963135 2274.345459,3888.527832 2279.426025,3874.640625 
	C2283.497803,3863.511963 2286.714355,3851.632324 2287.630615,3839.877441 
	C2289.594971,3814.674316 2290.155518,3789.343750 2290.701660,3764.052490 
	C2291.840332,3711.331543 2275.062500,3664.469727 2242.779785,3623.153320 
	C2232.545898,3610.054443 2221.419678,3597.571045 2209.901367,3585.574219 
	C2186.824219,3561.539062 2162.838867,3538.371826 2139.896484,3514.212158 
	C2117.808594,3490.953125 2098.826660,3465.263184 2082.824707,3437.354004 
	C2069.041260,3413.314453 2060.044189,3387.647217 2056.636230,3360.301270 
	C2050.818848,3313.622559 2052.881592,3267.139893 2064.933838,3221.582275 
	C2068.982666,3206.277344 2075.643555,3191.511963 2082.412109,3177.111816 
	C2094.300049,3151.821533 2114.159424,3134.365479 2140.231689,3124.842529 
	C2153.272949,3120.079346 2167.060547,3116.853271 2180.782715,3114.567627 
	C2207.904053,3110.050293 2235.106201,3110.369629 2262.256836,3115.592773 
	C2311.222168,3125.011963 2343.054443,3153.998535 2359.918945,3200.240234 
	C2366.341064,3217.849365 2369.791260,3236.246338 2371.798828,3254.779785 
	C2374.163818,3276.615234 2376.237549,3298.551514 2376.861328,3320.489014 
	C2377.711914,3350.404053 2377.073242,3380.361572 2377.073242,3411.185547 
	C2360.671387,3415.040771 2344.764160,3413.032959 2329.065918,3413.051758 
	C2313.260010,3413.070557 2297.283447,3414.969238 2280.306641,3411.141602 
	C2280.306641,3404.138916 2280.349854,3397.532471 2280.299072,3390.926514 
	C2280.093262,3364.268799 2280.664795,3337.572266 2279.374023,3310.966309 
	C2278.377441,3290.422852 2275.885986,3269.845459 2272.372559,3249.575195 
	C2270.595459,3239.321533 2265.904297,3229.290771 2261.055176,3219.922607 
	C2254.838623,3207.912109 2243.905762,3201.571045 2230.470215,3200.090820 
	C2225.195312,3199.509766 2219.821777,3199.511963 2214.505859,3199.672119 
	C2190.844238,3200.385986 2174.291016,3211.864014 2164.354736,3233.187744 
	C2157.502441,3247.892578 2154.183594,3263.632080 2153.092285,3279.559814 
	C2151.499756,3302.807373 2151.022949,3326.135742 2155.610107,3349.271484 
	C2158.365234,3363.167480 2163.094971,3376.011475 2170.788818,3388.033203 
	C2185.287598,3410.687744 2204.229248,3429.459961 2222.462891,3448.867920 
	C2246.182129,3474.114502 2270.499512,3498.813477 2293.762695,3524.470703 
	C2335.575928,3570.586914 2366.780518,3622.681396 2381.299072,3683.931885 
	C2389.979492,3720.551758 2392.449463,3757.519531 2389.788086,3795.006104 
	C2387.993408,3820.286133 2386.381348,3845.586182 2379.939941,3870.181641 
	C2376.236084,3884.323975 2371.900146,3898.382080 2366.678467,3912.030273 
	C2350.540283,3954.212646 2319.141602,3978.499023 2275.421875,3987.259033 
	C2244.442871,3993.466309 2213.245361,3994.484131 2182.113770,3988.219238 
	C2136.529053,3979.046143 2103.280029,3954.001953 2084.379883,3911.016602 
	C2073.012695,3885.163574 2067.586670,3857.763184 2063.659424,3829.969971 
	C2058.135986,3790.877441 2058.759521,3751.549072 2058.769531,3712.237305 
	C2058.770996,3706.237305 2058.769775,3700.237061 2058.770020,3692.290527 
z"/>
<path fill="#B4917D" opacity="1.000000" stroke="none" 
	d="
M2257.391113,1181.357666 
	C2260.225342,1180.733276 2261.580566,1180.300659 2262.862061,1180.459595 
	C2277.225586,1182.241943 2285.271240,1188.813965 2286.948975,1200.008545 
	C2288.563477,1210.780518 2282.078857,1220.475952 2269.225342,1225.754272 
	C2250.141846,1233.590576 2230.574219,1240.351929 2211.873047,1248.999146 
	C2074.115479,1312.698242 1966.975464,1410.451294 1890.103027,1541.117188 
	C1841.208374,1624.227051 1811.199219,1713.950317 1799.174072,1809.709961 
	C1794.600464,1846.129883 1792.061279,1882.657959 1793.429077,1919.292603 
	C1796.789307,2009.302490 1815.142334,2096.073975 1850.860718,2179.028076 
	C1881.420044,2250.000244 1922.291504,2314.317627 1973.589844,2372.063721 
	C1977.558594,2376.531494 1981.684814,2381.012939 1984.771362,2386.077148 
	C1990.758789,2395.901611 1988.460571,2407.839111 1979.936890,2414.942627 
	C1972.034058,2421.528564 1960.743286,2422.108887 1952.167847,2415.784424 
	C1948.473755,2413.060059 1945.404297,2409.421387 1942.302490,2405.971924 
	C1873.262329,2329.185547 1821.957153,2241.963379 1788.758545,2144.177002 
	C1768.111450,2083.360840 1755.593506,2020.919800 1750.730347,1956.809692 
	C1740.367920,1820.209961 1764.392700,1689.856079 1824.466309,1567.060303 
	C1899.462769,1413.760742 2013.752563,1298.057495 2165.915527,1220.152100 
	C2195.008545,1205.256714 2225.079102,1192.696411 2257.391113,1181.357666 
z"/>
<path fill="#B4917D" opacity="1.000000" stroke="none" 
	d="
M2358.598633,1031.283447 
	C2401.667480,1023.458435 2443.406006,1019.784119 2485.396973,1018.760681 
	C2579.318604,1016.471619 2671.333252,1028.348999 2761.413818,1055.346191 
	C2871.217773,1088.254639 2970.728271,1140.612305 3059.974854,1212.458740 
	C3142.786865,1279.124756 3211.603516,1358.007324 3265.862305,1449.499878 
	C3268.576416,1454.076538 3271.542969,1458.586426 3273.576904,1463.467041 
	C3278.432617,1475.118774 3274.266602,1486.637451 3263.563232,1492.552734 
	C3253.538086,1498.093262 3243.095703,1495.986816 3235.121582,1486.264893 
	C3231.769531,1482.177979 3229.160400,1477.454102 3226.426514,1472.892212 
	C3196.198730,1422.447876 3161.354492,1375.487549 3121.247559,1332.420776 
	C3043.050781,1248.453003 2951.640869,1183.028198 2846.880615,1136.239258 
	C2777.783691,1105.378540 2705.762939,1084.272705 2630.987793,1073.070435 
	C2568.239258,1063.670044 2505.174561,1061.608276 2441.805176,1066.785889 
	C2373.084717,1072.400757 2306.131348,1086.022705 2240.841064,1107.993652 
	C2180.635498,1128.253052 2123.630371,1155.333862 2069.635498,1188.780273 
	C2063.411133,1192.635742 2057.337891,1196.851440 2050.763916,1200.001099 
	C2038.946777,1205.662720 2027.186768,1202.262817 2021.045166,1192.134888 
	C2014.645386,1181.581177 2016.685059,1170.445801 2026.862305,1161.911255 
	C2029.903809,1159.360474 2033.402710,1157.338379 2036.767090,1155.191895 
	C2122.367920,1100.579834 2214.806641,1062.370605 2313.797119,1039.986694 
	C2328.066162,1036.760132 2342.516113,1034.333008 2358.598633,1031.283447 
z"/>
<path fill="#B4917D" opacity="1.000000" stroke="none" 
	d="
M2221.020508,2602.645752 
	C2194.922119,2590.396240 2170.182861,2578.869629 2145.559082,2567.101318 
	C2137.304688,2563.156494 2131.529541,2557.020264 2130.983398,2547.212158 
	C2130.155762,2532.346191 2141.232422,2521.244873 2155.987793,2523.248779 
	C2161.710938,2524.025879 2167.377441,2526.753906 2172.592773,2529.499268 
	C2221.715088,2555.355957 2272.937500,2575.788574 2326.724609,2589.646729 
	C2408.820557,2610.799072 2492.051270,2617.496338 2576.456543,2609.085693 
	C2718.141113,2594.967285 2845.165039,2544.192383 2956.197021,2455.044678 
	C3069.514648,2364.061768 3147.026855,2248.224121 3191.156982,2109.900635 
	C3192.370361,2106.097656 3193.273682,2102.167969 3194.805664,2098.499512 
	C3200.311523,2085.315918 3210.547363,2080.262207 3223.584717,2083.551025 
	C3232.874512,2085.894531 3242.702637,2100.204346 3238.219238,2112.522461 
	C3229.796875,2135.661621 3223.148682,2159.487061 3213.946045,2182.293945 
	C3174.270996,2280.618652 3116.761963,2367.338623 3040.933838,2441.465088 
	C2932.262939,2547.697754 2803.351807,2615.830566 2653.934082,2644.925781 
	C2598.088135,2655.800293 2541.746338,2660.643066 2485.006836,2658.635986 
	C2394.365479,2655.429932 2306.662598,2637.328613 2221.020508,2602.645752 
z"/>
<path fill="#B4917D" opacity="1.000000" stroke="none" 
	d="
M3036.262207,2604.189697 
	C2978.268066,2647.543701 2917.026367,2682.385254 2851.703125,2710.092773 
	C2846.806152,2712.170166 2841.898926,2714.496094 2836.759766,2715.674805 
	C2825.305176,2718.302734 2815.384277,2712.965576 2810.666504,2702.362061 
	C2806.118896,2692.140381 2809.439697,2681.019775 2819.646240,2674.690430 
	C2824.692383,2671.561035 2830.417236,2669.492188 2835.914307,2667.128174 
	C2910.467773,2635.071045 2979.368896,2593.666016 3041.763916,2541.731934 
	C3149.355469,2452.179199 3229.838867,2342.671631 3282.441406,2212.844971 
	C3309.854004,2145.189209 3328.029785,2075.159668 3336.750488,2002.621094 
	C3342.249023,1956.884888 3344.951904,1911.110107 3342.805664,1865.053223 
	C3339.440918,1792.849609 3327.895752,1722.079956 3306.438477,1652.994995 
	C3304.464111,1646.638428 3302.021484,1640.391235 3300.552246,1633.921509 
	C3297.495850,1620.463013 3303.858887,1608.806641 3315.711914,1605.175415 
	C3327.500244,1601.563965 3339.804443,1607.473999 3343.867188,1620.849487 
	C3352.571045,1649.504761 3361.049316,1678.289673 3367.971680,1707.413330 
	C3387.385010,1789.090088 3392.392334,1872.189575 3387.252441,1955.660522 
	C3379.446045,2082.430420 3345.264160,2202.063232 3285.279053,2314.210938 
	C3249.558838,2380.993164 3205.969727,2442.197266 3154.523682,2497.659424 
	C3118.666992,2536.315674 3079.790527,2571.825439 3036.262207,2604.189697 
z"/>
<path fill="#B3907D" opacity="1.000000" stroke="none" 
	d="
M2167.068115,2661.403320 
	C2233.342529,2690.820068 2300.858643,2710.965576 2370.848389,2722.560547 
	C2410.314209,2729.098877 2450.074463,2733.129395 2490.168457,2733.159424 
	C2528.160400,2733.187988 2566.146484,2733.406982 2603.917236,2728.269043 
	C2608.525391,2727.642334 2613.229980,2727.299316 2617.872314,2727.434082 
	C2629.754639,2727.778809 2638.634521,2735.497559 2640.137939,2746.365234 
	C2641.762207,2758.104736 2634.429688,2769.194092 2622.569580,2771.705566 
	C2614.117920,2773.494873 2605.471191,2774.614502 2596.853027,2775.322021 
	C2553.671143,2778.867188 2510.453369,2781.173584 2467.095215,2778.863037 
	C2284.945068,2769.155273 2120.167480,2710.988770 1975.352051,2599.694092 
	C1812.774048,2474.748291 1705.979858,2312.268799 1654.358154,2113.708984 
	C1653.028931,2108.596191 1651.922607,2103.279297 1651.794312,2098.031006 
	C1651.521851,2086.870361 1658.453003,2078.109863 1668.313477,2076.083984 
	C1680.120361,2073.658203 1690.083008,2078.272705 1694.702026,2088.922119 
	C1696.806641,2093.774658 1698.082642,2099.027832 1699.361694,2104.191406 
	C1721.676636,2194.277588 1758.336670,2278.183350 1809.025146,2355.819580 
	C1889.456787,2479.011475 1995.311035,2574.240723 2126.112549,2641.644043 
	C2139.131348,2648.352783 2152.487549,2654.407227 2167.068115,2661.403320 
z"/>
<path fill="#B4917D" opacity="1.000000" stroke="none" 
	d="
M3086.627686,1405.306641 
	C3148.993896,1478.787842 3195.432373,1559.833740 3226.570557,1649.499512 
	C3246.296387,1706.302490 3259.626221,1764.611084 3264.609375,1824.668091 
	C3264.993652,1829.301880 3265.019287,1833.971313 3265.071045,1838.625610 
	C3265.205566,1850.671387 3253.050293,1858.870117 3244.471436,1859.447510 
	C3234.777100,1860.100098 3224.543945,1853.172974 3221.571533,1843.465576 
	C3220.417236,1839.695435 3220.149170,1835.621826 3219.743408,1831.659180 
	C3203.246094,1670.558594 3140.726318,1529.773438 3030.267822,1411.499023 
	C2921.844238,1295.403320 2788.756592,1223.063721 2631.911621,1195.297974 
	C2593.143799,1188.435059 2554.087402,1184.940674 2514.744873,1184.366333 
	C2511.417236,1184.317749 2508.028564,1184.499756 2504.776611,1183.942993 
	C2493.855225,1182.073242 2485.109863,1172.196899 2485.595215,1161.588745 
	C2486.060547,1151.414795 2492.950439,1140.888550 2504.994385,1139.517456 
	C2508.291504,1139.142090 2511.629150,1138.926880 2514.945801,1138.952271 
	C2629.283203,1139.827759 2738.073975,1164.967529 2840.933594,1214.794312 
	C2906.660400,1246.633179 2966.474854,1287.477051 3020.399170,1336.836304 
	C3043.516357,1357.996216 3065.331055,1380.410034 3086.627686,1405.306641 
z"/>
<path fill="#B4917D" opacity="1.000000" stroke="none" 
	d="
M2105.775879,1493.777344 
	C2091.417236,1509.623901 2078.051025,1524.458374 2064.712158,1539.317261 
	C2061.601807,1542.781860 2058.961426,1546.774902 2055.448730,1549.750366 
	C2047.245972,1556.698608 2036.061768,1556.845825 2027.695801,1550.692261 
	C2019.137207,1544.396851 2015.710083,1531.636108 2020.924438,1522.018066 
	C2024.063477,1516.227905 2028.491333,1511.075195 2032.712524,1505.942383 
	C2083.238037,1444.502808 2143.502197,1394.691406 2213.264893,1356.627930 
	C2281.185059,1319.569824 2353.631592,1296.098389 2430.596436,1287.038208 
	C2554.863525,1272.409424 2673.397949,1291.503662 2785.610840,1347.564941 
	C2790.355225,1349.935425 2795.250000,1352.302490 2799.372314,1355.559937 
	C2808.472656,1362.751343 2810.288086,1374.233643 2804.572998,1384.266968 
	C2799.504883,1393.164307 2788.918701,1397.662109 2778.891602,1394.721191 
	C2775.105225,1393.610718 2771.569092,1391.575317 2768.006104,1389.787231 
	C2711.010498,1361.184082 2650.996582,1341.897095 2587.858154,1333.131226 
	C2500.763916,1321.039551 2415.165039,1328.413940 2331.462158,1355.624878 
	C2245.715820,1383.500122 2171.011230,1429.591431 2105.775879,1493.777344 
z"/>
<path fill="#B4917D" opacity="1.000000" stroke="none" 
	d="
M2950.622070,1490.065430 
	C2963.163330,1486.214966 2971.731689,1490.686890 2978.374512,1499.093750 
	C2991.582764,1515.808960 3005.253418,1532.249390 3017.248291,1549.817261 
	C3074.218018,1633.255249 3109.297852,1725.111084 3120.807129,1825.627686 
	C3136.886475,1966.057129 3108.885498,2097.114746 3036.250977,2218.502441 
	C3033.518311,2223.069580 3030.917969,2227.799561 3027.579834,2231.903564 
	C3020.426025,2240.699219 3008.121826,2243.031250 2998.761719,2237.879639 
	C2989.234619,2232.636230 2984.723877,2221.179199 2988.629395,2210.339844 
	C2990.409912,2205.398926 2993.394043,2200.845215 2996.148682,2196.308105 
	C3032.102051,2137.084473 3056.841797,2073.550781 3069.614990,2005.416138 
	C3087.778320,1908.527222 3081.549072,1813.292358 3050.627686,1719.617554 
	C3028.020996,1651.131104 2993.609863,1589.280762 2947.658203,1533.776978 
	C2945.958740,1531.724243 2944.156494,1529.745117 2942.596680,1527.590942 
	C2931.778076,1512.651245 2933.455566,1503.411255 2950.622070,1490.065430 
z"/>
<path fill="#B4917D" opacity="1.000000" stroke="none" 
	d="
M1792.690918,1469.121826 
	C1742.484863,1552.811157 1708.474731,1641.239868 1689.657959,1735.453735 
	C1681.567139,1775.963745 1676.325073,1816.888672 1674.877197,1858.237427 
	C1674.388550,1872.193359 1674.110718,1886.170410 1673.083374,1900.089722 
	C1671.913940,1915.937012 1658.231689,1924.783936 1643.174194,1920.010742 
	C1633.923340,1917.078247 1628.588501,1910.199707 1628.433960,1898.695923 
	C1628.210571,1882.059814 1628.141479,1865.364380 1629.263428,1848.779175 
	C1631.823853,1810.923950 1636.093018,1773.282349 1643.041016,1735.895020 
	C1656.992188,1660.824585 1680.482910,1588.919312 1713.210327,1520.058960 
	C1751.213135,1440.098755 1800.386963,1367.594482 1860.575562,1302.611572 
	C1862.836304,1300.170898 1865.117432,1297.744019 1867.270996,1295.210449 
	C1875.968140,1284.978394 1892.768799,1286.183716 1899.810181,1292.660889 
	C1909.699463,1301.757812 1910.361328,1314.415649 1900.759399,1326.503662 
	C1897.866821,1330.145020 1894.587769,1333.483398 1891.428833,1336.908081 
	C1854.266846,1377.195190 1821.981567,1421.131470 1792.690918,1469.121826 
z"/>
<path fill="#050404" opacity="1.000000" stroke="none" 
	d="
M2312.497803,2151.287109 
	C2289.406494,2116.573486 2277.522461,2079.946533 2277.351318,2038.987793 
	C2284.534424,2035.368408 2291.252686,2034.350952 2296.751221,2038.908203 
	C2303.792725,2044.744751 2311.718750,2047.170898 2321.144287,2047.212646 
	C2322.254150,2053.458252 2323.203125,2058.549805 2324.059082,2063.656982 
	C2335.368408,2131.138916 2389.635498,2183.198486 2454.365967,2192.425049 
	C2464.211914,2193.828125 2474.243408,2194.746094 2484.170410,2194.603027 
	C2510.110596,2194.229980 2536.091309,2196.388672 2561.991211,2192.681152 
	C2627.422119,2183.315430 2680.986084,2130.903564 2692.354492,2066.307861 
	C2693.381348,2060.472412 2694.547119,2054.661133 2695.851807,2047.763184 
	C2705.273438,2046.703003 2713.886230,2044.443237 2721.442627,2038.160767 
	C2724.758789,2035.403564 2731.478760,2036.739868 2735.941895,2036.289185 
	C2741.239502,2042.605835 2739.906982,2048.815186 2739.252441,2054.549316 
	C2731.320312,2124.028564 2697.815430,2177.273438 2637.368164,2212.873535 
	C2606.266357,2231.190918 2572.275879,2239.577393 2536.229736,2239.702881 
	C2520.238037,2239.758789 2504.244629,2239.595947 2488.253906,2239.734863 
	C2415.100098,2240.370361 2356.653320,2211.581543 2312.497803,2151.287109 
z"/>
<path fill="#020201" opacity="1.000000" stroke="none" 
	d="
M4151.203613,3826.261230 
	C4147.447754,3839.384277 4144.451660,3850.997803 4140.364258,3862.213867 
	C4132.521973,3883.735107 4116.057617,3895.467529 4094.029053,3898.317627 
	C4071.692871,3901.207764 4049.153076,3900.243652 4028.083984,3898.814941 
	C4026.291992,3897.044922 4025.690430,3896.647949 4025.379883,3896.088867 
	C4025.070312,3895.531494 4024.924072,3894.812012 4024.923340,3894.163818 
	C4024.729492,3667.668945 4024.552246,3441.174072 4024.412842,3214.679199 
	C4024.411377,3212.084229 4024.914551,3209.488770 4025.300293,3205.747314 
	C4029.125244,3205.047363 4032.826904,3203.844482 4036.547607,3203.781982 
	C4050.533936,3203.546143 4064.526855,3203.744629 4078.516846,3203.665039 
	C4105.541504,3203.511230 4130.367188,3216.981445 4142.592773,3248.864990 
	C4152.496094,3274.691895 4155.341797,3301.826660 4156.260742,3329.218506 
	C4156.551270,3337.869629 4156.314453,3346.538330 4156.314453,3355.198975 
	C4156.315430,3486.441406 4156.235840,3617.683594 4156.386719,3748.926025 
	C4156.416016,3774.278320 4155.957031,3799.540527 4151.203613,3826.261230 
z"/>
<path fill="#020202" opacity="1.000000" stroke="none" 
	d="
M2590.789551,3419.999023 
	C2591.116455,3380.689209 2590.661621,3343.349121 2592.109375,3306.082764 
	C2592.802002,3288.253418 2596.909424,3270.532227 2599.883789,3252.831543 
	C2600.755859,3247.642090 2602.754639,3242.573486 2604.735596,3237.650146 
	C2618.341797,3203.829346 2648.076904,3194.229980 2679.933594,3202.041260 
	C2697.631836,3206.380615 2708.989014,3218.637939 2713.959717,3235.545898 
	C2718.441406,3250.791260 2721.970459,3266.583008 2723.495361,3282.367920 
	C2725.732178,3305.518066 2726.623779,3328.874756 2726.670898,3352.146484 
	C2726.945557,3487.434814 2726.962646,3622.723877 2726.675537,3758.012207 
	C2726.616211,3785.962891 2725.198975,3813.972168 2719.933350,3841.517334 
	C2717.824219,3852.549316 2714.676270,3863.568115 2710.456543,3873.966553 
	C2704.612305,3888.368164 2693.157227,3897.278320 2678.203125,3901.590332 
	C2665.744385,3905.183105 2653.152588,3905.303711 2640.681641,3902.145996 
	C2620.842529,3897.122070 2608.710693,3883.917969 2602.599365,3864.770020 
	C2596.684570,3846.238525 2594.266846,3827.042236 2592.814697,3807.790283 
	C2591.513184,3790.537354 2590.908936,3773.193604 2590.883057,3755.888672 
	C2590.716553,3644.592285 2590.792969,3533.295898 2590.789551,3419.999023 
z"/>
</svg>