<?xml version="1.0" encoding="utf-8"?>
<!-- Generator: Adobe Illustrator 19.2.1, SVG Export Plug-In . SVG Version: 6.00 Build 0)  -->
<svg version="1.1" id="layer" xmlns="http://www.w3.org/2000/svg" xmlns:xlink="http://www.w3.org/1999/xlink" x="0px" y="0px"
	 viewBox="0 0 652 652" style="enable-background:new 0 0 652 652;" xml:space="preserve">
<style type="text/css">
	.st0{fill:#BD0022;}
	.st1{fill:#6D6C6C;}
</style>
<path class="st0" d="M116.2,321.6l-25.9,15v-12.4c0-9.4,7-13.4,15.1-8.7L116.2,321.6z M43.6,363.5c-12,6.9-22.3,1-22.3-12.9V247.7
	c0-13.8,10.3-19.8,22.3-12.9l89.1,51.5c11.4,6.6,12,17.7,1.7,24.7l-60.1-34.7c-12-6.9-22.3-1-22.3,12.9v69.5L43.6,363.5z"/>
<path class="st1" d="M221.3,372.5l-23.4-107l1.7,107h-18V226.6h20.7l22.9,99.4l-0.8-99.4h18.2v145.8H221.3z M320.2,354.5
	c1.9-6.8,1.9-16.1,1.9-17.4V226.6h-19v111.6c0,9.7-0.2,14.9-4.3,18.4c-2.7,2.3-6.2,2.3-7.4,2.3c-11.8,0-11.6-11.2-11.6-19.4V226.6
	H261v113.8c0,8.9,0.8,13,2.5,17.1c6,16.1,22.1,17.1,27.3,17.1C296.5,374.8,314.9,373.7,320.2,354.5 M389.1,372.5v-18.4h-28.5v-48.3
	H386v-18.2h-25.6v-42.8h28.7v-18.2h-48.1v145.8H389.1z M464,372.5V226.6h-18.2l0.8,99.4l-22.9-99.4h-20.7v145.8h18l-1.6-107
	l23.3,107H464z M538.8,359.3c0.6-2.7,1-6,1-12v-97.1c0-7-0.2-14.1-6.2-19.2c-5.8-5-14.2-4.3-16.1-4.3h-35.3v145.8h37
	C523.5,372.5,535.7,373.3,538.8,359.3 M520.5,346.5c0,6.8-1.9,8.1-6.2,8.1h-12.8V244.4h11.2c1.6,0,6.8-0.2,7.6,5.8
	c0.2,1.4,0.2,2.9,0.2,4.3V346.5z M616.3,357c2.1-5.6,2.5-11.6,2.5-17.1v-69.4c0-16.3-0.2-24-4.3-31.2c-0.8-1.7-2.9-5-6.6-7.9
	c-7.2-5.8-15.9-5.8-19-5.8c-10.3,0-16.5,3.7-20,6.4c-11.4,8.7-11.4,21.3-11.4,34.3V339c0,8.3,0.2,11,1.4,15.3
	c3.1,11.4,11.8,16.3,15.7,17.8c5,1.9,10.5,1.9,12.2,1.9C591.1,373.9,610.1,374.1,616.3,357 M599.6,338.2c0,8.7,0.6,19.8-11.8,19.8
	c-9.9,0-11.2-7.4-11.2-15.3v-78.1c0-10.9-0.4-16.9,4.7-20.2c2.7-1.9,6-2.1,7-2.1c5.2,0,7.6,2.5,8.9,4.3c2.2,3.5,2.2,9.1,2.2,18
	V338.2z M192.4,413.2l-3.9-25.1h-4.1l-3.6,25.1h3.3l0.6-4.6h3.8l0.6,4.6H192.4z M188,405.5h-3l1.4-13.1L188,405.5z M204.3,413.2
	v-25.1h-2.9v7.2c-0.8-0.8-1.5-1.4-2.7-1.4l-1.6,0.4c-1.5,0.9-1.3,2.7-1.3,3.1v12.7c0,0.4-0.1,2.2,1.4,3.1l1.5,0.4
	c1.6,0,2.4-1.2,2.7-1.6v1.3H204.3z M201.4,408.7l-0.7,2l-0.8,0.3c-1.3,0-1.3-1.2-1.3-1.5v-10.9l0.6-1.7l0.8-0.2l0.8,0.3l0.5,1.5
	V408.7z M217,394.1h-3l-1.7,14.9l-1.7-14.9h-2.9l2.8,19.1h3.5L217,394.1z M229.3,413.2c-0.6-1.2-0.5-2.8-0.5-3.2v-12.1l-0.3-2
	l-1-1.3c-1-0.9-2.6-0.9-2.9-0.9c-2.5,0-3.6,1.2-3.9,2.3l-0.2,1.8v2.4h3v-2.7c0-0.4,0-1.4,1.2-1.4c1.3,0,1.3,1,1.3,1.5v2.8l-1.1,1.1
	l-2.8,1.7c-1.6,1-1.8,1.6-1.8,3.5v3.4c0,0.7-0.1,3.2,2.7,3.2c1.4,0,2-0.6,2.8-1.7l0.5,1.5H229.3z M225.8,408.2l-0.8,2.7l-0.8,0.3
	l-1-0.7l-0.1-1.6v-2l0.5-1.5l0.5-0.4l1.1-0.8l0.6-0.5V408.2z M242,413.2v-15.5c0-1.2,0-2.5-1.1-3.4l-1.8-0.6c-1.6,0-2.5,1.2-2.8,1.6
	v-1.2h-2.9v19.1h2.9v-14.4l0.6-2.1l0.9-0.3l1.1,0.7l0.1,1.2v15H242z M255.1,401v-2.6l-0.3-2.2c-0.2-0.6-0.7-1.5-2.1-2l-2-0.3
	c-0.7,0-3.3,0.1-4.1,2.6c-0.2,0.5-0.2,0.8-0.2,1.8v11.3c0,1.1,0.1,1.5,0.3,2.1c0.9,2.1,3.5,2,3.9,2l1.8-0.2c1.7-0.5,2.3-1.9,2.5-2.5
	l0.1-1.7v-3.5h-2.9v3.6l-0.8,1.9l-0.8,0.1l-0.7-0.1l-0.7-1.4v-11.6l0.6-1.7l0.9-0.2l1.4,0.8l0.1,0.7v3.2H255.1z M267.5,411.1
	l0.3-2.4v-2.5h-2.9v3.3c0,0.4,0.1,1.7-1.4,1.7c-1.4,0-1.3-1.1-1.3-1.5v-5.4h5.7v-6.2l-0.3-2c-0.9-2.2-3.4-2.3-4-2.3
	c-1.4,0-2.3,0.5-2.8,0.8c-1.2,0.9-1.4,2.1-1.4,2.6l-0.1,2.1v10.2l0.2,1.6c0.8,2.3,3.4,2.3,4,2.3C264,413.5,266.7,413.5,267.5,411.1
	 M264.9,402h-2.8v-3.7l0.6-1.9l0.9-0.2c1.2,0,1.3,0.8,1.3,1.7V402z M280.9,413.2v-25.1h-2.9v7.2c-0.7-0.8-1.5-1.4-2.7-1.4l-1.6,0.4
	c-1.5,0.9-1.3,2.7-1.3,3.1v12.7c0,0.4-0.1,2.2,1.4,3.1l1.5,0.4c1.6,0,2.4-1.2,2.7-1.6v1.3H280.9z M277.9,408.7l-0.6,2l-0.8,0.3
	c-1.3,0-1.3-1.2-1.3-1.5v-10.9l0.6-1.7l0.8-0.2l0.8,0.3l0.5,1.5V408.7z M304.3,413.2l-3.9-25.1h-4.1l-3.6,25.1h3.3l0.6-4.6h3.8
	l0.6,4.6H304.3z M299.9,405.5h-3l1.4-13.1L299.9,405.5z M316.2,413.2v-19.1h-2.9v14.5l-0.6,2.1l-0.9,0.3l-1.2-0.6l-0.1-1.2v-15h-3
	v15.5c0,1.2,0,2.5,1.1,3.4l1.8,0.6c1.7,0,2.5-1.1,2.8-1.6v1.2H316.2z M329.3,413.2v-25.1h-2.9v7.2c-0.8-0.8-1.5-1.4-2.7-1.4
	l-1.6,0.4c-1.5,0.9-1.3,2.7-1.3,3.1v12.7c0,0.4-0.1,2.2,1.4,3.1l1.5,0.4c1.6,0,2.4-1.2,2.7-1.6v1.3H329.3z M326.4,408.7l-0.6,2
	l-0.8,0.3c-1.3,0-1.3-1.2-1.3-1.5v-10.9l0.6-1.7l0.8-0.2l0.8,0.3l0.5,1.5V408.7z M334,413.2h2.9v-19.1H334V413.2z M334,392h2.9v-3.8
	H334V392z M349.9,411.1l0.3-2.1v-10.7l-0.3-2.2c-0.8-2.2-3.4-2.2-4-2.2l-1.8,0.3l-1.3,0.7c-1.4,1.2-1.3,2.9-1.3,4.5v8.8
	c0,1.7-0.1,3.7,1.7,4.8c1,0.7,2.3,0.6,2.6,0.6C348.5,413.5,349.5,412.2,349.9,411.1 M347.4,409.3c0,1.1-0.2,1.9-1.5,1.9
	c-1.5,0-1.4-1.3-1.4-1.7v-11.2c0-1,0.1-1.5,0.6-1.9l0.9-0.2c1.2,0,1.4,0.9,1.4,1.8V409.3z M372.4,401.2c0.8-0.7,0.9-2,0.9-4.1v-4.8
	c0-1.1,0.1-2.5-0.7-3.4c-0.9-1.1-2.6-1-2.8-1h-6.5v25.1h3.3v-11.4h3.3C371.2,401.8,371.9,401.7,372.4,401.2 M369.9,397.7l-1.2,1.1
	h-2.1v-7.7h2.1c1,0,1.2,0.3,1.2,1.2V397.7z M385.3,411.1l0.3-2.1v-10.7l-0.3-2.2c-0.8-2.2-3.4-2.2-4-2.2l-1.8,0.3l-1.3,0.7
	c-1.4,1.2-1.3,2.9-1.3,4.5v8.8c0,1.7-0.1,3.7,1.6,4.8c1,0.7,2.3,0.6,2.6,0.6C383.9,413.5,384.9,412.2,385.3,411.1 M382.8,409.3
	c0,1.1-0.2,1.9-1.6,1.9c-1.5,0-1.4-1.3-1.4-1.7v-11.2c0-1,0.1-1.5,0.6-1.9l0.9-0.2c1.3,0,1.4,0.9,1.4,1.8V409.3z M396.6,412.7
	c1.8-1.4,1.7-3.7,1.7-4.3c0-2-0.6-3.4-2-4.9l-0.9-0.9l-1.3-1.3c-1-1-1.5-1.6-1.5-3.1c0-0.9,0.2-1.8,1.4-1.8c1.5,0,1.6,1.2,1.6,3.3
	l2.7,0c0-2.2-0.1-3.2-0.6-4.2c-0.9-1.7-2.9-1.7-3.4-1.7c-1.6,0-2.4,0.5-2.9,0.9c-1.4,1.2-1.4,3.4-1.4,3.7c0,1.7,0.3,2.8,1.5,4.1
	l1.1,1.1l1.5,1.5l1.5,2.4l0.1,1c0,1.1-0.1,1.8-0.6,2.1l-0.9,0.3c-1.6,0-1.7-1.5-1.7-1.9l0-1.3v-1.6h-2.7v1.6c0,1.7,0,3.8,1.6,5
	c1.1,0.8,2.3,0.8,2.8,0.8C395.3,413.6,396.1,413.1,396.6,412.7 M407.7,411.1h-0.6c-1.3,0-1.3-0.9-1.3-1.4v-13.2h1.6v-2.4h-1.6v-4.1
	H403v4.1h-1.8v2.4h1.7v13.7c0,1.1,0,2.4,1.2,2.9l1.9,0.3l1.6-0.2L407.7,411.1z M410.4,404.4h6.3v-3h-6.3V404.4z M430.1,401.2
	c0.8-0.7,0.9-2,0.9-4.1v-4.8c0-1.1,0.1-2.5-0.7-3.4c-0.9-1.1-2.6-1-2.8-1H421v25.1h3.3v-11.4h3.3C429,401.8,429.6,401.7,430.1,401.2
	 M427.6,397.7l-1.2,1.1h-2.1v-7.7h2c1,0,1.3,0.3,1.3,1.2V397.7z M439.7,396.7l1.7,0.6V394l-0.8-0.1c-1.7,0-2.3,1.1-2.9,2.4v-2.2h-3
	v19.1h2.9v-12.8c0-1.1,0-2.4,0.8-3.2L439.7,396.7 M453.1,411.1l0.3-2.1v-10.7l-0.3-2.2c-0.8-2.2-3.4-2.2-4-2.2l-1.8,0.3l-1.3,0.7
	c-1.4,1.2-1.3,2.9-1.3,4.5v8.8c0,1.7-0.1,3.7,1.6,4.8c1,0.7,2.3,0.6,2.6,0.6C451.7,413.5,452.7,412.2,453.1,411.1 M450.5,409.3
	c0,1.1-0.2,1.9-1.5,1.9c-1.5,0-1.4-1.3-1.4-1.7v-11.2c0-1,0.1-1.5,0.6-1.9l0.9-0.2c1.3,0,1.4,0.9,1.4,1.8V409.3z M466.3,413.2v-25.1
	h-2.9v7.2c-0.7-0.8-1.5-1.4-2.7-1.4l-1.6,0.4c-1.5,0.9-1.3,2.7-1.3,3.1v12.7c0,0.4-0.2,2.2,1.4,3.1l1.5,0.4c1.6,0,2.4-1.2,2.7-1.6
	v1.3H466.3z M463.4,408.7l-0.6,2L462,411c-1.3,0-1.3-1.2-1.3-1.5v-10.9l0.6-1.7l0.8-0.2l0.8,0.3l0.5,1.5V408.7z M479.4,413.2v-19.1
	h-2.9v14.5l-0.6,2.1L475,411l-1.2-0.6l-0.1-1.2v-15h-3v15.5c0,1.2,0,2.5,1.1,3.4l1.8,0.6c1.7,0,2.5-1.1,2.8-1.6v1.2H479.4z
	 M492.5,401v-2.6l-0.3-2.2c-0.2-0.6-0.7-1.5-2.1-2l-1.9-0.3c-0.7,0-3.3,0.1-4.1,2.6c-0.2,0.5-0.2,0.8-0.2,1.8v11.3
	c0,1.1,0.1,1.5,0.3,2.1c0.9,2.1,3.5,2,3.9,2l1.8-0.2c1.7-0.5,2.3-1.9,2.5-2.5l0.1-1.7v-3.5h-2.9v3.6l-0.7,1.9l-0.8,0.1l-0.7-0.1
	l-0.7-1.4v-11.6l0.6-1.7l0.9-0.2l1.4,0.8l0.1,0.7v3.2H492.5z M502.1,411.1h-0.6c-1.3,0-1.3-0.9-1.3-1.4v-13.2h1.6v-2.4h-1.6v-4.1
	h-2.9v4.1h-1.8v2.4h1.7v13.7c0,1.1-0.1,2.4,1.2,2.9l1.9,0.3l1.6-0.2L502.1,411.1z M505.4,413.2h2.9v-19.1h-2.9V413.2z M505.4,392
	h2.9v-3.8h-2.9V392z M521.4,411.1l0.3-2.1v-10.7l-0.3-2.2c-0.8-2.2-3.4-2.2-3.9-2.2l-1.8,0.3l-1.3,0.7c-1.4,1.2-1.3,2.9-1.3,4.5v8.8
	c0,1.7-0.1,3.7,1.7,4.8c1,0.7,2.2,0.6,2.6,0.6C519.9,413.5,520.9,412.2,521.4,411.1 M518.8,409.3c0,1.1-0.2,1.9-1.5,1.9
	c-1.5,0-1.4-1.3-1.4-1.7v-11.2c0-1,0.1-1.5,0.6-1.9l0.9-0.2c1.2,0,1.4,0.9,1.4,1.8V409.3z M534.7,413.2v-15.5c0-1.2,0-2.5-1.1-3.4
	l-1.8-0.6c-1.7,0-2.5,1.2-2.8,1.6v-1.2h-2.9v19.1h2.9v-14.4l0.6-2.1l0.9-0.3l1.1,0.7l0.2,1.2v15H534.7z M554.5,413.3
	c2.8-1.3,2.8-5.1,2.8-5.6c0-1.4-0.2-3.3-2-6.1l-1.1-1.7l-1.5-2.2c-1.1-1.7-1.7-2.9-1.7-5c0-1.2,0-2.6,1.7-2.6c1.4,0,1.3,1.4,1.3,1.7
	v4.5h3.1v-4.5c0-1-0.1-1.4-0.3-1.9c-0.8-2.5-3.3-2.4-4-2.4c-1.4,0-2.4,0.4-2.9,0.7c-1,0.6-2.3,2.1-2.3,4.8c0,2.9,1.4,5.1,1.9,5.9
	c1,1.6,2.1,3.1,3.1,4.7c0.9,1.6,1.2,2.6,1.2,4.4c0,1.1,0,2.9-1.6,3l-1-0.3c-0.5-0.3-0.7-0.9-0.7-2.1V404h-3.1v4.2
	c0,1.5,0.1,2.8,1.1,4c0.5,0.7,1.7,1.5,3.7,1.5C553.4,413.7,554.1,413.5,554.5,413.3 M569.6,394.2h-3l-1.8,15.1l-1.7-15.1h-2.9
	l2.9,18.7c0.1,1,0.1,1.5-0.2,2l-2,0.6v2.7l1.5,0.1l1.9-0.3c1.4-0.6,1.6-2.2,1.7-2.6L569.6,394.2z M579.5,412.7
	c1.8-1.4,1.7-3.7,1.7-4.3c0-2-0.6-3.4-2-4.9l-0.9-0.9l-1.3-1.3c-1-1-1.5-1.6-1.5-3.1c0-0.9,0.2-1.8,1.4-1.8c1.5,0,1.5,1.2,1.6,3.3
	l2.7,0c0-2.2-0.1-3.2-0.6-4.2c-0.9-1.7-2.9-1.7-3.4-1.7c-1.5,0-2.4,0.5-2.9,0.9c-1.4,1.2-1.4,3.4-1.4,3.7c0,1.7,0.3,2.8,1.5,4.1
	l1,1.1l1.5,1.5l1.5,2.4l0.1,1c0,1.1-0.1,1.8-0.6,2.1l-0.9,0.3c-1.6,0-1.7-1.5-1.7-1.9l0-1.3v-1.6h-2.7v1.6c0,1.7,0,3.8,1.5,5
	c1.1,0.8,2.3,0.8,2.8,0.8C578.2,413.6,579,413.1,579.5,412.7 M590.7,411.1h-0.6c-1.3,0-1.2-0.9-1.2-1.4v-13.2h1.7v-2.4h-1.6v-4.1
	H586v4.1h-1.8v2.4h1.7v13.7c0,1.1,0,2.4,1.2,2.9l1.9,0.3l1.7-0.2L590.7,411.1z M602.1,411.1l0.3-2.4v-2.5h-2.9v3.3
	c0,0.4,0.1,1.7-1.4,1.7c-1.4,0-1.3-1.1-1.3-1.5v-5.4h5.7v-6.2l-0.3-2c-0.9-2.2-3.4-2.3-4-2.3c-1.4,0-2.3,0.5-2.8,0.8
	c-1.2,0.9-1.4,2.1-1.4,2.6l-0.1,2.1v10.2l0.2,1.6c0.8,2.3,3.4,2.3,4,2.3C598.6,413.5,601.3,413.5,602.1,411.1 M599.5,402h-2.8v-3.7
	l0.6-1.9l0.9-0.2c1.2,0,1.3,0.8,1.3,1.7V402z M621.3,413.2V398c0-1.3,0-2.6-1.1-3.5l-1.8-0.6c-1.9,0-2.6,1.3-3,1.8
	c-0.3-0.6-0.8-1.8-2.7-1.9c-1.3,0-2,0.6-2.7,1.7v-1.3H607v19.1h2.9v-14.8c0-0.3-0.1-2,1.5-2c1.2,0,1.3,0.9,1.3,1.8v15h2.9v-14.8
	l0.6-1.8l0.9-0.3l1.1,0.5l0.2,1.2v15H621.3z"/>
</svg>
