<?xml version="1.0" encoding="UTF-8"?>
<svg width="498.22" height="103.57" version="1.1" viewBox="0 0 498.22 103.57" xmlns="http://www.w3.org/2000/svg">
<title>Solid State Logic logo</title>
 <g transform="translate(0 .003)" fill="#fff" style="fill:#0e0d0d">
  <path d="m14.959 86.806c4.992 0 8.924 2.731 8.924 8.4 0 4.733-3.744 8.359-8.994 8.359-4.968 0-8.971-2.4-8.971-8.335 0-4.629 3.579-8.424 9.041-8.424zm-0.07 1.342c-3.226 0-5.109 3.272-5.109 7.3 0 5.014 2.307 6.757 4.944 6.757 2.825 0 5.3-2.332 5.3-7.488-3e-3 -4.05-2.098-6.569-5.135-6.569zm30.222-1.036c0.754 0.07 1.413 0.118 2.143 0.118s1.366-0.048 2.1-0.118a218.73 218.73 0 0 0 2.92 5.745c1.2-1.907 2.33-3.838 3.437-5.745a7.475 7.475 0 0 0 1.2 0.118 7.722 7.722 0 0 0 1.2-0.118c-1.06 1.389-3.343 4.8-4.968 7.134a249.25 249.25 0 0 0 4.944 9.017c-0.73-0.047-1.389-0.023-2.071-0.023s-1.366-0.024-2.049 0.023c-1.012-1.884-1.978-3.932-3.084-5.933-1.295 2-2.472 4-3.579 5.933-0.353-0.023-0.753-0.023-1.154-0.023a10.506 10.506 0 0 0-1.2 0.023c1.224-1.507 3.413-4.968 5.038-7.392-1.58-2.92-4.241-7.629-4.877-8.759zm34.933 0c1.413 0.023 2.779 0.118 4.191 0.118 2.331 0 4.285-0.048 4.921-0.118a3.892 3.892 0 0 0-0.094 0.989 4.519 4.519 0 0 0 0.094 1.06c-1.813-0.119-4.615-0.284-5.321-0.284-0.118 1.719-0.118 3.414-0.118 5.133 2.049-0.023 3.555-0.094 5.345-0.188a5.478 5.478 0 0 0-0.118 1.059 7.286 7.286 0 0 0 0.118 0.966 67.7 67.7 0 0 0-5.345-0.212v1.2c0 2.614 0.071 4.5 0.189 6.428-0.542-0.047-1.154-0.023-1.931-0.023s-1.389-0.024-1.931 0.023a99.35 99.35 0 0 0 0.188-6.428v-3.2c0-2.615-0.07-4.474-0.188-6.523zm39.572-0.306c4.991 0 8.923 2.731 8.923 8.4 0 4.733-3.743 8.359-8.994 8.359-4.967 0-8.97-2.4-8.97-8.335 0-4.629 3.579-8.424 9.041-8.424zm-0.071 1.342c-3.225 0-5.109 3.272-5.109 7.3 0 5.014 2.308 6.757 4.944 6.757 2.826 0 5.3-2.332 5.3-7.488-2e-3 -4.05-2.098-6.569-5.135-6.569zm35.026 7.723v0.964c0 2.614 0.07 4.5 0.189 6.428-0.542-0.047-1.154-0.023-1.931-0.023s-1.389-0.024-1.931 0.023a99.35 99.35 0 0 0 0.188-6.428v-3.2c0-2.613-0.07-4.472-0.188-6.521a14.714 14.714 0 0 0 1.931 0.118c0.848 0 1.86-0.118 3.461-0.118 2.4 0 3.249 0.235 4.073 0.8a3.638 3.638 0 0 1 1.53 3.108c0 2.284-1.294 3.744-3.649 4.332 1.507 2.661 3.3 5.321 5.015 7.911-0.73-0.047-1.389-0.023-2.119-0.023s-1.413-0.024-2.143 0.023l-4.214-7.392zm0.07-7.417c-0.046 2.142-0.07 4.261-0.07 6.4a4.347 4.347 0 0 0 0.518 0.047c2.072 0 3.2-1.107 3.2-3.367 2e-3 -2.75-1.081-3.08-3.648-3.08zm30.272-1.342a14.691 14.691 0 0 0 1.931 0.118c1.035 0 2.189-0.118 4.261-0.118 5.368 0 9.064 1.718 9.064 7.652 0 5.227-3.719 8.5-8.146 8.5-2.354 0-3.955-0.023-5.179-0.023-0.778 0-1.39-0.024-1.931 0.023a99.35 99.35 0 0 0 0.188-6.428v-3.2c-4e-3 -2.616-0.07-4.475-0.188-6.524zm3.673 11.442v1.413c0 0.918 0.023 1.766 0.023 1.978 0.471 0.023 1.107 0.07 2.072 0.07 3.555 0 5.769-2.4 5.769-7.3 0-3.861-2.143-6.262-5.392-6.262a21.915 21.915 0 0 0-2.449 0.118c0 0.212-0.023 1.059-0.023 2v7.981zm45.022-5.602a3.429 3.429 0 1 1-3.429 3.429 3.452 3.452 0 0 1 3.429-3.429zm32.116-5.84c1.413 0.023 2.779 0.118 4.191 0.118 2.331 0 4.285-0.048 4.921-0.118a3.938 3.938 0 0 0-0.094 0.989 4.573 4.573 0 0 0 0.094 1.06c-1.813-0.119-4.614-0.284-5.321-0.284-0.118 1.719-0.118 3.414-0.118 5.133a119.01 119.01 0 0 0 5.345-0.188 5.4 5.4 0 0 0-0.118 1.059 7.284 7.284 0 0 0 0.118 0.966 67.7 67.7 0 0 0-5.345-0.212c0 1.012-0.023 2-0.023 3.014s0.023 2 0.07 2.942a46.486 46.486 0 0 0 5.392-0.305 4.558 4.558 0 0 0-0.094 1.059 2.588 2.588 0 0 0 0.094 0.918c-0.848-0.023-1.954-0.023-4.12-0.023h-2.331c-1.789 0-2.284 0-2.661 0.023 0.118-1.931 0.189-3.814 0.189-6.428v-3.2c0-2.615-0.071-4.474-0.189-6.523zm31.896 0a4.816 4.816 0 0 0 2.119 0c3.414 3.791 6.71 7.417 10.218 11.207v-4.332c0-3.061-0.024-6.216-0.164-6.875a4.816 4.816 0 0 0 2.119 0c-0.307 5.745-0.377 8.829-0.377 13.349v2.8c-0.307-0.023-0.636-0.023-0.966-0.023-0.352 0-0.659 0-0.918 0.023q-4.838-5.615-10.289-11.349c-0.023 0.919-0.047 1.814-0.047 2.755v2.734c0 3.743 0.071 5.156 0.142 5.862a8.8 8.8 0 0 0-1.107-0.023c-0.353 0-0.73 0-1.083 0.023 0.118-0.471 0.471-6.71 0.471-11.466 0-2.166-0.095-3.555-0.118-4.685zm46.658 1.153c-2.92 0-5.933 2.426-5.933 7.37 0 3.767 2.1 6.569 5.721 6.569a6.864 6.864 0 0 0 2.567-0.424 10.745 10.745 0 0 0 0.07-1.648c0-2.543-0.142-3.6-0.165-4.05a8.148 8.148 0 0 0 1.742 0.118 8.985 8.985 0 0 0 1.907-0.118 30.316 30.316 0 0 0-0.188 3.955v0.778a11.656 11.656 0 0 0 0.071 1.812 23.235 23.235 0 0 1-6.287 0.943c-5.392 0-9.3-2.944-9.3-7.794 0-5.956 4.192-8.97 9.747-8.97a10.962 10.962 0 0 1 5.675 1.412 22.588 22.588 0 0 0-0.659 2.4h-0.33a5.382 5.382 0 0 0-4.638-2.353zm28.952-1.153a15.859 15.859 0 0 0 3.862 0 105.23 105.23 0 0 0-0.189 6.521v3.2c0 1.79 0.024 3.533 0.047 4.756a46.487 46.487 0 0 0 5.392-0.305 4.5 4.5 0 0 0-0.094 1.059 2.563 2.563 0 0 0 0.094 0.918c-0.848-0.023-1.954-0.023-4.12-0.023h-2.331c-1.79 0-2.284 0-2.661 0.023 0.118-1.931 0.189-3.814 0.189-6.428v-3.2c0-2.613-0.071-4.472-0.189-6.521zm41.95 16.128c-0.66 0-1.342-0.024-2 0.023-0.5-1.507-1.037-3.131-1.625-4.732-1.013-0.024-2-0.047-3.014-0.047-0.824 0-1.625 0.023-2.448 0.047-0.636 1.6-1.155 3.225-1.6 4.732a8.689 8.689 0 0 0-1.106-0.023 10.112 10.112 0 0 0-1.177 0.023c1.153-2.472 4.638-10.9 6.71-16.268a3.478 3.478 0 0 0 1.789 0c2 5.343 4.709 12.619 6.545 16.268-0.757-0.047-1.415-0.023-2.074-0.023zm-8.477-6.1h4.309c-0.683-1.907-1.342-3.721-2.1-5.6a92.01 92.01 0 0 0-2.209 5.602zm32.694-10.028a4.816 4.816 0 0 0 2.119 0c3.415 3.791 6.71 7.417 10.218 11.207v-4.332c0-3.061-0.023-6.216-0.164-6.875a4.816 4.816 0 0 0 2.119 0c-0.306 5.745-0.377 8.829-0.377 13.349v2.8c-0.306-0.023-0.635-0.023-0.965-0.023-0.353 0-0.66 0-0.918 0.023q-4.839-5.615-10.29-11.349c-0.023 0.919-0.046 1.814-0.046 2.755v2.734c0 3.743 0.07 5.156 0.141 5.862a8.783 8.783 0 0 0-1.106-0.023c-0.354 0-0.731 0-1.083 0.023 0.117-0.471 0.47-6.71 0.47-11.466 2e-3 -2.166-0.092-3.555-0.118-4.685zm37.666 0a14.7 14.7 0 0 0 1.931 0.118c1.036 0 2.189-0.118 4.262-0.118 5.368 0 9.064 1.718 9.064 7.652 0 5.227-3.721 8.5-8.146 8.5-2.355 0-3.955-0.023-5.18-0.023-0.777 0-1.39-0.024-1.931 0.023 0.118-1.931 0.189-3.814 0.189-6.428v-3.2c0-2.616-0.071-4.475-0.189-6.524zm3.673 11.442v1.413c0 0.918 0.024 1.766 0.024 1.978 0.47 0.023 1.106 0.07 2.072 0.07 3.555 0 5.767-2.4 5.767-7.3 0-3.861-2.141-6.262-5.391-6.262a21.881 21.881 0 0 0-2.448 0.118c0 0.212-0.024 1.059-0.024 2v7.981zm-465.02-90.489c-4.241 0-7.23 2.919-7.23 6.256 0 10.289 21.134 7.717 21.134 23.5 0 9.385-7.37 15.433-18.423 15.433-5.006 0-9.177-1.112-11.193-2.711a72.686 72.686 0 0 0 2.016-8.829h1.321c0.765 4.1 4.033 7.508 9.594 7.508s8.133-3.2 8.133-7.091c0-10.567-20.716-7.647-20.716-23.5 0-9.663 7.369-14.877 15.642-14.877 5.005 0 8.69 1.252 11.4 3.407-0.834 2.155-1.321 3.823-2.225 6.882h-1.042c-1.46-3.963-4.31-5.978-8.411-5.978zm35.805 10.011c10.845 0 17.032 6.534 17.032 17.031 0 11.471-7.021 18.145-17.032 18.145-8.272 0-17.032-4.1-17.032-16.615 0-12.444 8.273-18.561 17.032-18.561zm0.139 3.128c-4.241 0-6.882 4.866-6.882 15.5 0 7.787 1.668 13.7 6.813 13.7 4.449 0 6.674-5.423 6.674-16.337 0-8.136-1.877-12.866-6.605-12.866zm23.641-21.203a34.044 34.044 0 0 0 5.214 0.348 34.044 34.044 0 0 0 5.214-0.348c-0.348 7.787-0.556 14.947-0.556 24.054v4.519c0 9.107 0.208 16.337 0.556 23.775-1.182-0.139-3.2-0.069-5.214-0.069s-4.032-0.07-5.214 0.069c0.348-7.438 0.556-14.668 0.556-23.775v-4.52c-1e-3 -9.107-0.209-16.267-0.556-24.053zm24.541 0.347a5.492 5.492 0 1 1-5.491 5.492 5.459 5.459 0 0 1 5.491-5.492zm-5.214 18.631a39.234 39.234 0 0 0 10.428 0c-0.486 5.005-0.556 9.8-0.556 15.433v2.781a146.04 146.04 0 0 0 0.556 15.155c-1.182-0.139-3.058-0.069-5.214-0.069s-3.893-0.07-5.214 0.069a145.75 145.75 0 0 0 0.557-15.155v-2.781c0-5.631-0.07-10.428-0.557-15.433zm49.848 33.369c-1.183-0.139-3.2-0.069-5.214-0.069a46.051 46.051 0 0 0-4.659 0.069c0.14-0.208 0.557-4.866 0.557-5.422l-0.139-0.139c-1.738 4.171-4.588 6.465-9.941 6.465-9.386 0-13.279-7.716-13.279-17.8 0-9.941 5.909-17.379 13.418-17.379a10.357 10.357 0 0 1 9.246 5.144h0.138c0-8.343-0.208-15.364-0.556-23.22a34.058 34.058 0 0 0 5.215 0.348 34.064 34.064 0 0 0 5.214-0.348c-0.348 7.787-0.557 14.947-0.557 24.054v4.519c0 9.11 0.209 16.34 0.557 23.778zm-16.407-3.128c3.824 0 6.534-3.963 6.534-13.974 0-8.62-2.572-12.374-6.187-12.374-2.919 0-6.326 2.99-6.326 13.626 0 9.455 2.85 12.722 5.979 12.722zm57.706-41.155c-4.241 0-7.23 2.919-7.23 6.256 0 10.289 21.134 7.717 21.134 23.5 0 9.385-7.369 15.433-18.423 15.433-5.006 0-9.176-1.112-11.193-2.711a72.882 72.882 0 0 0 2.017-8.829h1.32c0.765 4.1 4.033 7.508 9.594 7.508s8.134-3.2 8.134-7.091c0-10.567-20.717-7.647-20.717-23.5 0-9.663 7.369-14.877 15.642-14.877 5.005 0 8.69 1.252 11.4 3.407-0.834 2.155-1.321 3.823-2.225 6.882h-1.042c-1.459-3.963-4.31-5.978-8.411-5.978zm38.239 13.136a6.962 6.962 0 0 0 0.209 1.738l-6.122-0.138c-0.347 4.24-0.486 11.748-0.486 15.5 0 9.663 0.765 11.261 3.893 11.261a5.308 5.308 0 0 0 3.2-0.695v2.851a21.876 21.876 0 0 1-7.578 1.529c-5.909 0-8.828-3.476-8.828-10.5 0-5.423 0.486-13.974 0.486-19.883l-4.866 0.07a7.009 7.009 0 0 0 0.208-1.738 9.656 9.656 0 0 0-0.208-1.877l4.866 0.208c0-2.85-0.069-5-0.278-8.551 3.267-1.321 6.4-2.711 9.524-4.31l0.7 0.487c-0.347 2.989-0.626 8.2-0.626 12.305l6.119-0.139a9.587 9.587 0 0 0-0.213 1.882zm18.423-3.125c7.439 0 12.723 3.2 12.723 11.331 0 5.909-0.209 10.776-0.209 15.781 0 4.379 1.252 4.8 4.1 4.8v1.668c-2.711 1.043-4.241 1.6-6.4 1.6-3.406 0-5.492-1.669-6.6-4.8a10.314 10.314 0 0 1-9.037 4.8c-7.022 0-9.942-4.171-9.942-8.829 0-6.117 4.032-8.69 10.289-10.15 7.786-1.877 8.482-2.5 8.482-4.936 0-3.337-2.5-6.048-6.674-6.048-3.059 0-7.091 1.877-8.343 3.824h-0.486l-0.9-4.171a21.115 21.115 0 0 1 12.997-4.87zm3.546 16.475c-3.963 2.295-9.176 1.877-9.176 8.9 0 3.406 1.529 5.283 3.963 5.283 3.058 0 5.144-2.363 5.144-6.882 0-3.964 0.069-5.702 0.069-7.301zm35.945-13.35a7.01 7.01 0 0 0 0.208 1.738l-6.117-0.139c-0.348 4.24-0.488 11.748-0.488 15.5 0 9.663 0.765 11.261 3.894 11.261a5.31 5.31 0 0 0 3.2-0.695v2.851a21.886 21.886 0 0 1-7.578 1.529c-5.909 0-8.829-3.476-8.829-10.5 0-5.423 0.487-13.974 0.487-19.883l-4.866 0.07a7.01 7.01 0 0 0 0.208-1.738 9.658 9.658 0 0 0-0.208-1.877l4.866 0.208c0-2.85-0.07-5-0.278-8.551 3.267-1.321 6.4-2.711 9.524-4.31l0.695 0.487c-0.348 2.989-0.625 8.2-0.625 12.305l6.117-0.139a9.658 9.658 0 0 0-0.21 1.883zm23.29 27.81a12.986 12.986 0 0 0 8.551-3.128l0.834 0.626-1.53 3.893c-2.294 1.738-5.283 2.85-10.566 2.85-9.108 0-16.894-4.936-16.894-17.31 0-11.958 6.883-17.866 16.129-17.866 9.176 0 14.182 5.63 14.182 15.433v1.46a2.386 2.386 0 0 1-0.07 0.834h-19.953c0 7.508 2.921 13.208 9.317 13.208zm-3.754-27.81c-4.1 0-5.354 6.117-5.562 11.47h10.706c-0.207-6.948-1.529-11.47-5.144-11.47zm41.578-16.543a43.032 43.032 0 0 0 5.7 0.348 43 43 0 0 0 5.7-0.348 311.95 311.95 0 0 0-0.556 19.257v9.455c0 5.283 0.07 10.427 0.139 14.042a136.79 136.79 0 0 0 15.92-0.9 13.334 13.334 0 0 0-0.278 3.128 7.575 7.575 0 0 0 0.278 2.711c-2.5-0.069-5.77-0.069-12.166-0.069h-6.878c-5.283 0-6.743 0-7.855 0.069 0.348-5.7 0.557-11.262 0.557-18.978v-9.458a312.36 312.36 0 0 0-0.561-19.257zm48.459 13.418c10.845 0 17.032 6.534 17.032 17.031 0 11.471-7.021 18.145-17.032 18.145-8.272 0-17.032-4.1-17.032-16.615-1e-3 -12.444 8.272-18.561 17.032-18.561zm0.14 3.128c-4.242 0-6.883 4.866-6.883 15.5 0 7.787 1.668 13.7 6.812 13.7 4.45 0 6.674-5.423 6.674-16.337-1e-3 -8.136-1.878-12.866-6.604-12.866zm46.509 0.417a9.024 9.024 0 0 1 3.754 7.716c0 6.883-5.423 11.54-13.487 11.54-1.042 0-1.946-0.069-3.128-0.069a2.341 2.341 0 0 0-2.016 2.5c0 2.225 1.668 3.615 5.353 3.685l5.144 0.069c7.787 0.139 11.332 2.781 11.332 8.9 0 11.054-10.15 14.877-18.353 14.877-8.689 0-13.834-3.684-13.834-9.246 0-4.449 2.642-7.021 6.813-8.62v-0.139a5.128 5.128 0 0 1-3.963-5.075c0-3.059 2.572-6.326 6.465-7.369v-0.139a11.934 11.934 0 0 1-6.535-3.754 10.664 10.664 0 0 1-2.363-7.23c0-7.022 6.048-11.192 14.737-11.192 1.669 0 3.477 0.208 5.145 0.277 1.182 0.07 2.433 0.14 3.893 0.14 2.294 0 4.867-0.07 7.37-0.07a13.4 13.4 0 0 0-0.14 1.668 13.416 13.416 0 0 0 0.14 1.669l-6.119-0.278zm-11.192 31.631c-2.434 0-4.1 0.208-5.006 0.695-1.112 0.556-2.711 2.781-2.711 6.049 0 5.283 4.171 7.994 9.107 7.994 5.353 0 8.69-3.824 8.69-8.273 0-5.422-3.754-6.465-10.08-6.465zm-3.894-23.151c0 6.118 2.434 8.2 4.588 8.2 3.06 0 4.52-2.434 4.52-8.83 0-6.326-1.878-8.55-4.38-8.55-3.129 5e-3 -4.728 3.063-4.728 9.18zm32.192-29.753a5.492 5.492 0 1 1-5.492 5.492 5.46 5.46 0 0 1 5.492-5.492zm-5.214 18.631a39.234 39.234 0 0 0 10.428 0c-0.487 5.005-0.556 9.8-0.556 15.433v2.781a145.77 145.77 0 0 0 0.556 15.155c-1.182-0.139-3.059-0.069-5.214-0.069s-3.893-0.07-5.214 0.069a146.03 146.03 0 0 0 0.557-15.155v-2.781c2e-3 -5.631-0.071-10.428-0.557-15.433zm36.846 2.642c-5.562 0-8.342 5.353-8.342 14.321 0 8.411 3.615 13.069 10.358 13.069a9.958 9.958 0 0 0 7.16-3.267l0.834 0.695a41.329 41.329 0 0 0-1.529 4.1c-2.016 1.6-5.144 2.711-9.385 2.711-13.626 0-18.075-8.69-18.075-17.38 0-10.219 7.16-17.8 18.354-17.8a21.728 21.728 0 0 1 11.957 3.267 25.455 25.455 0 0 0-2.642 7.23h-1.669c-0.764-4.166-2.78-6.946-7.021-6.946z" style="fill:#0e0d0d"/>
 </g>
</svg>
