<?xml version="1.0" encoding="utf-8"?>
<!-- Generator: Adobe Illustrator 23.0.0, SVG Export Plug-In . SVG Version: 6.00 Build 0)  -->
<svg version="1.1" id="Layer_1" xmlns="http://www.w3.org/2000/svg" xmlns:xlink="http://www.w3.org/1999/xlink" x="0px" y="0px"
	 viewBox="0 0 733.1 129.99" style="enable-background:new 0 0 733.1 129.99;" xml:space="preserve">
<style type="text/css">
	.st0{fill:#F47B20;}
</style>
<g>
	<path d="M48.67,54.35C48.21,48.66,45.1,46,39.33,46c-4.4,0-9.02,1.21-9.02,6.45c0,10.16,35.49,1.9,35.49,22.81
		c0,12.45-9.62,19.11-26.08,19.11c-11.91,0-25.71-2.58-26.16-18.05h15.47c0,8.35,6.3,8.96,11.29,8.96c6.96,0,10.02-2.3,10.02-6.37
		c0-12.14-35.49-0.85-35.49-24.58c0-8.04,5.54-17.45,26.01-17.45c11.15,0,22.45,4.72,23.28,17.45H48.67z"/>
	<path d="M716.73,52.98c-0.47-7.66-6.98-10.93-14.43-10.93c-10.01,0-15.38,3.57-15.38,10.17c0,15.46,36.39,1.95,36.39,25.46
		c0,8.72-7.37,16.68-21.92,16.68c-11.43,0-20.55-5.75-21.15-18.05h5.9c0.7,9.64,7.04,12.89,16.39,12.89
		c9.19,0,14.87-5.21,14.87-11.14c0-17.65-36.4-3.63-36.4-25.55c0-11.28,9.8-15.63,20.69-15.63c13.2,0,19.93,5.4,20.92,16.08H716.73z
		"/>
	<path d="M510.17,38.57h6.38l19.32,47.32l19.49-47.32h6.22l-22.9,54.14h-5.69L510.17,38.57z"/>
	<path d="M102.67,94.38c-17.68,0-30.89-9.7-30.89-28.73c0-19.03,13.21-28.75,30.89-28.75c17.58,0,30.77,9.71,30.77,28.75
		C133.44,84.68,120.25,94.38,102.67,94.38z M102.67,83.93c8.4,0,13.77-6.3,13.77-18.28c0-11.98-5.37-18.28-13.77-18.28
		c-8.51,0-13.9,6.3-13.9,18.28C88.77,77.63,94.16,83.93,102.67,83.93z"/>
	<path d="M156.79,37.74v32.22c0,9.79,2.41,13.05,10.39,13.13c7.96-0.08,10.37-3.34,10.37-13.13l0.07-32.22h15.5v36.55
		c0,11.51-6.15,19.03-25.94,19.25c-19.8-0.22-25.87-7.73-25.87-19.25V37.74H156.79z"/>
	<path d="M236.1,92.71L218.36,58.2h-0.14v34.51H203.2V38.57h21.6l17.59,36.24h0.23V38.57h15.03v54.14H236.1z"/>
	<path d="M267.73,38.57h23.26c20.86,0,32.01,8.34,32.01,27.07c0,18.73-11.14,27.08-32.01,27.08h-23.26V38.57z M283.19,81.62h8.72
		c10.33,0,14.72-6.05,14.72-15.99c0-12.51-6.91-16-14.72-16h-8.72V81.62z"/>
	<path d="M417.14,38.57h18.87c16.7,0,28.35,10.92,28.35,27.07c0,16.15-11.65,27.08-28.35,27.08h-18.87V38.57z M423.04,87.54h12.36
		c13.52,0,22.47-9.4,22.47-21.91c0-12.51-8.96-21.92-22.47-21.92h-12.36V87.54z"/>
	<path d="M567.26,38.57h5.92v54.14h-5.92V38.57z"/>
	<path d="M625.57,53.67c-2.59-7.67-9.4-11.61-17.43-11.61c-11.22,0-19.79,10.76-19.79,23.59c0,12.05,6.14,23.57,19.79,23.57
		c8.72,0,16.9-5.84,18.05-13.86h6.29c-2.9,12.36-12.44,19.02-24.34,19.02c-15.76,0-26.31-12.44-26.31-28.73
		c0-16.3,12.66-28.75,26.31-28.75c12.36,0,21,6.21,23.5,16.77H625.57z"/>
	<path d="M640.43,38.57h34.27v5.47h-28.32v16.98h24.54v5.47h-24.54v20.77h28.32v5.47h-34.27V38.57z"/>
	<path d="M473.19,38.56h34.27v5.47h-28.35v16.99h24.56v5.46h-24.56v20.77h28.35v5.47h-34.27V38.56z"/>
</g>
<g>
	<path class="st0" d="M393.57,85.17c-0.02-12.59-9.84-22.53-21.96-22.53c-2.42,0-4.74,0.41-6.91,1.16v0.02
		c0.6-0.06,0.97-0.06,1.59-0.06c11.5,0,20.83,9.53,20.84,21.49c-0.02,11.95-9.34,21.39-20.84,21.39c-0.62,0-0.99,0-1.59-0.06v0.02
		c2.17,0.75,4.49,1.16,6.91,1.16c12.11,0,21.94-9.94,21.96-22.53h0c0-0.01,0-0.01,0-0.02S393.57,85.18,393.57,85.17L393.57,85.17z"
		/>
	<path class="st0" d="M365.71,99.31c-0.4,0-0.64,0-1.01-0.04c1.37,0.52,2.84,0.77,4.37,0.77c7.67,0,13.87-6.52,13.89-14.83h0
		c0-0.01,0-0.01,0-0.02s0-0.01,0-0.02h0c-0.02-8.31-6.22-14.83-13.89-14.83c-1.53,0-3,0.26-4.37,0.77c0.38-0.04,0.62-0.04,1.01-0.04
		c7.28,0,13.18,6.22,13.18,14.12l0.01,0l-0.01,0C378.88,93.09,372.99,99.31,365.71,99.31z"/>
	<path class="st0" d="M407.14,85.7c0-0.01,0-0.01,0-0.02l0,0c-0.02-19.47-13.58-30.72-32.12-30.72c-3.69,0-7.23,0.62-10.57,1.79
		l0.02,0.06c0.92-0.09,1.47-0.11,2.44-0.11c17.57,0,30.85,10.13,30.88,28.58c-0.03,18.44-13.31,28.4-30.88,28.4
		c-0.96,0-1.52-0.02-2.44-0.11l-0.02,0.06c3.34,1.16,6.88,1.79,10.57,1.79c18.54,0,32.1-10.23,32.12-29.7l0,0
		C407.14,85.71,407.14,85.7,407.14,85.7z"/>
	<path class="st0" d="M372.03,24.67c-2.17-0.75-4.49-1.16-6.91-1.16c-12.11,0-21.94,9.94-21.96,22.53h0c0,0.01,0,0.01,0,0.02
		s0,0.01,0,0.02h0c0.02,12.59,9.84,22.53,21.96,22.53c2.42,0,4.74-0.41,6.91-1.16v-0.02c-0.6,0.06-0.97,0.06-1.59,0.06
		c-11.5,0-20.83-9.53-20.84-21.49c0.02-11.95,9.34-21.39,20.84-21.39c0.62,0,0.99,0,1.59,0.06V24.67z"/>
	<path class="st0" d="M371.02,31.94c0.4,0,0.64,0,1.01,0.04c-1.37-0.52-2.84-0.77-4.37-0.77c-7.67,0-13.87,6.52-13.89,14.83h0
		c0,0.01,0,0.01,0,0.02s0,0.01,0,0.02h0c0.02,8.31,6.22,14.83,13.89,14.83c1.53,0,3-0.26,4.37-0.77c-0.38,0.04-0.62,0.04-1.01,0.04
		c-7.28,0-13.18-6.22-13.18-14.12l-0.02,0l0.02,0C357.84,38.16,363.74,31.94,371.02,31.94z"/>
	<path class="st0" d="M372.26,74.44c-0.92,0.09-1.47,0.11-2.44,0.11c-17.57,0-30.85-10.13-30.88-28.58
		c0.03-18.44,13.31-28.4,30.88-28.4c0.96,0,1.52,0.02,2.44,0.11l0.02-0.06c-3.34-1.16-6.88-1.79-10.57-1.79
		c-18.54,0-31.96,11.39-31.98,30.86l0,0c0,0.01,0,0.01,0,0.02s0,0.01,0,0.02l0,0c0.02,19.47,13.44,29.56,31.98,29.56
		c3.69,0,7.23-0.62,10.57-1.79L372.26,74.44z"/>
</g>
<path d="M422.07,115.81c-1.47,1.48-3.25,2.22-5.33,2.22c-2.08,0-3.86-0.74-5.32-2.22c-1.46-1.47-2.18-3.25-2.18-5.34
	c0-2.07,0.73-3.84,2.21-5.31c1.46-1.47,3.23-2.2,5.3-2.2c2.08,0,3.86,0.73,5.33,2.2c1.47,1.46,2.21,3.23,2.21,5.31
	C424.28,112.55,423.54,114.34,422.07,115.81z M412.16,105.89c-1.26,1.26-1.89,2.79-1.89,4.58c0,1.81,0.63,3.34,1.88,4.61
	c1.26,1.27,2.78,1.91,4.58,1.91c1.8,0,3.33-0.64,4.59-1.91c1.26-1.27,1.89-2.81,1.89-4.61c0-1.79-0.63-3.32-1.89-4.58
	c-1.27-1.27-2.79-1.91-4.59-1.91C414.95,103.99,413.43,104.62,412.16,105.89z M416.59,106.31c1.03,0,1.78,0.1,2.26,0.3
	c0.85,0.36,1.28,1.05,1.28,2.09c0,0.74-0.27,1.28-0.81,1.63c-0.29,0.18-0.68,0.32-1.19,0.4c0.64,0.1,1.12,0.37,1.42,0.81
	c0.3,0.44,0.45,0.86,0.45,1.28v0.61c0,0.19,0.01,0.39,0.02,0.61c0.02,0.22,0.04,0.36,0.07,0.43l0.05,0.1h-1.37
	c-0.01-0.03-0.01-0.05-0.02-0.08c-0.01-0.03-0.01-0.06-0.02-0.09l-0.03-0.27v-0.65c0-0.95-0.26-1.58-0.78-1.89
	c-0.31-0.18-0.85-0.27-1.62-0.27h-1.15v3.25h-1.46v-8.26H416.59z M418.17,107.62c-0.37-0.21-0.96-0.31-1.76-0.31h-1.24v3h1.31
	c0.62,0,1.08-0.06,1.39-0.19c0.57-0.22,0.85-0.65,0.85-1.29C418.72,108.23,418.53,107.82,418.17,107.62z"/>
</svg>
